STARTFONT 2.1
FONT -DIGITAL-VT220-Bold-I-Normal-80col-60-600-150-75-c-600-iso10646-1
SIZE 60 75 75
FONTBOUNDINGBOX 79 60 -9 -12
STARTPROPERTIES 21
FOUNDRY "DIGITAL"
FAMILY_NAME "vt220"
WEIGHT_NAME "Bold"
RELATIVE_SETWIDTH 50
SLANT "I"
SETWIDTH_NAME "Normal"
ADD_STYLE_NAME "80col"
PIXEL_SIZE 60
POINT_SIZE 600
RESOLUTION_X 75
RESOLUTION_Y 75
SPACING "c"
CHARSET_REGISTRY "ISO10646"
CHARSET_ENCODING "1"
CAP_HEIGHT 42
X_HEIGHT 30
WEIGHT 10
QUAD_WIDTH 60
FONT_ASCENT 48
FONT_DESCENT 12
AVERAGE_WIDTH 600
ENDPROPERTIES
CHARS 237
STARTCHAR U+00FD
ENCODING 253
SWIDTH 1000 0
DWIDTH 60 0
BBX 79 60 -9 -12
BITMAP
00000000000000000000
00000000000000000000
00000000000000000000
00000000000000000000
00000000000000000000
00000000000000000000
00000000000000000000
00000000000000000000
00000000000000000000
00000000000000000000
00000000000000000000
00000000000000000000
00000000000000000000
00000000000000000000
00000000000000000000
00000000000000000000
00000000000000000000
00000000000000000000
00000000000000000000
00000000000000000000
00000000000000000000
00000000000000000000
00000000000000000000
00000000000000000000
00000000000000000000
00000000000000000000
00000000000000000000
00000000000000000000
00000000000000000000
00000000000000000000
00000000000000000000
00000000000000000000
00000000000000000000
00000000000000000000
00000000000000000000
00000000000000000000
00000000000000000000
00000000000000000000
00000000000000000000
00000000000000000000
00000000000000000000
00000000000000000000
00000000000000000000
00000000000000000000
00000000000000000000
00000000000000000000
00000000000000000000
00000000000000000000
00000000000000000000
00000000000000000000
00000000000000000000
00000000000000000000
00000000000000000000
00000000000000000000
00000000000000000000
00000000000000000000
00000000000000000000
00000000000000000000
00000000000000000000
00000000000000000000
ENDCHAR
STARTCHAR U+25A1
ENCODING 9633
SWIDTH 1000 0
DWIDTH 60 0
BBX 79 60 -9 -12
BITMAP
00000000000000000000
00000000000000000000
00000000000000000000
00000000000000000000
00000000000000000000
00000000000000000000
0000fffffffffffc0000
0000fffffffffffc0000
0000fffffffffffc0000
0001fffffffffff80000
0001fffffffffff80000
0001fffffffffff80000
0003ff0000003ff00000
0003ff0000003ff00000
0003ff0000003ff00000
0007fe0000007fe00000
0007fe0000007fe00000
0007fe0000007fe00000
000ffc000000ffc00000
000ffc000000ffc00000
000ffc000000ffc00000
001ff8000001ff800000
001ff8000001ff800000
001ff8000001ff800000
003ff0000003ff000000
003ff0000003ff000000
003ff0000003ff000000
007fe0000007fe000000
007fe0000007fe000000
007fe0000007fe000000
00ffc000000ffc000000
00ffc000000ffc000000
00ffc000000ffc000000
01ff8000001ff8000000
01ff8000001ff8000000
01ff8000001ff8000000
03ff0000003ff0000000
03ff0000003ff0000000
03ff0000003ff0000000
07fe0000007fe0000000
07fe0000007fe0000000
07fe0000007fe0000000
0fffffffffffc0000000
0fffffffffffc0000000
0fffffffffffc0000000
1fffffffffff80000000
1fffffffffff80000000
1fffffffffff80000000
00000000000000000000
00000000000000000000
00000000000000000000
00000000000000000000
00000000000000000000
00000000000000000000
00000000000000000000
00000000000000000000
00000000000000000000
00000000000000000000
00000000000000000000
00000000000000000000
ENDCHAR
STARTCHAR U+00FE
ENCODING 254
SWIDTH 1000 0
DWIDTH 60 0
BBX 79 60 -9 -12
BITMAP
00000000000000000000
00000000000000000000
00000000000000000000
00000000000000000000
00000000000000000000
00000000000000000000
0000ffc0000000000000
0000ffc0000000000000
0000ffc0000000000000
0001ff80000000000000
0001ff80000000000000
0001ff80000000000000
0003ff00000000000000
0003ff00000000000000
0003ff00000000000000
0007fe00000000000000
0007fe00000000000000
0007fe00000000000000
000ffcfffffff0000000
000ffcfffffff0000000
000ffcfffffff0000000
001ff9ffffffe0000000
001ff9ffffffe0000000
001ff9ffffffe0000000
003fffc00003ff000000
003fffc00003ff000000
003fffc00003ff000000
007fff800007fe000000
007fff800007fe000000
007fff800007fe000000
00ffff00000ffc000000
00ffff00000ffc000000
00ffff00000ffc000000
01fffe00001ff8000000
01fffe00001ff8000000
01fffe00001ff8000000
03ff3ffffffc00000000
03ff3ffffffc00000000
03ff3ffffffc00000000
07fe7ffffff800000000
07fe7ffffff800000000
07fe7ffffff800000000
0ffc0000000000000000
0ffc0000000000000000
0ffc0000000000000000
1ff80000000000000000
1ff80000000000000000
1ff80000000000000000
3ff00000000000000000
3ff00000000000000000
3ff00000000000000000
7fe00000000000000000
7fe00000000000000000
7fe00000000000000000
ffc00000000000000000
ffc00000000000000000
ffc00000000000000000
ff800000000000000000
ff800000000000000000
ff800000000000000000
ENDCHAR
STARTCHAR U+00FF
ENCODING 255
SWIDTH 1000 0
DWIDTH 60 0
BBX 79 60 -9 -12
BITMAP
00000000000000000000
00000000000000000000
00000000000000000000
00000000000000000000
00000000000000000000
00000000000000000000
000003ff0003ff000000
000003ff0003ff000000
000003ff0003ff000000
000007fe0007fe000000
000007fe0007fe000000
000007fe0007fe000000
00000000000000000000
00000000000000000000
00000000000000000000
00000000000000000000
00000000000000000000
00000000000000000000
000ffc00003ff0000000
000ffc00003ff0000000
000ffc00003ff0000000
001ff800007fe0000000
001ff800007fe0000000
001ff800007fe0000000
003ff00000ffc0000000
003ff00000ffc0000000
003ff00000ffc0000000
007fe00001ff80000000
007fe00001ff80000000
007fe00001ff80000000
00ffc000ffff00000000
00ffc000ffff00000000
00ffc000ffff00000000
01ff8001fffe00000000
01ff8001fffe00000000
01ff8001fffe00000000
000fffffcffc00000000
000fffffcffc00000000
000fffffcffc00000000
001fffff9ff800000000
001fffff9ff800000000
001fffff9ff800000000
000000003ff000000000
000000003ff000000000
000000003ff000000000
000000007fe000000000
000000007fe000000000
000000007fe000000000
3ff00000ffc000000000
3ff00000ffc000000000
3ff00000ffc000000000
7fe00001ff8000000000
7fe00001ff8000000000
7fe00001ff8000000000
03ffffffc00000000000
03ffffffc00000000000
03ffffffc00000000000
07ffffff800000000000
07ffffff800000000000
07ffffff800000000000
ENDCHAR
STARTCHAR U+00FC
ENCODING 252
SWIDTH 1000 0
DWIDTH 60 0
BBX 79 60 -9 -12
BITMAP
00000000000000000000
00000000000000000000
00000000000000000000
00000000000000000000
00000000000000000000
00000000000000000000
000003ff0003ff000000
000003ff0003ff000000
000003ff0003ff000000
000007fe0007fe000000
000007fe0007fe000000
000007fe0007fe000000
00000000000000000000
00000000000000000000
00000000000000000000
00000000000000000000
00000000000000000000
00000000000000000000
000ffc00003ff0000000
000ffc00003ff0000000
000ffc00003ff0000000
001ff800007fe0000000
001ff800007fe0000000
001ff800007fe0000000
003ff00000ffc0000000
003ff00000ffc0000000
003ff00000ffc0000000
007fe00001ff80000000
007fe00001ff80000000
007fe00001ff80000000
00ffc00003ff00000000
00ffc00003ff00000000
00ffc00003ff00000000
01ff800007fe00000000
01ff800007fe00000000
01ff800007fe00000000
03ff00000ffc00000000
03ff00000ffc00000000
03ff00000ffc00000000
07fe00001ff800000000
07fe00001ff800000000
07fe00001ff800000000
003ffffffcffc0000000
003ffffffcffc0000000
003ffffffcffc0000000
007ffffff9ff80000000
007ffffff9ff80000000
007ffffff9ff80000000
00000000000000000000
00000000000000000000
00000000000000000000
00000000000000000000
00000000000000000000
00000000000000000000
00000000000000000000
00000000000000000000
00000000000000000000
00000000000000000000
00000000000000000000
00000000000000000000
ENDCHAR
STARTCHAR U+00FB
ENCODING 251
SWIDTH 1000 0
DWIDTH 60 0
BBX 79 60 -9 -12
BITMAP
00000003fffff0000000
00000003fffff0000000
00000003fffff0000000
00000007ffffe0000000
00000007ffffe0000000
00000007ffffe0000000
000003ff0003ff000000
000003ff0003ff000000
000003ff0003ff000000
000007fe0007fe000000
000007fe0007fe000000
000007fe0007fe000000
00000000000000000000
00000000000000000000
00000000000000000000
00000000000000000000
00000000000000000000
00000000000000000000
000ffc00003ff0000000
000ffc00003ff0000000
000ffc00003ff0000000
001ff800007fe0000000
001ff800007fe0000000
001ff800007fe0000000
003ff00000ffc0000000
003ff00000ffc0000000
003ff00000ffc0000000
007fe00001ff80000000
007fe00001ff80000000
007fe00001ff80000000
00ffc00003ff00000000
00ffc00003ff00000000
00ffc00003ff00000000
01ff800007fe00000000
01ff800007fe00000000
01ff800007fe00000000
03ff00000ffc00000000
03ff00000ffc00000000
03ff00000ffc00000000
07fe00001ff800000000
07fe00001ff800000000
07fe00001ff800000000
003ffffffcffc0000000
003ffffffcffc0000000
003ffffffcffc0000000
007ffffff9ff80000000
007ffffff9ff80000000
007ffffff9ff80000000
00000000000000000000
00000000000000000000
00000000000000000000
00000000000000000000
00000000000000000000
00000000000000000000
00000000000000000000
00000000000000000000
00000000000000000000
00000000000000000000
00000000000000000000
00000000000000000000
ENDCHAR
STARTCHAR U+00FA
ENCODING 250
SWIDTH 1000 0
DWIDTH 60 0
BBX 79 60 -9 -12
BITMAP
00000000000000000000
00000000000000000000
00000000000000000000
00000000000000000000
00000000000000000000
00000000000000000000
000000003fffc0000000
000000003fffc0000000
000000003fffc0000000
000000007fff80000000
000000007fff80000000
000000007fff80000000
00000ffff00000000000
00000ffff00000000000
00000ffff00000000000
00001fffe00000000000
00001fffe00000000000
00001fffe00000000000
000ffc00003ff0000000
000ffc00003ff0000000
000ffc00003ff0000000
001ff800007fe0000000
001ff800007fe0000000
001ff800007fe0000000
003ff00000ffc0000000
003ff00000ffc0000000
003ff00000ffc0000000
007fe00001ff80000000
007fe00001ff80000000
007fe00001ff80000000
00ffc00003ff00000000
00ffc00003ff00000000
00ffc00003ff00000000
01ff800007fe00000000
01ff800007fe00000000
01ff800007fe00000000
03ff00000ffc00000000
03ff00000ffc00000000
03ff00000ffc00000000
07fe00001ff800000000
07fe00001ff800000000
07fe00001ff800000000
003ffffffcffc0000000
003ffffffcffc0000000
003ffffffcffc0000000
007ffffff9ff80000000
007ffffff9ff80000000
007ffffff9ff80000000
00000000000000000000
00000000000000000000
00000000000000000000
00000000000000000000
00000000000000000000
00000000000000000000
00000000000000000000
00000000000000000000
00000000000000000000
00000000000000000000
00000000000000000000
00000000000000000000
ENDCHAR
STARTCHAR U+00F9
ENCODING 249
SWIDTH 1000 0
DWIDTH 60 0
BBX 79 60 -9 -12
BITMAP
00000000000000000000
00000000000000000000
00000000000000000000
00000000000000000000
00000000000000000000
00000000000000000000
000003fffc0000000000
000003fffc0000000000
000003fffc0000000000
000007fff80000000000
000007fff80000000000
000007fff80000000000
00000000ffff00000000
00000000ffff00000000
00000000ffff00000000
00000001fffe00000000
00000001fffe00000000
00000001fffe00000000
000ffc00003ff0000000
000ffc00003ff0000000
000ffc00003ff0000000
001ff800007fe0000000
001ff800007fe0000000
001ff800007fe0000000
003ff00000ffc0000000
003ff00000ffc0000000
003ff00000ffc0000000
007fe00001ff80000000
007fe00001ff80000000
007fe00001ff80000000
00ffc00003ff00000000
00ffc00003ff00000000
00ffc00003ff00000000
01ff800007fe00000000
01ff800007fe00000000
01ff800007fe00000000
03ff00000ffc00000000
03ff00000ffc00000000
03ff00000ffc00000000
07fe00001ff800000000
07fe00001ff800000000
07fe00001ff800000000
003ffffffcffc0000000
003ffffffcffc0000000
003ffffffcffc0000000
007ffffff9ff80000000
007ffffff9ff80000000
007ffffff9ff80000000
00000000000000000000
00000000000000000000
00000000000000000000
00000000000000000000
00000000000000000000
00000000000000000000
00000000000000000000
00000000000000000000
00000000000000000000
00000000000000000000
00000000000000000000
00000000000000000000
ENDCHAR
STARTCHAR U+00F8
ENCODING 248
SWIDTH 1000 0
DWIDTH 60 0
BBX 79 60 -9 -12
BITMAP
00000000000000000000
00000000000000000000
00000000000000000000
00000000000000000000
00000000000000000000
00000000000000000000
00000000000000000000
00000000000000000000
00000000000000000000
00000000000000000000
00000000000000000000
00000000000000000000
0000000000003ff00000
0000000000003ff00000
0000000000003ff00000
0000000000007fe00000
0000000000007fe00000
0000000000007fe00000
00003ffffffff0000000
00003ffffffff0000000
00003ffffffff0000000
00007fffffffe0000000
00007fffffffe0000000
00007fffffffe0000000
003ff0003ff3ff000000
003ff0003ff3ff000000
003ff0003ff3ff000000
007fe0007fe7fe000000
007fe0007fe7fe000000
007fe0007fe7fe000000
00ffc03ff00ffc000000
00ffc03ff00ffc000000
00ffc03ff00ffc000000
01ff807fe01ff8000000
01ff807fe01ff8000000
01ff807fe01ff8000000
03ff3ff0003ff0000000
03ff3ff0003ff0000000
03ff3ff0003ff0000000
07fe7fe0007fe0000000
07fe7fe0007fe0000000
07fe7fe0007fe0000000
003ffffffff000000000
003ffffffff000000000
003ffffffff000000000
007fffffffe000000000
007fffffffe000000000
007fffffffe000000000
3ff00000000000000000
3ff00000000000000000
3ff00000000000000000
7fe00000000000000000
7fe00000000000000000
7fe00000000000000000
00000000000000000000
00000000000000000000
00000000000000000000
00000000000000000000
00000000000000000000
00000000000000000000
ENDCHAR
STARTCHAR U+0153
ENCODING 339
SWIDTH 1000 0
DWIDTH 60 0
BBX 79 60 -9 -12
BITMAP
00000000000000000000
00000000000000000000
00000000000000000000
00000000000000000000
00000000000000000000
00000000000000000000
00000000000000000000
00000000000000000000
00000000000000000000
00000000000000000000
00000000000000000000
00000000000000000000
00000000000000000000
00000000000000000000
00000000000000000000
00000000000000000000
00000000000000000000
00000000000000000000
00003fffcffff0000000
00003fffcffff0000000
00003fffcffff0000000
00007fff9fffe0000000
00007fff9fffe0000000
00007fff9fffe0000000
003ff00ffc03ff000000
003ff00ffc03ff000000
003ff00ffc03ff000000
007fe01ff807fe000000
007fe01ff807fe000000
007fe01ff807fe000000
00ffc03ffffffc000000
00ffc03ffffffc000000
00ffc03ffffffc000000
01ff807ffffff8000000
01ff807ffffff8000000
01ff807ffffff8000000
03ff00ffc00000000000
03ff00ffc00000000000
03ff00ffc00000000000
07fe01ff800000000000
07fe01ff800000000000
07fe01ff800000000000
003fffcfffffc0000000
003fffcfffffc0000000
003fffcfffffc0000000
007fff9fffff80000000
007fff9fffff80000000
007fff9fffff80000000
00000000000000000000
00000000000000000000
00000000000000000000
00000000000000000000
00000000000000000000
00000000000000000000
00000000000000000000
00000000000000000000
00000000000000000000
00000000000000000000
00000000000000000000
00000000000000000000
ENDCHAR
STARTCHAR U+00F6
ENCODING 246
SWIDTH 1000 0
DWIDTH 60 0
BBX 79 60 -9 -12
BITMAP
00000000000000000000
00000000000000000000
00000000000000000000
00000000000000000000
00000000000000000000
00000000000000000000
000003ff0003ff000000
000003ff0003ff000000
000003ff0003ff000000
000007fe0007fe000000
000007fe0007fe000000
000007fe0007fe000000
00000000000000000000
00000000000000000000
00000000000000000000
00000000000000000000
00000000000000000000
00000000000000000000
00003ffffffff0000000
00003ffffffff0000000
00003ffffffff0000000
00007fffffffe0000000
00007fffffffe0000000
00007fffffffe0000000
003ff0000003ff000000
003ff0000003ff000000
003ff0000003ff000000
007fe0000007fe000000
007fe0000007fe000000
007fe0000007fe000000
00ffc000000ffc000000
00ffc000000ffc000000
00ffc000000ffc000000
01ff8000001ff8000000
01ff8000001ff8000000
01ff8000001ff8000000
03ff0000003ff0000000
03ff0000003ff0000000
03ff0000003ff0000000
07fe0000007fe0000000
07fe0000007fe0000000
07fe0000007fe0000000
003ffffffff000000000
003ffffffff000000000
003ffffffff000000000
007fffffffe000000000
007fffffffe000000000
007fffffffe000000000
00000000000000000000
00000000000000000000
00000000000000000000
00000000000000000000
00000000000000000000
00000000000000000000
00000000000000000000
00000000000000000000
00000000000000000000
00000000000000000000
00000000000000000000
00000000000000000000
ENDCHAR
STARTCHAR U+00F5
ENCODING 245
SWIDTH 1000 0
DWIDTH 60 0
BBX 79 60 -9 -12
BITMAP
000000ffff00ffc00000
000000ffff00ffc00000
000000ffff00ffc00000
000001fffe01ff800000
000001fffe01ff800000
000001fffe01ff800000
0000ffc03fffc0000000
0000ffc03fffc0000000
0000ffc03fffc0000000
0001ff807fff80000000
0001ff807fff80000000
0001ff807fff80000000
00000000000000000000
00000000000000000000
00000000000000000000
00000000000000000000
00000000000000000000
00000000000000000000
00003ffffffff0000000
00003ffffffff0000000
00003ffffffff0000000
00007fffffffe0000000
00007fffffffe0000000
00007fffffffe0000000
003ff0000003ff000000
003ff0000003ff000000
003ff0000003ff000000
007fe0000007fe000000
007fe0000007fe000000
007fe0000007fe000000
00ffc000000ffc000000
00ffc000000ffc000000
00ffc000000ffc000000
01ff8000001ff8000000
01ff8000001ff8000000
01ff8000001ff8000000
03ff0000003ff0000000
03ff0000003ff0000000
03ff0000003ff0000000
07fe0000007fe0000000
07fe0000007fe0000000
07fe0000007fe0000000
003ffffffff000000000
003ffffffff000000000
003ffffffff000000000
007fffffffe000000000
007fffffffe000000000
007fffffffe000000000
00000000000000000000
00000000000000000000
00000000000000000000
00000000000000000000
00000000000000000000
00000000000000000000
00000000000000000000
00000000000000000000
00000000000000000000
00000000000000000000
00000000000000000000
00000000000000000000
ENDCHAR
STARTCHAR U+00F4
ENCODING 244
SWIDTH 1000 0
DWIDTH 60 0
BBX 79 60 -9 -12
BITMAP
00000003fffff0000000
00000003fffff0000000
00000003fffff0000000
00000007ffffe0000000
00000007ffffe0000000
00000007ffffe0000000
000003ff0003ff000000
000003ff0003ff000000
000003ff0003ff000000
000007fe0007fe000000
000007fe0007fe000000
000007fe0007fe000000
00000000000000000000
00000000000000000000
00000000000000000000
00000000000000000000
00000000000000000000
00000000000000000000
00003ffffffff0000000
00003ffffffff0000000
00003ffffffff0000000
00007fffffffe0000000
00007fffffffe0000000
00007fffffffe0000000
003ff0000003ff000000
003ff0000003ff000000
003ff0000003ff000000
007fe0000007fe000000
007fe0000007fe000000
007fe0000007fe000000
00ffc000000ffc000000
00ffc000000ffc000000
00ffc000000ffc000000
01ff8000001ff8000000
01ff8000001ff8000000
01ff8000001ff8000000
03ff0000003ff0000000
03ff0000003ff0000000
03ff0000003ff0000000
07fe0000007fe0000000
07fe0000007fe0000000
07fe0000007fe0000000
003ffffffff000000000
003ffffffff000000000
003ffffffff000000000
007fffffffe000000000
007fffffffe000000000
007fffffffe000000000
00000000000000000000
00000000000000000000
00000000000000000000
00000000000000000000
00000000000000000000
00000000000000000000
00000000000000000000
00000000000000000000
00000000000000000000
00000000000000000000
00000000000000000000
00000000000000000000
ENDCHAR
STARTCHAR U+00F3
ENCODING 243
SWIDTH 1000 0
DWIDTH 60 0
BBX 79 60 -9 -12
BITMAP
00000000000000000000
00000000000000000000
00000000000000000000
00000000000000000000
00000000000000000000
00000000000000000000
000000003fffc0000000
000000003fffc0000000
000000003fffc0000000
000000007fff80000000
000000007fff80000000
000000007fff80000000
00000ffff00000000000
00000ffff00000000000
00000ffff00000000000
00001fffe00000000000
00001fffe00000000000
00001fffe00000000000
00003ffffffff0000000
00003ffffffff0000000
00003ffffffff0000000
00007fffffffe0000000
00007fffffffe0000000
00007fffffffe0000000
003ff0000003ff000000
003ff0000003ff000000
003ff0000003ff000000
007fe0000007fe000000
007fe0000007fe000000
007fe0000007fe000000
00ffc000000ffc000000
00ffc000000ffc000000
00ffc000000ffc000000
01ff8000001ff8000000
01ff8000001ff8000000
01ff8000001ff8000000
03ff0000003ff0000000
03ff0000003ff0000000
03ff0000003ff0000000
07fe0000007fe0000000
07fe0000007fe0000000
07fe0000007fe0000000
003ffffffff000000000
003ffffffff000000000
003ffffffff000000000
007fffffffe000000000
007fffffffe000000000
007fffffffe000000000
00000000000000000000
00000000000000000000
00000000000000000000
00000000000000000000
00000000000000000000
00000000000000000000
00000000000000000000
00000000000000000000
00000000000000000000
00000000000000000000
00000000000000000000
00000000000000000000
ENDCHAR
STARTCHAR U+00F2
ENCODING 242
SWIDTH 1000 0
DWIDTH 60 0
BBX 79 60 -9 -12
BITMAP
00000000000000000000
00000000000000000000
00000000000000000000
00000000000000000000
00000000000000000000
00000000000000000000
0000000ffff000000000
0000000ffff000000000
0000000ffff000000000
0000001fffe000000000
0000001fffe000000000
0000001fffe000000000
0000000003fffc000000
0000000003fffc000000
0000000003fffc000000
0000000007fff8000000
0000000007fff8000000
0000000007fff8000000
00003ffffffff0000000
00003ffffffff0000000
00003ffffffff0000000
00007fffffffe0000000
00007fffffffe0000000
00007fffffffe0000000
003ff0000003ff000000
003ff0000003ff000000
003ff0000003ff000000
007fe0000007fe000000
007fe0000007fe000000
007fe0000007fe000000
00ffc000000ffc000000
00ffc000000ffc000000
00ffc000000ffc000000
01ff8000001ff8000000
01ff8000001ff8000000
01ff8000001ff8000000
03ff0000003ff0000000
03ff0000003ff0000000
03ff0000003ff0000000
07fe0000007fe0000000
07fe0000007fe0000000
07fe0000007fe0000000
003ffffffff000000000
003ffffffff000000000
003ffffffff000000000
007fffffffe000000000
007fffffffe000000000
007fffffffe000000000
00000000000000000000
00000000000000000000
00000000000000000000
00000000000000000000
00000000000000000000
00000000000000000000
00000000000000000000
00000000000000000000
00000000000000000000
00000000000000000000
00000000000000000000
00000000000000000000
ENDCHAR
STARTCHAR U+00F1
ENCODING 241
SWIDTH 1000 0
DWIDTH 60 0
BBX 79 60 -9 -12
BITMAP
000000ffff00ffc00000
000000ffff00ffc00000
000000ffff00ffc00000
000001fffe01ff800000
000001fffe01ff800000
000001fffe01ff800000
0000ffc03fffc0000000
0000ffc03fffc0000000
0000ffc03fffc0000000
0001ff807fff80000000
0001ff807fff80000000
0001ff807fff80000000
00000000000000000000
00000000000000000000
00000000000000000000
00000000000000000000
00000000000000000000
00000000000000000000
000ffcfffffff0000000
000ffcfffffff0000000
000ffcfffffff0000000
001ff9ffffffe0000000
001ff9ffffffe0000000
001ff9ffffffe0000000
003fffc00003ff000000
003fffc00003ff000000
003fffc00003ff000000
007fff800007fe000000
007fff800007fe000000
007fff800007fe000000
00ffc000000ffc000000
00ffc000000ffc000000
00ffc000000ffc000000
01ff8000001ff8000000
01ff8000001ff8000000
01ff8000001ff8000000
03ff0000003ff0000000
03ff0000003ff0000000
03ff0000003ff0000000
07fe0000007fe0000000
07fe0000007fe0000000
07fe0000007fe0000000
0ffc000000ffc0000000
0ffc000000ffc0000000
0ffc000000ffc0000000
1ff8000001ff80000000
1ff8000001ff80000000
1ff8000001ff80000000
00000000000000000000
00000000000000000000
00000000000000000000
00000000000000000000
00000000000000000000
00000000000000000000
00000000000000000000
00000000000000000000
00000000000000000000
00000000000000000000
00000000000000000000
00000000000000000000
ENDCHAR
STARTCHAR U+00F0
ENCODING 240
SWIDTH 1000 0
DWIDTH 60 0
BBX 79 60 -9 -12
BITMAP
000000000ffc03ff0000
000000000ffc03ff0000
000000000ffc03ff0000
000000001ff807fe0000
000000001ff807fe0000
000000001ff807fe0000
0000000000ffff000000
0000000000ffff000000
0000000000ffff000000
0000000001fffe000000
0000000001fffe000000
0000000001fffe000000
00000000ffc03ff00000
00000000ffc03ff00000
00000000ffc03ff00000
00000001ff807fe00000
00000001ff807fe00000
00000001ff807fe00000
00003ffffffcffc00000
00003ffffffcffc00000
00003ffffffcffc00000
00007ffffff9ff800000
00007ffffff9ff800000
00007ffffff9ff800000
003ff00000ffff000000
003ff00000ffff000000
003ff00000ffff000000
007fe00001fffe000000
007fe00001fffe000000
007fe00001fffe000000
00ffc000000ffc000000
00ffc000000ffc000000
00ffc000000ffc000000
01ff8000001ff8000000
01ff8000001ff8000000
01ff8000001ff8000000
03ff00000ffc00000000
03ff00000ffc00000000
03ff00000ffc00000000
07fe00001ff800000000
07fe00001ff800000000
07fe00001ff800000000
003ffffffc0000000000
003ffffffc0000000000
003ffffffc0000000000
007ffffff80000000000
007ffffff80000000000
007ffffff80000000000
00000000000000000000
00000000000000000000
00000000000000000000
00000000000000000000
00000000000000000000
00000000000000000000
00000000000000000000
00000000000000000000
00000000000000000000
00000000000000000000
00000000000000000000
00000000000000000000
ENDCHAR
STARTCHAR U+00EF
ENCODING 239
SWIDTH 1000 0
DWIDTH 60 0
BBX 79 60 -9 -12
BITMAP
00000000000000000000
00000000000000000000
00000000000000000000
00000000000000000000
00000000000000000000
00000000000000000000
000003ff0003ff000000
000003ff0003ff000000
000003ff0003ff000000
000007fe0007fe000000
000007fe0007fe000000
000007fe0007fe000000
00000000000000000000
00000000000000000000
00000000000000000000
00000000000000000000
00000000000000000000
00000000000000000000
000000ffff0000000000
000000ffff0000000000
000000ffff0000000000
000001fffe0000000000
000001fffe0000000000
000001fffe0000000000
0000000ffc0000000000
0000000ffc0000000000
0000000ffc0000000000
0000001ff80000000000
0000001ff80000000000
0000001ff80000000000
0000003ff00000000000
0000003ff00000000000
0000003ff00000000000
0000007fe00000000000
0000007fe00000000000
0000007fe00000000000
000000ffc00000000000
000000ffc00000000000
000000ffc00000000000
000001ff800000000000
000001ff800000000000
000001ff800000000000
003ffffffff000000000
003ffffffff000000000
003ffffffff000000000
007fffffffe000000000
007fffffffe000000000
007fffffffe000000000
00000000000000000000
00000000000000000000
00000000000000000000
00000000000000000000
00000000000000000000
00000000000000000000
00000000000000000000
00000000000000000000
00000000000000000000
00000000000000000000
00000000000000000000
00000000000000000000
ENDCHAR
STARTCHAR U+00EE
ENCODING 238
SWIDTH 1000 0
DWIDTH 60 0
BBX 79 60 -9 -12
BITMAP
00000003fffff0000000
00000003fffff0000000
00000003fffff0000000
00000007ffffe0000000
00000007ffffe0000000
00000007ffffe0000000
000003ff0003ff000000
000003ff0003ff000000
000003ff0003ff000000
000007fe0007fe000000
000007fe0007fe000000
000007fe0007fe000000
00000000000000000000
00000000000000000000
00000000000000000000
00000000000000000000
00000000000000000000
00000000000000000000
000000ffff0000000000
000000ffff0000000000
000000ffff0000000000
000001fffe0000000000
000001fffe0000000000
000001fffe0000000000
0000000ffc0000000000
0000000ffc0000000000
0000000ffc0000000000
0000001ff80000000000
0000001ff80000000000
0000001ff80000000000
0000003ff00000000000
0000003ff00000000000
0000003ff00000000000
0000007fe00000000000
0000007fe00000000000
0000007fe00000000000
000000ffc00000000000
000000ffc00000000000
000000ffc00000000000
000001ff800000000000
000001ff800000000000
000001ff800000000000
003ffffffff000000000
003ffffffff000000000
003ffffffff000000000
007fffffffe000000000
007fffffffe000000000
007fffffffe000000000
00000000000000000000
00000000000000000000
00000000000000000000
00000000000000000000
00000000000000000000
00000000000000000000
00000000000000000000
00000000000000000000
00000000000000000000
00000000000000000000
00000000000000000000
00000000000000000000
ENDCHAR
STARTCHAR U+00ED
ENCODING 237
SWIDTH 1000 0
DWIDTH 60 0
BBX 79 60 -9 -12
BITMAP
00000000000000000000
00000000000000000000
00000000000000000000
00000000000000000000
00000000000000000000
00000000000000000000
000000003fffc0000000
000000003fffc0000000
000000003fffc0000000
000000007fff80000000
000000007fff80000000
000000007fff80000000
00000ffff00000000000
00000ffff00000000000
00000ffff00000000000
00001fffe00000000000
00001fffe00000000000
00001fffe00000000000
000000ffff0000000000
000000ffff0000000000
000000ffff0000000000
000001fffe0000000000
000001fffe0000000000
000001fffe0000000000
0000000ffc0000000000
0000000ffc0000000000
0000000ffc0000000000
0000001ff80000000000
0000001ff80000000000
0000001ff80000000000
0000003ff00000000000
0000003ff00000000000
0000003ff00000000000
0000007fe00000000000
0000007fe00000000000
0000007fe00000000000
000000ffc00000000000
000000ffc00000000000
000000ffc00000000000
000001ff800000000000
000001ff800000000000
000001ff800000000000
003ffffffff000000000
003ffffffff000000000
003ffffffff000000000
007fffffffe000000000
007fffffffe000000000
007fffffffe000000000
00000000000000000000
00000000000000000000
00000000000000000000
00000000000000000000
00000000000000000000
00000000000000000000
00000000000000000000
00000000000000000000
00000000000000000000
00000000000000000000
00000000000000000000
00000000000000000000
ENDCHAR
STARTCHAR U+00EC
ENCODING 236
SWIDTH 1000 0
DWIDTH 60 0
BBX 79 60 -9 -12
BITMAP
00000000000000000000
00000000000000000000
00000000000000000000
00000000000000000000
00000000000000000000
00000000000000000000
000003fffc0000000000
000003fffc0000000000
000003fffc0000000000
000007fff80000000000
000007fff80000000000
000007fff80000000000
00000000ffff00000000
00000000ffff00000000
00000000ffff00000000
00000001fffe00000000
00000001fffe00000000
00000001fffe00000000
000000ffff0000000000
000000ffff0000000000
000000ffff0000000000
000001fffe0000000000
000001fffe0000000000
000001fffe0000000000
0000000ffc0000000000
0000000ffc0000000000
0000000ffc0000000000
0000001ff80000000000
0000001ff80000000000
0000001ff80000000000
0000003ff00000000000
0000003ff00000000000
0000003ff00000000000
0000007fe00000000000
0000007fe00000000000
0000007fe00000000000
000000ffc00000000000
000000ffc00000000000
000000ffc00000000000
000001ff800000000000
000001ff800000000000
000001ff800000000000
003ffffffff000000000
003ffffffff000000000
003ffffffff000000000
007fffffffe000000000
007fffffffe000000000
007fffffffe000000000
00000000000000000000
00000000000000000000
00000000000000000000
00000000000000000000
00000000000000000000
00000000000000000000
00000000000000000000
00000000000000000000
00000000000000000000
00000000000000000000
00000000000000000000
00000000000000000000
ENDCHAR
STARTCHAR U+00EB
ENCODING 235
SWIDTH 1000 0
DWIDTH 60 0
BBX 79 60 -9 -12
BITMAP
00000000000000000000
00000000000000000000
00000000000000000000
00000000000000000000
00000000000000000000
00000000000000000000
000003ff0003ff000000
000003ff0003ff000000
000003ff0003ff000000
000007fe0007fe000000
000007fe0007fe000000
000007fe0007fe000000
00000000000000000000
00000000000000000000
00000000000000000000
00000000000000000000
00000000000000000000
00000000000000000000
00003ffffffff0000000
00003ffffffff0000000
00003ffffffff0000000
00007fffffffe0000000
00007fffffffe0000000
00007fffffffe0000000
003ff0000003ff000000
003ff0000003ff000000
003ff0000003ff000000
007fe0000007fe000000
007fe0000007fe000000
007fe0000007fe000000
00fffffffffffc000000
00fffffffffffc000000
00fffffffffffc000000
01fffffffffff8000000
01fffffffffff8000000
01fffffffffff8000000
03ff0000000000000000
03ff0000000000000000
03ff0000000000000000
07fe0000000000000000
07fe0000000000000000
07fe0000000000000000
003ffffffff000000000
003ffffffff000000000
003ffffffff000000000
007fffffffe000000000
007fffffffe000000000
007fffffffe000000000
00000000000000000000
00000000000000000000
00000000000000000000
00000000000000000000
00000000000000000000
00000000000000000000
00000000000000000000
00000000000000000000
00000000000000000000
00000000000000000000
00000000000000000000
00000000000000000000
ENDCHAR
STARTCHAR U+00EA
ENCODING 234
SWIDTH 1000 0
DWIDTH 60 0
BBX 79 60 -9 -12
BITMAP
00000003fffff0000000
00000003fffff0000000
00000003fffff0000000
00000007ffffe0000000
00000007ffffe0000000
00000007ffffe0000000
000003ff0003ff000000
000003ff0003ff000000
000003ff0003ff000000
000007fe0007fe000000
000007fe0007fe000000
000007fe0007fe000000
00000000000000000000
00000000000000000000
00000000000000000000
00000000000000000000
00000000000000000000
00000000000000000000
00003ffffffff0000000
00003ffffffff0000000
00003ffffffff0000000
00007fffffffe0000000
00007fffffffe0000000
00007fffffffe0000000
003ff0000003ff000000
003ff0000003ff000000
003ff0000003ff000000
007fe0000007fe000000
007fe0000007fe000000
007fe0000007fe000000
00fffffffffffc000000
00fffffffffffc000000
00fffffffffffc000000
01fffffffffff8000000
01fffffffffff8000000
01fffffffffff8000000
03ff0000000000000000
03ff0000000000000000
03ff0000000000000000
07fe0000000000000000
07fe0000000000000000
07fe0000000000000000
003ffffffff000000000
003ffffffff000000000
003ffffffff000000000
007fffffffe000000000
007fffffffe000000000
007fffffffe000000000
00000000000000000000
00000000000000000000
00000000000000000000
00000000000000000000
00000000000000000000
00000000000000000000
00000000000000000000
00000000000000000000
00000000000000000000
00000000000000000000
00000000000000000000
00000000000000000000
ENDCHAR
STARTCHAR U+00E9
ENCODING 233
SWIDTH 1000 0
DWIDTH 60 0
BBX 79 60 -9 -12
BITMAP
00000000000000000000
00000000000000000000
00000000000000000000
00000000000000000000
00000000000000000000
00000000000000000000
000000003fffc0000000
000000003fffc0000000
000000003fffc0000000
000000007fff80000000
000000007fff80000000
000000007fff80000000
00000ffff00000000000
00000ffff00000000000
00000ffff00000000000
00001fffe00000000000
00001fffe00000000000
00001fffe00000000000
00003ffffffff0000000
00003ffffffff0000000
00003ffffffff0000000
00007fffffffe0000000
00007fffffffe0000000
00007fffffffe0000000
003ff0000003ff000000
003ff0000003ff000000
003ff0000003ff000000
007fe0000007fe000000
007fe0000007fe000000
007fe0000007fe000000
00fffffffffffc000000
00fffffffffffc000000
00fffffffffffc000000
01fffffffffff8000000
01fffffffffff8000000
01fffffffffff8000000
03ff0000000000000000
03ff0000000000000000
03ff0000000000000000
07fe0000000000000000
07fe0000000000000000
07fe0000000000000000
003ffffffff000000000
003ffffffff000000000
003ffffffff000000000
007fffffffe000000000
007fffffffe000000000
007fffffffe000000000
00000000000000000000
00000000000000000000
00000000000000000000
00000000000000000000
00000000000000000000
00000000000000000000
00000000000000000000
00000000000000000000
00000000000000000000
00000000000000000000
00000000000000000000
00000000000000000000
ENDCHAR
STARTCHAR U+00E8
ENCODING 232
SWIDTH 1000 0
DWIDTH 60 0
BBX 79 60 -9 -12
BITMAP
00000000000000000000
00000000000000000000
00000000000000000000
00000000000000000000
00000000000000000000
00000000000000000000
0000000ffff000000000
0000000ffff000000000
0000000ffff000000000
0000001fffe000000000
0000001fffe000000000
0000001fffe000000000
0000000003fffc000000
0000000003fffc000000
0000000003fffc000000
0000000007fff8000000
0000000007fff8000000
0000000007fff8000000
00003ffffffff0000000
00003ffffffff0000000
00003ffffffff0000000
00007fffffffe0000000
00007fffffffe0000000
00007fffffffe0000000
003ff0000003ff000000
003ff0000003ff000000
003ff0000003ff000000
007fe0000007fe000000
007fe0000007fe000000
007fe0000007fe000000
00fffffffffffc000000
00fffffffffffc000000
00fffffffffffc000000
01fffffffffff8000000
01fffffffffff8000000
01fffffffffff8000000
03ff0000000000000000
03ff0000000000000000
03ff0000000000000000
07fe0000000000000000
07fe0000000000000000
07fe0000000000000000
003ffffffff000000000
003ffffffff000000000
003ffffffff000000000
007fffffffe000000000
007fffffffe000000000
007fffffffe000000000
00000000000000000000
00000000000000000000
00000000000000000000
00000000000000000000
00000000000000000000
00000000000000000000
00000000000000000000
00000000000000000000
00000000000000000000
00000000000000000000
00000000000000000000
00000000000000000000
ENDCHAR
STARTCHAR U+00E7
ENCODING 231
SWIDTH 1000 0
DWIDTH 60 0
BBX 79 60 -9 -12
BITMAP
00000000000000000000
00000000000000000000
00000000000000000000
00000000000000000000
00000000000000000000
00000000000000000000
00000000000000000000
00000000000000000000
00000000000000000000
00000000000000000000
00000000000000000000
00000000000000000000
00000000000000000000
00000000000000000000
00000000000000000000
00000000000000000000
00000000000000000000
00000000000000000000
00003ffffffff0000000
00003ffffffff0000000
00003ffffffff0000000
00007fffffffe0000000
00007fffffffe0000000
00007fffffffe0000000
003ff0000003ff000000
003ff0000003ff000000
003ff0000003ff000000
007fe0000007fe000000
007fe0000007fe000000
007fe0000007fe000000
00ffc000000000000000
00ffc000000000000000
00ffc000000000000000
01ff8000000000000000
01ff8000000000000000
01ff8000000000000000
03ff0000003ff0000000
03ff0000003ff0000000
03ff0000003ff0000000
07fe0000007fe0000000
07fe0000007fe0000000
07fe0000007fe0000000
003ffffffff000000000
003ffffffff000000000
003ffffffff000000000
007fffffffe000000000
007fffffffe000000000
007fffffffe000000000
0000003ff00000000000
0000003ff00000000000
0000003ff00000000000
0000007fe00000000000
0000007fe00000000000
0000007fe00000000000
000fffffc00000000000
000fffffc00000000000
000fffffc00000000000
001fffff800000000000
001fffff800000000000
001fffff800000000000
ENDCHAR
STARTCHAR U+00E6
ENCODING 230
SWIDTH 1000 0
DWIDTH 60 0
BBX 79 60 -9 -12
BITMAP
00000000000000000000
00000000000000000000
00000000000000000000
00000000000000000000
00000000000000000000
00000000000000000000
00000000000000000000
00000000000000000000
00000000000000000000
00000000000000000000
00000000000000000000
00000000000000000000
00000000000000000000
00000000000000000000
00000000000000000000
00000000000000000000
00000000000000000000
00000000000000000000
00003fffcffff0000000
00003fffcffff0000000
00003fffcffff0000000
00007fff9fffe0000000
00007fff9fffe0000000
00007fff9fffe0000000
0000000ffc03ff000000
0000000ffc03ff000000
0000000ffc03ff000000
0000001ff807fe000000
0000001ff807fe000000
0000001ff807fe000000
0003fffffffffc000000
0003fffffffffc000000
0003fffffffffc000000
0007fffffffff8000000
0007fffffffff8000000
0007fffffffff8000000
03ff00ffc00000000000
03ff00ffc00000000000
03ff00ffc00000000000
07fe01ff800000000000
07fe01ff800000000000
07fe01ff800000000000
003fffffffffc0000000
003fffffffffc0000000
003fffffffffc0000000
007fffffffff80000000
007fffffffff80000000
007fffffffff80000000
00000000000000000000
00000000000000000000
00000000000000000000
00000000000000000000
00000000000000000000
00000000000000000000
00000000000000000000
00000000000000000000
00000000000000000000
00000000000000000000
00000000000000000000
00000000000000000000
ENDCHAR
STARTCHAR U+00E5
ENCODING 229
SWIDTH 1000 0
DWIDTH 60 0
BBX 79 60 -9 -12
BITMAP
00000003fffff0000000
00000003fffff0000000
00000003fffff0000000
00000007ffffe0000000
00000007ffffe0000000
00000007ffffe0000000
000003ff0003ff000000
000003ff0003ff000000
000003ff0003ff000000
000007fe0007fe000000
000007fe0007fe000000
000007fe0007fe000000
0000003fffff00000000
0000003fffff00000000
0000003fffff00000000
0000007ffffe00000000
0000007ffffe00000000
0000007ffffe00000000
00003ffffffff0000000
00003ffffffff0000000
00003ffffffff0000000
00007fffffffe0000000
00007fffffffe0000000
00007fffffffe0000000
000000000003ff000000
000000000003ff000000
000000000003ff000000
000000000007fe000000
000000000007fe000000
000000000007fe000000
0003fffffffffc000000
0003fffffffffc000000
0003fffffffffc000000
0007fffffffff8000000
0007fffffffff8000000
0007fffffffff8000000
03ff00000ffff0000000
03ff00000ffff0000000
03ff00000ffff0000000
07fe00001fffe0000000
07fe00001fffe0000000
07fe00001fffe0000000
003ffffffcffc0000000
003ffffffcffc0000000
003ffffffcffc0000000
007ffffff9ff80000000
007ffffff9ff80000000
007ffffff9ff80000000
00000000000000000000
00000000000000000000
00000000000000000000
00000000000000000000
00000000000000000000
00000000000000000000
00000000000000000000
00000000000000000000
00000000000000000000
00000000000000000000
00000000000000000000
00000000000000000000
ENDCHAR
STARTCHAR U+00E4
ENCODING 228
SWIDTH 1000 0
DWIDTH 60 0
BBX 79 60 -9 -12
BITMAP
00000000000000000000
00000000000000000000
00000000000000000000
00000000000000000000
00000000000000000000
00000000000000000000
000003ff0003ff000000
000003ff0003ff000000
000003ff0003ff000000
000007fe0007fe000000
000007fe0007fe000000
000007fe0007fe000000
00000000000000000000
00000000000000000000
00000000000000000000
00000000000000000000
00000000000000000000
00000000000000000000
00003ffffffff0000000
00003ffffffff0000000
00003ffffffff0000000
00007fffffffe0000000
00007fffffffe0000000
00007fffffffe0000000
000000000003ff000000
000000000003ff000000
000000000003ff000000
000000000007fe000000
000000000007fe000000
000000000007fe000000
0003fffffffffc000000
0003fffffffffc000000
0003fffffffffc000000
0007fffffffff8000000
0007fffffffff8000000
0007fffffffff8000000
03ff00000ffff0000000
03ff00000ffff0000000
03ff00000ffff0000000
07fe00001fffe0000000
07fe00001fffe0000000
07fe00001fffe0000000
003ffffffcffc0000000
003ffffffcffc0000000
003ffffffcffc0000000
007ffffff9ff80000000
007ffffff9ff80000000
007ffffff9ff80000000
00000000000000000000
00000000000000000000
00000000000000000000
00000000000000000000
00000000000000000000
00000000000000000000
00000000000000000000
00000000000000000000
00000000000000000000
00000000000000000000
00000000000000000000
00000000000000000000
ENDCHAR
STARTCHAR U+00E3
ENCODING 227
SWIDTH 1000 0
DWIDTH 60 0
BBX 79 60 -9 -12
BITMAP
00000003fffc03ff0000
00000003fffc03ff0000
00000003fffc03ff0000
00000007fff807fe0000
00000007fff807fe0000
00000007fff807fe0000
000003ff00ffff000000
000003ff00ffff000000
000003ff00ffff000000
000007fe01fffe000000
000007fe01fffe000000
000007fe01fffe000000
00000000000000000000
00000000000000000000
00000000000000000000
00000000000000000000
00000000000000000000
00000000000000000000
00003ffffffff0000000
00003ffffffff0000000
00003ffffffff0000000
00007fffffffe0000000
00007fffffffe0000000
00007fffffffe0000000
000000000003ff000000
000000000003ff000000
000000000003ff000000
000000000007fe000000
000000000007fe000000
000000000007fe000000
0003fffffffffc000000
0003fffffffffc000000
0003fffffffffc000000
0007fffffffff8000000
0007fffffffff8000000
0007fffffffff8000000
03ff00000ffff0000000
03ff00000ffff0000000
03ff00000ffff0000000
07fe00001fffe0000000
07fe00001fffe0000000
07fe00001fffe0000000
003ffffffcffc0000000
003ffffffcffc0000000
003ffffffcffc0000000
007ffffff9ff80000000
007ffffff9ff80000000
007ffffff9ff80000000
00000000000000000000
00000000000000000000
00000000000000000000
00000000000000000000
00000000000000000000
00000000000000000000
00000000000000000000
00000000000000000000
00000000000000000000
00000000000000000000
00000000000000000000
00000000000000000000
ENDCHAR
STARTCHAR U+00E2
ENCODING 226
SWIDTH 1000 0
DWIDTH 60 0
BBX 79 60 -9 -12
BITMAP
00000003fffff0000000
00000003fffff0000000
00000003fffff0000000
00000007ffffe0000000
00000007ffffe0000000
00000007ffffe0000000
000003ff0003ff000000
000003ff0003ff000000
000003ff0003ff000000
000007fe0007fe000000
000007fe0007fe000000
000007fe0007fe000000
00000000000000000000
00000000000000000000
00000000000000000000
00000000000000000000
00000000000000000000
00000000000000000000
00003ffffffff0000000
00003ffffffff0000000
00003ffffffff0000000
00007fffffffe0000000
00007fffffffe0000000
00007fffffffe0000000
000000000003ff000000
000000000003ff000000
000000000003ff000000
000000000007fe000000
000000000007fe000000
000000000007fe000000
0003fffffffffc000000
0003fffffffffc000000
0003fffffffffc000000
0007fffffffff8000000
0007fffffffff8000000
0007fffffffff8000000
03ff00000ffff0000000
03ff00000ffff0000000
03ff00000ffff0000000
07fe00001fffe0000000
07fe00001fffe0000000
07fe00001fffe0000000
003ffffffcffc0000000
003ffffffcffc0000000
003ffffffcffc0000000
007ffffff9ff80000000
007ffffff9ff80000000
007ffffff9ff80000000
00000000000000000000
00000000000000000000
00000000000000000000
00000000000000000000
00000000000000000000
00000000000000000000
00000000000000000000
00000000000000000000
00000000000000000000
00000000000000000000
00000000000000000000
00000000000000000000
ENDCHAR
STARTCHAR U+00E1
ENCODING 225
SWIDTH 1000 0
DWIDTH 60 0
BBX 79 60 -9 -12
BITMAP
00000000000000000000
00000000000000000000
00000000000000000000
00000000000000000000
00000000000000000000
00000000000000000000
000000003fffc0000000
000000003fffc0000000
000000003fffc0000000
000000007fff80000000
000000007fff80000000
000000007fff80000000
00000ffff00000000000
00000ffff00000000000
00000ffff00000000000
00001fffe00000000000
00001fffe00000000000
00001fffe00000000000
00003ffffffff0000000
00003ffffffff0000000
00003ffffffff0000000
00007fffffffe0000000
00007fffffffe0000000
00007fffffffe0000000
000000000003ff000000
000000000003ff000000
000000000003ff000000
000000000007fe000000
000000000007fe000000
000000000007fe000000
0003fffffffffc000000
0003fffffffffc000000
0003fffffffffc000000
0007fffffffff8000000
0007fffffffff8000000
0007fffffffff8000000
03ff00000ffff0000000
03ff00000ffff0000000
03ff00000ffff0000000
07fe00001fffe0000000
07fe00001fffe0000000
07fe00001fffe0000000
003ffffffcffc0000000
003ffffffcffc0000000
003ffffffcffc0000000
007ffffff9ff80000000
007ffffff9ff80000000
007ffffff9ff80000000
00000000000000000000
00000000000000000000
00000000000000000000
00000000000000000000
00000000000000000000
00000000000000000000
00000000000000000000
00000000000000000000
00000000000000000000
00000000000000000000
00000000000000000000
00000000000000000000
ENDCHAR
STARTCHAR U+00E0
ENCODING 224
SWIDTH 1000 0
DWIDTH 60 0
BBX 79 60 -9 -12
BITMAP
00000000000000000000
00000000000000000000
00000000000000000000
00000000000000000000
00000000000000000000
00000000000000000000
0000000ffff000000000
0000000ffff000000000
0000000ffff000000000
0000001fffe000000000
0000001fffe000000000
0000001fffe000000000
0000000003fffc000000
0000000003fffc000000
0000000003fffc000000
0000000007fff8000000
0000000007fff8000000
0000000007fff8000000
00003ffffffff0000000
00003ffffffff0000000
00003ffffffff0000000
00007fffffffe0000000
00007fffffffe0000000
00007fffffffe0000000
000000000003ff000000
000000000003ff000000
000000000003ff000000
000000000007fe000000
000000000007fe000000
000000000007fe000000
0003fffffffffc000000
0003fffffffffc000000
0003fffffffffc000000
0007fffffffff8000000
0007fffffffff8000000
0007fffffffff8000000
03ff00000ffff0000000
03ff00000ffff0000000
03ff00000ffff0000000
07fe00001fffe0000000
07fe00001fffe0000000
07fe00001fffe0000000
003ffffffcffc0000000
003ffffffcffc0000000
003ffffffcffc0000000
007ffffff9ff80000000
007ffffff9ff80000000
007ffffff9ff80000000
00000000000000000000
00000000000000000000
00000000000000000000
00000000000000000000
00000000000000000000
00000000000000000000
00000000000000000000
00000000000000000000
00000000000000000000
00000000000000000000
00000000000000000000
00000000000000000000
ENDCHAR
STARTCHAR U+00DF
ENCODING 223
SWIDTH 1000 0
DWIDTH 60 0
BBX 79 60 -9 -12
BITMAP
00000000000000000000
00000000000000000000
00000000000000000000
00000000000000000000
00000000000000000000
00000000000000000000
0000000fffffc0000000
0000000fffffc0000000
0000000fffffc0000000
0000001fffff80000000
0000001fffff80000000
0000001fffff80000000
00000ffc000ffc000000
00000ffc000ffc000000
00000ffc000ffc000000
00001ff8001ff8000000
00001ff8001ff8000000
00001ff8001ff8000000
000ffc00003ff0000000
000ffc00003ff0000000
000ffc00003ff0000000
001ff800007fe0000000
001ff800007fe0000000
001ff800007fe0000000
003ff3fffff000000000
003ff3fffff000000000
003ff3fffff000000000
007fe7ffffe000000000
007fe7ffffe000000000
007fe7ffffe000000000
00ffc00003ff00000000
00ffc00003ff00000000
00ffc00003ff00000000
01ff800007fe00000000
01ff800007fe00000000
01ff800007fe00000000
03ff3ff0003ff0000000
03ff3ff0003ff0000000
03ff3ff0003ff0000000
07fe7fe0007fe0000000
07fe7fe0007fe0000000
07fe7fe0007fe0000000
0ffc03fffff000000000
0ffc03fffff000000000
0ffc03fffff000000000
1ff807ffffe000000000
1ff807ffffe000000000
1ff807ffffe000000000
3ff00000000000000000
3ff00000000000000000
3ff00000000000000000
7fe00000000000000000
7fe00000000000000000
7fe00000000000000000
00000000000000000000
00000000000000000000
00000000000000000000
00000000000000000000
00000000000000000000
00000000000000000000
ENDCHAR
STARTCHAR U+00DE
ENCODING 222
SWIDTH 1000 0
DWIDTH 60 0
BBX 79 60 -9 -12
BITMAP
00000000000000000000
00000000000000000000
00000000000000000000
00000000000000000000
00000000000000000000
00000000000000000000
0000ffff000000000000
0000ffff000000000000
0000ffff000000000000
0001fffe000000000000
0001fffe000000000000
0001fffe000000000000
00000ffffffffc000000
00000ffffffffc000000
00000ffffffffc000000
00001ffffffff8000000
00001ffffffff8000000
00001ffffffff8000000
00003ff00000ffc00000
00003ff00000ffc00000
00003ff00000ffc00000
00007fe00001ff800000
00007fe00001ff800000
00007fe00001ff800000
0000ffc00003ff000000
0000ffc00003ff000000
0000ffc00003ff000000
0001ff800007fe000000
0001ff800007fe000000
0001ff800007fe000000
0003ff00000ffc000000
0003ff00000ffc000000
0003ff00000ffc000000
0007fe00001ff8000000
0007fe00001ff8000000
0007fe00001ff8000000
000ffffffffc00000000
000ffffffffc00000000
000ffffffffc00000000
001ffffffff800000000
001ffffffff800000000
001ffffffff800000000
0ffff000000000000000
0ffff000000000000000
0ffff000000000000000
1fffe000000000000000
1fffe000000000000000
1fffe000000000000000
00000000000000000000
00000000000000000000
00000000000000000000
00000000000000000000
00000000000000000000
00000000000000000000
00000000000000000000
00000000000000000000
00000000000000000000
00000000000000000000
00000000000000000000
00000000000000000000
ENDCHAR
STARTCHAR U+0178
ENCODING 376
SWIDTH 1000 0
DWIDTH 60 0
BBX 79 60 -9 -12
BITMAP
000000ffc000ffc00000
000000ffc000ffc00000
000000ffc000ffc00000
000001ff8001ff800000
000001ff8001ff800000
000001ff8001ff800000
00000000000000000000
00000000000000000000
00000000000000000000
00000000000000000000
00000000000000000000
00000000000000000000
0003ff0000003ff00000
0003ff0000003ff00000
0003ff0000003ff00000
0007fe0000007fe00000
0007fe0000007fe00000
0007fe0000007fe00000
00003ff0003ff0000000
00003ff0003ff0000000
00003ff0003ff0000000
00007fe0007fe0000000
00007fe0007fe0000000
00007fe0007fe0000000
000003ff3ff000000000
000003ff3ff000000000
000003ff3ff000000000
000007fe7fe000000000
000007fe7fe000000000
000007fe7fe000000000
0000003ff00000000000
0000003ff00000000000
0000003ff00000000000
0000007fe00000000000
0000007fe00000000000
0000007fe00000000000
000000ffc00000000000
000000ffc00000000000
000000ffc00000000000
000001ff800000000000
000001ff800000000000
000001ff800000000000
000003ff000000000000
000003ff000000000000
000003ff000000000000
000007fe000000000000
000007fe000000000000
000007fe000000000000
00000000000000000000
00000000000000000000
00000000000000000000
00000000000000000000
00000000000000000000
00000000000000000000
00000000000000000000
00000000000000000000
00000000000000000000
00000000000000000000
00000000000000000000
00000000000000000000
ENDCHAR
STARTCHAR U+00DC
ENCODING 220
SWIDTH 1000 0
DWIDTH 60 0
BBX 79 60 -9 -12
BITMAP
000000ffc000ffc00000
000000ffc000ffc00000
000000ffc000ffc00000
000001ff8001ff800000
000001ff8001ff800000
000001ff8001ff800000
00000000000000000000
00000000000000000000
00000000000000000000
00000000000000000000
00000000000000000000
00000000000000000000
0003ff0000003ff00000
0003ff0000003ff00000
0003ff0000003ff00000
0007fe0000007fe00000
0007fe0000007fe00000
0007fe0000007fe00000
000ffc000000ffc00000
000ffc000000ffc00000
000ffc000000ffc00000
001ff8000001ff800000
001ff8000001ff800000
001ff8000001ff800000
003ff0000003ff000000
003ff0000003ff000000
003ff0000003ff000000
007fe0000007fe000000
007fe0000007fe000000
007fe0000007fe000000
00ffc000000ffc000000
00ffc000000ffc000000
00ffc000000ffc000000
01ff8000001ff8000000
01ff8000001ff8000000
01ff8000001ff8000000
03ff0000003ff0000000
03ff0000003ff0000000
03ff0000003ff0000000
07fe0000007fe0000000
07fe0000007fe0000000
07fe0000007fe0000000
003ffffffff000000000
003ffffffff000000000
003ffffffff000000000
007fffffffe000000000
007fffffffe000000000
007fffffffe000000000
00000000000000000000
00000000000000000000
00000000000000000000
00000000000000000000
00000000000000000000
00000000000000000000
00000000000000000000
00000000000000000000
00000000000000000000
00000000000000000000
00000000000000000000
00000000000000000000
ENDCHAR
STARTCHAR U+00DB
ENCODING 219
SWIDTH 1000 0
DWIDTH 60 0
BBX 79 60 -9 -12
BITMAP
000000000ffc00000000
000000000ffc00000000
000000000ffc00000000
000000001ff800000000
000000001ff800000000
000000001ff800000000
0000000ffcffc0000000
0000000ffcffc0000000
0000000ffcffc0000000
0000001ff9ff80000000
0000001ff9ff80000000
0000001ff9ff80000000
0003ff0000003ff00000
0003ff0000003ff00000
0003ff0000003ff00000
0007fe0000007fe00000
0007fe0000007fe00000
0007fe0000007fe00000
000ffc000000ffc00000
000ffc000000ffc00000
000ffc000000ffc00000
001ff8000001ff800000
001ff8000001ff800000
001ff8000001ff800000
003ff0000003ff000000
003ff0000003ff000000
003ff0000003ff000000
007fe0000007fe000000
007fe0000007fe000000
007fe0000007fe000000
00ffc000000ffc000000
00ffc000000ffc000000
00ffc000000ffc000000
01ff8000001ff8000000
01ff8000001ff8000000
01ff8000001ff8000000
03ff0000003ff0000000
03ff0000003ff0000000
03ff0000003ff0000000
07fe0000007fe0000000
07fe0000007fe0000000
07fe0000007fe0000000
003ffffffff000000000
003ffffffff000000000
003ffffffff000000000
007fffffffe000000000
007fffffffe000000000
007fffffffe000000000
00000000000000000000
00000000000000000000
00000000000000000000
00000000000000000000
00000000000000000000
00000000000000000000
00000000000000000000
00000000000000000000
00000000000000000000
00000000000000000000
00000000000000000000
00000000000000000000
ENDCHAR
STARTCHAR U+00DA
ENCODING 218
SWIDTH 1000 0
DWIDTH 60 0
BBX 79 60 -9 -12
BITMAP
00000000003fffc00000
00000000003fffc00000
00000000003fffc00000
00000000007fff800000
00000000007fff800000
00000000007fff800000
0000000ffff000000000
0000000ffff000000000
0000000ffff000000000
0000001fffe000000000
0000001fffe000000000
0000001fffe000000000
0003ff0000003ff00000
0003ff0000003ff00000
0003ff0000003ff00000
0007fe0000007fe00000
0007fe0000007fe00000
0007fe0000007fe00000
000ffc000000ffc00000
000ffc000000ffc00000
000ffc000000ffc00000
001ff8000001ff800000
001ff8000001ff800000
001ff8000001ff800000
003ff0000003ff000000
003ff0000003ff000000
003ff0000003ff000000
007fe0000007fe000000
007fe0000007fe000000
007fe0000007fe000000
00ffc000000ffc000000
00ffc000000ffc000000
00ffc000000ffc000000
01ff8000001ff8000000
01ff8000001ff8000000
01ff8000001ff8000000
03ff0000003ff0000000
03ff0000003ff0000000
03ff0000003ff0000000
07fe0000007fe0000000
07fe0000007fe0000000
07fe0000007fe0000000
003ffffffff000000000
003ffffffff000000000
003ffffffff000000000
007fffffffe000000000
007fffffffe000000000
007fffffffe000000000
00000000000000000000
00000000000000000000
00000000000000000000
00000000000000000000
00000000000000000000
00000000000000000000
00000000000000000000
00000000000000000000
00000000000000000000
00000000000000000000
00000000000000000000
00000000000000000000
ENDCHAR
STARTCHAR U+00D9
ENCODING 217
SWIDTH 1000 0
DWIDTH 60 0
BBX 79 60 -9 -12
BITMAP
000000ffff0000000000
000000ffff0000000000
000000ffff0000000000
000001fffe0000000000
000001fffe0000000000
000001fffe0000000000
000000003fffc0000000
000000003fffc0000000
000000003fffc0000000
000000007fff80000000
000000007fff80000000
000000007fff80000000
0003ff0000003ff00000
0003ff0000003ff00000
0003ff0000003ff00000
0007fe0000007fe00000
0007fe0000007fe00000
0007fe0000007fe00000
000ffc000000ffc00000
000ffc000000ffc00000
000ffc000000ffc00000
001ff8000001ff800000
001ff8000001ff800000
001ff8000001ff800000
003ff0000003ff000000
003ff0000003ff000000
003ff0000003ff000000
007fe0000007fe000000
007fe0000007fe000000
007fe0000007fe000000
00ffc000000ffc000000
00ffc000000ffc000000
00ffc000000ffc000000
01ff8000001ff8000000
01ff8000001ff8000000
01ff8000001ff8000000
03ff0000003ff0000000
03ff0000003ff0000000
03ff0000003ff0000000
07fe0000007fe0000000
07fe0000007fe0000000
07fe0000007fe0000000
003ffffffff000000000
003ffffffff000000000
003ffffffff000000000
007fffffffe000000000
007fffffffe000000000
007fffffffe000000000
00000000000000000000
00000000000000000000
00000000000000000000
00000000000000000000
00000000000000000000
00000000000000000000
00000000000000000000
00000000000000000000
00000000000000000000
00000000000000000000
00000000000000000000
00000000000000000000
ENDCHAR
STARTCHAR U+00D8
ENCODING 216
SWIDTH 1000 0
DWIDTH 60 0
BBX 79 60 -9 -12
BITMAP
00000000000003ff0000
00000000000003ff0000
00000000000003ff0000
00000000000007fe0000
00000000000007fe0000
00000000000007fe0000
000003ffffffff000000
000003ffffffff000000
000003ffffffff000000
000007fffffffe000000
000007fffffffe000000
000007fffffffe000000
0003ff00000ffff00000
0003ff00000ffff00000
0003ff00000ffff00000
0007fe00001fffe00000
0007fe00001fffe00000
0007fe00001fffe00000
000ffc000ffcffc00000
000ffc000ffcffc00000
000ffc000ffcffc00000
001ff8001ff9ff800000
001ff8001ff9ff800000
001ff8001ff9ff800000
003ff00ffc03ff000000
003ff00ffc03ff000000
003ff00ffc03ff000000
007fe01ff807fe000000
007fe01ff807fe000000
007fe01ff807fe000000
00ffcffc000ffc000000
00ffcffc000ffc000000
00ffcffc000ffc000000
01ff9ff8001ff8000000
01ff9ff8001ff8000000
01ff9ff8001ff8000000
03fffc00003ff0000000
03fffc00003ff0000000
03fffc00003ff0000000
07fff800007fe0000000
07fff800007fe0000000
07fff800007fe0000000
003ffffffff000000000
003ffffffff000000000
003ffffffff000000000
007fffffffe000000000
007fffffffe000000000
007fffffffe000000000
3ff00000000000000000
3ff00000000000000000
3ff00000000000000000
7fe00000000000000000
7fe00000000000000000
7fe00000000000000000
00000000000000000000
00000000000000000000
00000000000000000000
00000000000000000000
00000000000000000000
00000000000000000000
ENDCHAR
STARTCHAR U+0152
ENCODING 338
SWIDTH 1000 0
DWIDTH 60 0
BBX 79 60 -9 -12
BITMAP
00000000000000000000
00000000000000000000
00000000000000000000
00000000000000000000
00000000000000000000
00000000000000000000
000003fffcfffffc0000
000003fffcfffffc0000
000003fffcfffffc0000
000007fff9fffff80000
000007fff9fffff80000
000007fff9fffff80000
0003ff00ffc000000000
0003ff00ffc000000000
0003ff00ffc000000000
0007fe01ff8000000000
0007fe01ff8000000000
0007fe01ff8000000000
000ffc03ff0000000000
000ffc03ff0000000000
000ffc03ff0000000000
001ff807fe0000000000
001ff807fe0000000000
001ff807fe0000000000
003ff00fffffc0000000
003ff00fffffc0000000
003ff00fffffc0000000
007fe01fffff80000000
007fe01fffff80000000
007fe01fffff80000000
00ffc03ff00000000000
00ffc03ff00000000000
00ffc03ff00000000000
01ff807fe00000000000
01ff807fe00000000000
01ff807fe00000000000
03ff00ffc00000000000
03ff00ffc00000000000
03ff00ffc00000000000
07fe01ff800000000000
07fe01ff800000000000
07fe01ff800000000000
003fffcfffffc0000000
003fffcfffffc0000000
003fffcfffffc0000000
007fff9fffff80000000
007fff9fffff80000000
007fff9fffff80000000
00000000000000000000
00000000000000000000
00000000000000000000
00000000000000000000
00000000000000000000
00000000000000000000
00000000000000000000
00000000000000000000
00000000000000000000
00000000000000000000
00000000000000000000
00000000000000000000
ENDCHAR
STARTCHAR U+00D6
ENCODING 214
SWIDTH 1000 0
DWIDTH 60 0
BBX 79 60 -9 -12
BITMAP
000000ffc000ffc00000
000000ffc000ffc00000
000000ffc000ffc00000
000001ff8001ff800000
000001ff8001ff800000
000001ff8001ff800000
00000000000000000000
00000000000000000000
00000000000000000000
00000000000000000000
00000000000000000000
00000000000000000000
00000ffffffffc000000
00000ffffffffc000000
00000ffffffffc000000
00001ffffffff8000000
00001ffffffff8000000
00001ffffffff8000000
000ffc000000ffc00000
000ffc000000ffc00000
000ffc000000ffc00000
001ff8000001ff800000
001ff8000001ff800000
001ff8000001ff800000
003ff0000003ff000000
003ff0000003ff000000
003ff0000003ff000000
007fe0000007fe000000
007fe0000007fe000000
007fe0000007fe000000
00ffc000000ffc000000
00ffc000000ffc000000
00ffc000000ffc000000
01ff8000001ff8000000
01ff8000001ff8000000
01ff8000001ff8000000
03ff0000003ff0000000
03ff0000003ff0000000
03ff0000003ff0000000
07fe0000007fe0000000
07fe0000007fe0000000
07fe0000007fe0000000
003ffffffff000000000
003ffffffff000000000
003ffffffff000000000
007fffffffe000000000
007fffffffe000000000
007fffffffe000000000
00000000000000000000
00000000000000000000
00000000000000000000
00000000000000000000
00000000000000000000
00000000000000000000
00000000000000000000
00000000000000000000
00000000000000000000
00000000000000000000
00000000000000000000
00000000000000000000
ENDCHAR
STARTCHAR U+00D5
ENCODING 213
SWIDTH 1000 0
DWIDTH 60 0
BBX 79 60 -9 -12
BITMAP
000000ffff00ffc00000
000000ffff00ffc00000
000000ffff00ffc00000
000001fffe01ff800000
000001fffe01ff800000
000001fffe01ff800000
0000ffc03fffc0000000
0000ffc03fffc0000000
0000ffc03fffc0000000
0001ff807fff80000000
0001ff807fff80000000
0001ff807fff80000000
00000ffffffffc000000
00000ffffffffc000000
00000ffffffffc000000
00001ffffffff8000000
00001ffffffff8000000
00001ffffffff8000000
000ffc000000ffc00000
000ffc000000ffc00000
000ffc000000ffc00000
001ff8000001ff800000
001ff8000001ff800000
001ff8000001ff800000
003ff0000003ff000000
003ff0000003ff000000
003ff0000003ff000000
007fe0000007fe000000
007fe0000007fe000000
007fe0000007fe000000
00ffc000000ffc000000
00ffc000000ffc000000
00ffc000000ffc000000
01ff8000001ff8000000
01ff8000001ff8000000
01ff8000001ff8000000
03ff0000003ff0000000
03ff0000003ff0000000
03ff0000003ff0000000
07fe0000007fe0000000
07fe0000007fe0000000
07fe0000007fe0000000
003ffffffff000000000
003ffffffff000000000
003ffffffff000000000
007fffffffe000000000
007fffffffe000000000
007fffffffe000000000
00000000000000000000
00000000000000000000
00000000000000000000
00000000000000000000
00000000000000000000
00000000000000000000
00000000000000000000
00000000000000000000
00000000000000000000
00000000000000000000
00000000000000000000
00000000000000000000
ENDCHAR
STARTCHAR U+00D4
ENCODING 212
SWIDTH 1000 0
DWIDTH 60 0
BBX 79 60 -9 -12
BITMAP
00000003fffff0000000
00000003fffff0000000
00000003fffff0000000
00000007ffffe0000000
00000007ffffe0000000
00000007ffffe0000000
000003ff0003ff000000
000003ff0003ff000000
000003ff0003ff000000
000007fe0007fe000000
000007fe0007fe000000
000007fe0007fe000000
00000ffffffffc000000
00000ffffffffc000000
00000ffffffffc000000
00001ffffffff8000000
00001ffffffff8000000
00001ffffffff8000000
000ffc000000ffc00000
000ffc000000ffc00000
000ffc000000ffc00000
001ff8000001ff800000
001ff8000001ff800000
001ff8000001ff800000
003ff0000003ff000000
003ff0000003ff000000
003ff0000003ff000000
007fe0000007fe000000
007fe0000007fe000000
007fe0000007fe000000
00ffc000000ffc000000
00ffc000000ffc000000
00ffc000000ffc000000
01ff8000001ff8000000
01ff8000001ff8000000
01ff8000001ff8000000
03ff0000003ff0000000
03ff0000003ff0000000
03ff0000003ff0000000
07fe0000007fe0000000
07fe0000007fe0000000
07fe0000007fe0000000
003ffffffff000000000
003ffffffff000000000
003ffffffff000000000
007fffffffe000000000
007fffffffe000000000
007fffffffe000000000
00000000000000000000
00000000000000000000
00000000000000000000
00000000000000000000
00000000000000000000
00000000000000000000
00000000000000000000
00000000000000000000
00000000000000000000
00000000000000000000
00000000000000000000
00000000000000000000
ENDCHAR
STARTCHAR U+00D3
ENCODING 211
SWIDTH 1000 0
DWIDTH 60 0
BBX 79 60 -9 -12
BITMAP
000000000ffff0000000
000000000ffff0000000
000000000ffff0000000
000000001fffe0000000
000000001fffe0000000
000000001fffe0000000
000003fffc0000000000
000003fffc0000000000
000003fffc0000000000
000007fff80000000000
000007fff80000000000
000007fff80000000000
00000ffffffffc000000
00000ffffffffc000000
00000ffffffffc000000
00001ffffffff8000000
00001ffffffff8000000
00001ffffffff8000000
000ffc000000ffc00000
000ffc000000ffc00000
000ffc000000ffc00000
001ff8000001ff800000
001ff8000001ff800000
001ff8000001ff800000
003ff0000003ff000000
003ff0000003ff000000
003ff0000003ff000000
007fe0000007fe000000
007fe0000007fe000000
007fe0000007fe000000
00ffc000000ffc000000
00ffc000000ffc000000
00ffc000000ffc000000
01ff8000001ff8000000
01ff8000001ff8000000
01ff8000001ff8000000
03ff0000003ff0000000
03ff0000003ff0000000
03ff0000003ff0000000
07fe0000007fe0000000
07fe0000007fe0000000
07fe0000007fe0000000
003ffffffff000000000
003ffffffff000000000
003ffffffff000000000
007fffffffe000000000
007fffffffe000000000
007fffffffe000000000
00000000000000000000
00000000000000000000
00000000000000000000
00000000000000000000
00000000000000000000
00000000000000000000
00000000000000000000
00000000000000000000
00000000000000000000
00000000000000000000
00000000000000000000
00000000000000000000
ENDCHAR
STARTCHAR U+00D2
ENCODING 210
SWIDTH 1000 0
DWIDTH 60 0
BBX 79 60 -9 -12
BITMAP
00000003fffc00000000
00000003fffc00000000
00000003fffc00000000
00000007fff800000000
00000007fff800000000
00000007fff800000000
0000000000ffff000000
0000000000ffff000000
0000000000ffff000000
0000000001fffe000000
0000000001fffe000000
0000000001fffe000000
00000ffffffffc000000
00000ffffffffc000000
00000ffffffffc000000
00001ffffffff8000000
00001ffffffff8000000
00001ffffffff8000000
000ffc000000ffc00000
000ffc000000ffc00000
000ffc000000ffc00000
001ff8000001ff800000
001ff8000001ff800000
001ff8000001ff800000
003ff0000003ff000000
003ff0000003ff000000
003ff0000003ff000000
007fe0000007fe000000
007fe0000007fe000000
007fe0000007fe000000
00ffc000000ffc000000
00ffc000000ffc000000
00ffc000000ffc000000
01ff8000001ff8000000
01ff8000001ff8000000
01ff8000001ff8000000
03ff0000003ff0000000
03ff0000003ff0000000
03ff0000003ff0000000
07fe0000007fe0000000
07fe0000007fe0000000
07fe0000007fe0000000
003ffffffff000000000
003ffffffff000000000
003ffffffff000000000
007fffffffe000000000
007fffffffe000000000
007fffffffe000000000
00000000000000000000
00000000000000000000
00000000000000000000
00000000000000000000
00000000000000000000
00000000000000000000
00000000000000000000
00000000000000000000
00000000000000000000
00000000000000000000
00000000000000000000
00000000000000000000
ENDCHAR
STARTCHAR U+00D1
ENCODING 209
SWIDTH 1000 0
DWIDTH 60 0
BBX 79 60 -9 -12
BITMAP
00000003fffc03ff0000
00000003fffc03ff0000
00000003fffc03ff0000
00000007fff807fe0000
00000007fff807fe0000
00000007fff807fe0000
000003ff00ffff000000
000003ff00ffff000000
000003ff00ffff000000
000007fe01fffe000000
000007fe01fffe000000
000007fe01fffe000000
0003fffc00003ff00000
0003fffc00003ff00000
0003fffc00003ff00000
0007fff800007fe00000
0007fff800007fe00000
0007fff800007fe00000
000ffcffc000ffc00000
000ffcffc000ffc00000
000ffcffc000ffc00000
001ff9ff8001ff800000
001ff9ff8001ff800000
001ff9ff8001ff800000
003ff00ffc03ff000000
003ff00ffc03ff000000
003ff00ffc03ff000000
007fe01ff807fe000000
007fe01ff807fe000000
007fe01ff807fe000000
00ffc000ffcffc000000
00ffc000ffcffc000000
00ffc000ffcffc000000
01ff8001ff9ff8000000
01ff8001ff9ff8000000
01ff8001ff9ff8000000
03ff00000ffff0000000
03ff00000ffff0000000
03ff00000ffff0000000
07fe00001fffe0000000
07fe00001fffe0000000
07fe00001fffe0000000
0ffc000000ffc0000000
0ffc000000ffc0000000
0ffc000000ffc0000000
1ff8000001ff80000000
1ff8000001ff80000000
1ff8000001ff80000000
00000000000000000000
00000000000000000000
00000000000000000000
00000000000000000000
00000000000000000000
00000000000000000000
00000000000000000000
00000000000000000000
00000000000000000000
00000000000000000000
00000000000000000000
00000000000000000000
ENDCHAR
STARTCHAR U+00D0
ENCODING 208
SWIDTH 1000 0
DWIDTH 60 0
BBX 79 60 -9 -12
BITMAP
00000000000000000000
00000000000000000000
00000000000000000000
00000000000000000000
00000000000000000000
00000000000000000000
0000ffffffffc0000000
0000ffffffffc0000000
0000ffffffffc0000000
0001ffffffff80000000
0001ffffffff80000000
0001ffffffff80000000
00000ffc000ffc000000
00000ffc000ffc000000
00000ffc000ffc000000
00001ff8001ff8000000
00001ff8001ff8000000
00001ff8001ff8000000
00003ff00000ffc00000
00003ff00000ffc00000
00003ff00000ffc00000
00007fe00001ff800000
00007fe00001ff800000
00007fe00001ff800000
003ffffffc03ff000000
003ffffffc03ff000000
003ffffffc03ff000000
007ffffff807fe000000
007ffffff807fe000000
007ffffff807fe000000
0003ff00000ffc000000
0003ff00000ffc000000
0003ff00000ffc000000
0007fe00001ff8000000
0007fe00001ff8000000
0007fe00001ff8000000
000ffc000ffc00000000
000ffc000ffc00000000
000ffc000ffc00000000
001ff8001ff800000000
001ff8001ff800000000
001ff8001ff800000000
0ffffffffc0000000000
0ffffffffc0000000000
0ffffffffc0000000000
1ffffffff80000000000
1ffffffff80000000000
1ffffffff80000000000
00000000000000000000
00000000000000000000
00000000000000000000
00000000000000000000
00000000000000000000
00000000000000000000
00000000000000000000
00000000000000000000
00000000000000000000
00000000000000000000
00000000000000000000
00000000000000000000
ENDCHAR
STARTCHAR U+00CF
ENCODING 207
SWIDTH 1000 0
DWIDTH 60 0
BBX 79 60 -9 -12
BITMAP
000000ffc000ffc00000
000000ffc000ffc00000
000000ffc000ffc00000
000001ff8001ff800000
000001ff8001ff800000
000001ff8001ff800000
00000000000000000000
00000000000000000000
00000000000000000000
00000000000000000000
00000000000000000000
00000000000000000000
00000ffffffffc000000
00000ffffffffc000000
00000ffffffffc000000
00001ffffffff8000000
00001ffffffff8000000
00001ffffffff8000000
00000003ff0000000000
00000003ff0000000000
00000003ff0000000000
00000007fe0000000000
00000007fe0000000000
00000007fe0000000000
0000000ffc0000000000
0000000ffc0000000000
0000000ffc0000000000
0000001ff80000000000
0000001ff80000000000
0000001ff80000000000
0000003ff00000000000
0000003ff00000000000
0000003ff00000000000
0000007fe00000000000
0000007fe00000000000
0000007fe00000000000
000000ffc00000000000
000000ffc00000000000
000000ffc00000000000
000001ff800000000000
000001ff800000000000
000001ff800000000000
003ffffffff000000000
003ffffffff000000000
003ffffffff000000000
007fffffffe000000000
007fffffffe000000000
007fffffffe000000000
00000000000000000000
00000000000000000000
00000000000000000000
00000000000000000000
00000000000000000000
00000000000000000000
00000000000000000000
00000000000000000000
00000000000000000000
00000000000000000000
00000000000000000000
00000000000000000000
ENDCHAR
STARTCHAR U+00CE
ENCODING 206
SWIDTH 1000 0
DWIDTH 60 0
BBX 79 60 -9 -12
BITMAP
00000003fffff0000000
00000003fffff0000000
00000003fffff0000000
00000007ffffe0000000
00000007ffffe0000000
00000007ffffe0000000
000003ff0003ff000000
000003ff0003ff000000
000003ff0003ff000000
000007fe0007fe000000
000007fe0007fe000000
000007fe0007fe000000
00000ffffffffc000000
00000ffffffffc000000
00000ffffffffc000000
00001ffffffff8000000
00001ffffffff8000000
00001ffffffff8000000
00000003ff0000000000
00000003ff0000000000
00000003ff0000000000
00000007fe0000000000
00000007fe0000000000
00000007fe0000000000
0000000ffc0000000000
0000000ffc0000000000
0000000ffc0000000000
0000001ff80000000000
0000001ff80000000000
0000001ff80000000000
0000003ff00000000000
0000003ff00000000000
0000003ff00000000000
0000007fe00000000000
0000007fe00000000000
0000007fe00000000000
000000ffc00000000000
000000ffc00000000000
000000ffc00000000000
000001ff800000000000
000001ff800000000000
000001ff800000000000
003ffffffff000000000
003ffffffff000000000
003ffffffff000000000
007fffffffe000000000
007fffffffe000000000
007fffffffe000000000
00000000000000000000
00000000000000000000
00000000000000000000
00000000000000000000
00000000000000000000
00000000000000000000
00000000000000000000
00000000000000000000
00000000000000000000
00000000000000000000
00000000000000000000
00000000000000000000
ENDCHAR
STARTCHAR U+00CD
ENCODING 205
SWIDTH 1000 0
DWIDTH 60 0
BBX 79 60 -9 -12
BITMAP
000000000ffff0000000
000000000ffff0000000
000000000ffff0000000
000000001fffe0000000
000000001fffe0000000
000000001fffe0000000
000003fffc0000000000
000003fffc0000000000
000003fffc0000000000
000007fff80000000000
000007fff80000000000
000007fff80000000000
00000ffffffffc000000
00000ffffffffc000000
00000ffffffffc000000
00001ffffffff8000000
00001ffffffff8000000
00001ffffffff8000000
00000003ff0000000000
00000003ff0000000000
00000003ff0000000000
00000007fe0000000000
00000007fe0000000000
00000007fe0000000000
0000000ffc0000000000
0000000ffc0000000000
0000000ffc0000000000
0000001ff80000000000
0000001ff80000000000
0000001ff80000000000
0000003ff00000000000
0000003ff00000000000
0000003ff00000000000
0000007fe00000000000
0000007fe00000000000
0000007fe00000000000
000000ffc00000000000
000000ffc00000000000
000000ffc00000000000
000001ff800000000000
000001ff800000000000
000001ff800000000000
003ffffffff000000000
003ffffffff000000000
003ffffffff000000000
007fffffffe000000000
007fffffffe000000000
007fffffffe000000000
00000000000000000000
00000000000000000000
00000000000000000000
00000000000000000000
00000000000000000000
00000000000000000000
00000000000000000000
00000000000000000000
00000000000000000000
00000000000000000000
00000000000000000000
00000000000000000000
ENDCHAR
STARTCHAR U+00CC
ENCODING 204
SWIDTH 1000 0
DWIDTH 60 0
BBX 79 60 -9 -12
BITMAP
00000003fffc00000000
00000003fffc00000000
00000003fffc00000000
00000007fff800000000
00000007fff800000000
00000007fff800000000
0000000000ffff000000
0000000000ffff000000
0000000000ffff000000
0000000001fffe000000
0000000001fffe000000
0000000001fffe000000
00000ffffffffc000000
00000ffffffffc000000
00000ffffffffc000000
00001ffffffff8000000
00001ffffffff8000000
00001ffffffff8000000
00000003ff0000000000
00000003ff0000000000
00000003ff0000000000
00000007fe0000000000
00000007fe0000000000
00000007fe0000000000
0000000ffc0000000000
0000000ffc0000000000
0000000ffc0000000000
0000001ff80000000000
0000001ff80000000000
0000001ff80000000000
0000003ff00000000000
0000003ff00000000000
0000003ff00000000000
0000007fe00000000000
0000007fe00000000000
0000007fe00000000000
000000ffc00000000000
000000ffc00000000000
000000ffc00000000000
000001ff800000000000
000001ff800000000000
000001ff800000000000
003ffffffff000000000
003ffffffff000000000
003ffffffff000000000
007fffffffe000000000
007fffffffe000000000
007fffffffe000000000
00000000000000000000
00000000000000000000
00000000000000000000
00000000000000000000
00000000000000000000
00000000000000000000
00000000000000000000
00000000000000000000
00000000000000000000
00000000000000000000
00000000000000000000
00000000000000000000
ENDCHAR
STARTCHAR U+00CB
ENCODING 203
SWIDTH 1000 0
DWIDTH 60 0
BBX 79 60 -9 -12
BITMAP
000000ffc000ffc00000
000000ffc000ffc00000
000000ffc000ffc00000
000001ff8001ff800000
000001ff8001ff800000
000001ff8001ff800000
00000000000000000000
00000000000000000000
00000000000000000000
00000000000000000000
00000000000000000000
00000000000000000000
0003fffffffffff00000
0003fffffffffff00000
0003fffffffffff00000
0007ffffffffffe00000
0007ffffffffffe00000
0007ffffffffffe00000
000ffc00000000000000
000ffc00000000000000
000ffc00000000000000
001ff800000000000000
001ff800000000000000
001ff800000000000000
003ffffffff000000000
003ffffffff000000000
003ffffffff000000000
007fffffffe000000000
007fffffffe000000000
007fffffffe000000000
00ffc000000000000000
00ffc000000000000000
00ffc000000000000000
01ff8000000000000000
01ff8000000000000000
01ff8000000000000000
03ff0000000000000000
03ff0000000000000000
03ff0000000000000000
07fe0000000000000000
07fe0000000000000000
07fe0000000000000000
0fffffffffffc0000000
0fffffffffffc0000000
0fffffffffffc0000000
1fffffffffff80000000
1fffffffffff80000000
1fffffffffff80000000
00000000000000000000
00000000000000000000
00000000000000000000
00000000000000000000
00000000000000000000
00000000000000000000
00000000000000000000
00000000000000000000
00000000000000000000
00000000000000000000
00000000000000000000
00000000000000000000
ENDCHAR
STARTCHAR U+00CA
ENCODING 202
SWIDTH 1000 0
DWIDTH 60 0
BBX 79 60 -9 -12
BITMAP
00000003fffff0000000
00000003fffff0000000
00000003fffff0000000
00000007ffffe0000000
00000007ffffe0000000
00000007ffffe0000000
000003ff0003ff000000
000003ff0003ff000000
000003ff0003ff000000
000007fe0007fe000000
000007fe0007fe000000
000007fe0007fe000000
0003fffffffffff00000
0003fffffffffff00000
0003fffffffffff00000
0007ffffffffffe00000
0007ffffffffffe00000
0007ffffffffffe00000
000ffc00000000000000
000ffc00000000000000
000ffc00000000000000
001ff800000000000000
001ff800000000000000
001ff800000000000000
003ffffffc0000000000
003ffffffc0000000000
003ffffffc0000000000
007ffffff80000000000
007ffffff80000000000
007ffffff80000000000
00ffc000000000000000
00ffc000000000000000
00ffc000000000000000
01ff8000000000000000
01ff8000000000000000
01ff8000000000000000
03ff0000000000000000
03ff0000000000000000
03ff0000000000000000
07fe0000000000000000
07fe0000000000000000
07fe0000000000000000
0fffffffffffc0000000
0fffffffffffc0000000
0fffffffffffc0000000
1fffffffffff80000000
1fffffffffff80000000
1fffffffffff80000000
00000000000000000000
00000000000000000000
00000000000000000000
00000000000000000000
00000000000000000000
00000000000000000000
00000000000000000000
00000000000000000000
00000000000000000000
00000000000000000000
00000000000000000000
00000000000000000000
ENDCHAR
STARTCHAR U+00C9
ENCODING 201
SWIDTH 1000 0
DWIDTH 60 0
BBX 79 60 -9 -12
BITMAP
00000000003fffc00000
00000000003fffc00000
00000000003fffc00000
00000000007fff800000
00000000007fff800000
00000000007fff800000
0000000ffff000000000
0000000ffff000000000
0000000ffff000000000
0000001fffe000000000
0000001fffe000000000
0000001fffe000000000
0003fffffffffff00000
0003fffffffffff00000
0003fffffffffff00000
0007ffffffffffe00000
0007ffffffffffe00000
0007ffffffffffe00000
000ffc00000000000000
000ffc00000000000000
000ffc00000000000000
001ff800000000000000
001ff800000000000000
001ff800000000000000
003ffffffff000000000
003ffffffff000000000
003ffffffff000000000
007fffffffe000000000
007fffffffe000000000
007fffffffe000000000
00ffc000000000000000
00ffc000000000000000
00ffc000000000000000
01ff8000000000000000
01ff8000000000000000
01ff8000000000000000
03ff0000000000000000
03ff0000000000000000
03ff0000000000000000
07fe0000000000000000
07fe0000000000000000
07fe0000000000000000
0fffffffffffc0000000
0fffffffffffc0000000
0fffffffffffc0000000
1fffffffffff80000000
1fffffffffff80000000
1fffffffffff80000000
00000000000000000000
00000000000000000000
00000000000000000000
00000000000000000000
00000000000000000000
00000000000000000000
00000000000000000000
00000000000000000000
00000000000000000000
00000000000000000000
00000000000000000000
00000000000000000000
ENDCHAR
STARTCHAR U+00C8
ENCODING 200
SWIDTH 1000 0
DWIDTH 60 0
BBX 79 60 -9 -12
BITMAP
000000ffff0000000000
000000ffff0000000000
000000ffff0000000000
000001fffe0000000000
000001fffe0000000000
000001fffe0000000000
000000003fffc0000000
000000003fffc0000000
000000003fffc0000000
000000007fff80000000
000000007fff80000000
000000007fff80000000
0003fffffffffff00000
0003fffffffffff00000
0003fffffffffff00000
0007ffffffffffe00000
0007ffffffffffe00000
0007ffffffffffe00000
000ffc00000000000000
000ffc00000000000000
000ffc00000000000000
001ff800000000000000
001ff800000000000000
001ff800000000000000
003ffffffff000000000
003ffffffff000000000
003ffffffff000000000
007fffffffe000000000
007fffffffe000000000
007fffffffe000000000
00ffc000000000000000
00ffc000000000000000
00ffc000000000000000
01ff8000000000000000
01ff8000000000000000
01ff8000000000000000
03ff0000000000000000
03ff0000000000000000
03ff0000000000000000
07fe0000000000000000
07fe0000000000000000
07fe0000000000000000
0fffffffffffc0000000
0fffffffffffc0000000
0fffffffffffc0000000
1fffffffffff80000000
1fffffffffff80000000
1fffffffffff80000000
00000000000000000000
00000000000000000000
00000000000000000000
00000000000000000000
00000000000000000000
00000000000000000000
00000000000000000000
00000000000000000000
00000000000000000000
00000000000000000000
00000000000000000000
00000000000000000000
ENDCHAR
STARTCHAR U+00C7
ENCODING 199
SWIDTH 1000 0
DWIDTH 60 0
BBX 79 60 -9 -12
BITMAP
00000000000000000000
00000000000000000000
00000000000000000000
00000000000000000000
00000000000000000000
00000000000000000000
0000000fffffff000000
0000000fffffff000000
0000000fffffff000000
0000001ffffffe000000
0000001ffffffe000000
0000001ffffffe000000
00000ffc00003ff00000
00000ffc00003ff00000
00000ffc00003ff00000
00001ff800007fe00000
00001ff800007fe00000
00001ff800007fe00000
000ffc00000000000000
000ffc00000000000000
000ffc00000000000000
001ff800000000000000
001ff800000000000000
001ff800000000000000
003ff000000000000000
003ff000000000000000
003ff000000000000000
007fe000000000000000
007fe000000000000000
007fe000000000000000
00ffc000000000000000
00ffc000000000000000
00ffc000000000000000
01ff8000000000000000
01ff8000000000000000
01ff8000000000000000
000ffc00003ff0000000
000ffc00003ff0000000
000ffc00003ff0000000
001ff800007fe0000000
001ff800007fe0000000
001ff800007fe0000000
0000fffffff000000000
0000fffffff000000000
0000fffffff000000000
0001ffffffe000000000
0001ffffffe000000000
0001ffffffe000000000
0000003ff00000000000
0000003ff00000000000
0000003ff00000000000
0000007fe00000000000
0000007fe00000000000
0000007fe00000000000
000fffffc00000000000
000fffffc00000000000
000fffffc00000000000
001fffff800000000000
001fffff800000000000
001fffff800000000000
ENDCHAR
STARTCHAR U+00C6
ENCODING 198
SWIDTH 1000 0
DWIDTH 60 0
BBX 79 60 -9 -12
BITMAP
00000000000000000000
00000000000000000000
00000000000000000000
00000000000000000000
00000000000000000000
00000000000000000000
0000000ffffffffc0000
0000000ffffffffc0000
0000000ffffffffc0000
0000001ffffffff80000
0000001ffffffff80000
0000001ffffffff80000
00000ffcffc000000000
00000ffcffc000000000
00000ffcffc000000000
00001ff9ff8000000000
00001ff9ff8000000000
00001ff9ff8000000000
000ffc03ff0000000000
000ffc03ff0000000000
000ffc03ff0000000000
001ff807fe0000000000
001ff807fe0000000000
001ff807fe0000000000
003ff00fffffc0000000
003ff00fffffc0000000
003ff00fffffc0000000
007fe01fffff80000000
007fe01fffff80000000
007fe01fffff80000000
00fffffff00000000000
00fffffff00000000000
00fffffff00000000000
01ffffffe00000000000
01ffffffe00000000000
01ffffffe00000000000
03ff00ffc00000000000
03ff00ffc00000000000
03ff00ffc00000000000
07fe01ff800000000000
07fe01ff800000000000
07fe01ff800000000000
0ffc03ffffffc0000000
0ffc03ffffffc0000000
0ffc03ffffffc0000000
1ff807ffffff80000000
1ff807ffffff80000000
1ff807ffffff80000000
00000000000000000000
00000000000000000000
00000000000000000000
00000000000000000000
00000000000000000000
00000000000000000000
00000000000000000000
00000000000000000000
00000000000000000000
00000000000000000000
00000000000000000000
00000000000000000000
ENDCHAR
STARTCHAR U+00C5
ENCODING 197
SWIDTH 1000 0
DWIDTH 60 0
BBX 79 60 -9 -12
BITMAP
00000003fffff0000000
00000003fffff0000000
00000003fffff0000000
00000007ffffe0000000
00000007ffffe0000000
00000007ffffe0000000
000003ff0003ff000000
000003ff0003ff000000
000003ff0003ff000000
000007fe0007fe000000
000007fe0007fe000000
000007fe0007fe000000
0000003fffff00000000
0000003fffff00000000
0000003fffff00000000
0000007ffffe00000000
0000007ffffe00000000
0000007ffffe00000000
000000fffffc00000000
000000fffffc00000000
000000fffffc00000000
000001fffff800000000
000001fffff800000000
000001fffff800000000
0000ffc000ffc0000000
0000ffc000ffc0000000
0000ffc000ffc0000000
0001ff8001ff80000000
0001ff8001ff80000000
0001ff8001ff80000000
00fffffffffffc000000
00fffffffffffc000000
00fffffffffffc000000
01fffffffffff8000000
01fffffffffff8000000
01fffffffffff8000000
03ff0000003ff0000000
03ff0000003ff0000000
03ff0000003ff0000000
07fe0000007fe0000000
07fe0000007fe0000000
07fe0000007fe0000000
0ffc000000ffc0000000
0ffc000000ffc0000000
0ffc000000ffc0000000
1ff8000001ff80000000
1ff8000001ff80000000
1ff8000001ff80000000
00000000000000000000
00000000000000000000
00000000000000000000
00000000000000000000
00000000000000000000
00000000000000000000
00000000000000000000
00000000000000000000
00000000000000000000
00000000000000000000
00000000000000000000
00000000000000000000
ENDCHAR
STARTCHAR U+00C4
ENCODING 196
SWIDTH 1000 0
DWIDTH 60 0
BBX 79 60 -9 -12
BITMAP
000000ffc000ffc00000
000000ffc000ffc00000
000000ffc000ffc00000
000001ff8001ff800000
000001ff8001ff800000
000001ff8001ff800000
00000000000000000000
00000000000000000000
00000000000000000000
00000000000000000000
00000000000000000000
00000000000000000000
00000000ffc000000000
00000000ffc000000000
00000000ffc000000000
00000001ff8000000000
00000001ff8000000000
00000001ff8000000000
000000ffcffc00000000
000000ffcffc00000000
000000ffcffc00000000
000001ff9ff800000000
000001ff9ff800000000
000001ff9ff800000000
0000ffc000ffc0000000
0000ffc000ffc0000000
0000ffc000ffc0000000
0001ff8001ff80000000
0001ff8001ff80000000
0001ff8001ff80000000
00fffffffffffc000000
00fffffffffffc000000
00fffffffffffc000000
01fffffffffff8000000
01fffffffffff8000000
01fffffffffff8000000
03ff0000003ff0000000
03ff0000003ff0000000
03ff0000003ff0000000
07fe0000007fe0000000
07fe0000007fe0000000
07fe0000007fe0000000
0ffc000000ffc0000000
0ffc000000ffc0000000
0ffc000000ffc0000000
1ff8000001ff80000000
1ff8000001ff80000000
1ff8000001ff80000000
00000000000000000000
00000000000000000000
00000000000000000000
00000000000000000000
00000000000000000000
00000000000000000000
00000000000000000000
00000000000000000000
00000000000000000000
00000000000000000000
00000000000000000000
00000000000000000000
ENDCHAR
STARTCHAR U+00C3
ENCODING 195
SWIDTH 1000 0
DWIDTH 60 0
BBX 79 60 -9 -12
BITMAP
00000003fffc03ff0000
00000003fffc03ff0000
00000003fffc03ff0000
00000007fff807fe0000
00000007fff807fe0000
00000007fff807fe0000
000003ff00ffff000000
000003ff00ffff000000
000003ff00ffff000000
000007fe01fffe000000
000007fe01fffe000000
000007fe01fffe000000
00000000ffc000000000
00000000ffc000000000
00000000ffc000000000
00000001ff8000000000
00000001ff8000000000
00000001ff8000000000
000000ffcffc00000000
000000ffcffc00000000
000000ffcffc00000000
000001ff9ff800000000
000001ff9ff800000000
000001ff9ff800000000
0000ffc000ffc0000000
0000ffc000ffc0000000
0000ffc000ffc0000000
0001ff8001ff80000000
0001ff8001ff80000000
0001ff8001ff80000000
00fffffffffffc000000
00fffffffffffc000000
00fffffffffffc000000
01fffffffffff8000000
01fffffffffff8000000
01fffffffffff8000000
03ff0000003ff0000000
03ff0000003ff0000000
03ff0000003ff0000000
07fe0000007fe0000000
07fe0000007fe0000000
07fe0000007fe0000000
0ffc000000ffc0000000
0ffc000000ffc0000000
0ffc000000ffc0000000
1ff8000001ff80000000
1ff8000001ff80000000
1ff8000001ff80000000
00000000000000000000
00000000000000000000
00000000000000000000
00000000000000000000
00000000000000000000
00000000000000000000
00000000000000000000
00000000000000000000
00000000000000000000
00000000000000000000
00000000000000000000
00000000000000000000
ENDCHAR
STARTCHAR U+00C2
ENCODING 194
SWIDTH 1000 0
DWIDTH 60 0
BBX 79 60 -9 -12
BITMAP
00000003fffff0000000
00000003fffff0000000
00000003fffff0000000
00000007ffffe0000000
00000007ffffe0000000
00000007ffffe0000000
000003ff0003ff000000
000003ff0003ff000000
000003ff0003ff000000
000007fe0007fe000000
000007fe0007fe000000
000007fe0007fe000000
00000000ffc000000000
00000000ffc000000000
00000000ffc000000000
00000001ff8000000000
00000001ff8000000000
00000001ff8000000000
000000ffcffc00000000
000000ffcffc00000000
000000ffcffc00000000
000001ff9ff800000000
000001ff9ff800000000
000001ff9ff800000000
0000ffc000ffc0000000
0000ffc000ffc0000000
0000ffc000ffc0000000
0001ff8001ff80000000
0001ff8001ff80000000
0001ff8001ff80000000
00fffffffffffc000000
00fffffffffffc000000
00fffffffffffc000000
01fffffffffff8000000
01fffffffffff8000000
01fffffffffff8000000
03ff0000003ff0000000
03ff0000003ff0000000
03ff0000003ff0000000
07fe0000007fe0000000
07fe0000007fe0000000
07fe0000007fe0000000
0ffc000000ffc0000000
0ffc000000ffc0000000
0ffc000000ffc0000000
1ff8000001ff80000000
1ff8000001ff80000000
1ff8000001ff80000000
00000000000000000000
00000000000000000000
00000000000000000000
00000000000000000000
00000000000000000000
00000000000000000000
00000000000000000000
00000000000000000000
00000000000000000000
00000000000000000000
00000000000000000000
00000000000000000000
ENDCHAR
STARTCHAR U+00C1
ENCODING 193
SWIDTH 1000 0
DWIDTH 60 0
BBX 79 60 -9 -12
BITMAP
000000000ffff0000000
000000000ffff0000000
000000000ffff0000000
000000001fffe0000000
000000001fffe0000000
000000001fffe0000000
000003fffc0000000000
000003fffc0000000000
000003fffc0000000000
000007fff80000000000
000007fff80000000000
000007fff80000000000
00000000ffc000000000
00000000ffc000000000
00000000ffc000000000
00000001ff8000000000
00000001ff8000000000
00000001ff8000000000
000000ffcffc00000000
000000ffcffc00000000
000000ffcffc00000000
000001ff9ff800000000
000001ff9ff800000000
000001ff9ff800000000
0000ffc000ffc0000000
0000ffc000ffc0000000
0000ffc000ffc0000000
0001ff8001ff80000000
0001ff8001ff80000000
0001ff8001ff80000000
00fffffffffffc000000
00fffffffffffc000000
00fffffffffffc000000
01fffffffffff8000000
01fffffffffff8000000
01fffffffffff8000000
03ff0000003ff0000000
03ff0000003ff0000000
03ff0000003ff0000000
07fe0000007fe0000000
07fe0000007fe0000000
07fe0000007fe0000000
0ffc000000ffc0000000
0ffc000000ffc0000000
0ffc000000ffc0000000
1ff8000001ff80000000
1ff8000001ff80000000
1ff8000001ff80000000
00000000000000000000
00000000000000000000
00000000000000000000
00000000000000000000
00000000000000000000
00000000000000000000
00000000000000000000
00000000000000000000
00000000000000000000
00000000000000000000
00000000000000000000
00000000000000000000
ENDCHAR
STARTCHAR U+00C0
ENCODING 192
SWIDTH 1000 0
DWIDTH 60 0
BBX 79 60 -9 -12
BITMAP
00000003fffc00000000
00000003fffc00000000
00000003fffc00000000
00000007fff800000000
00000007fff800000000
00000007fff800000000
0000000000ffff000000
0000000000ffff000000
0000000000ffff000000
0000000001fffe000000
0000000001fffe000000
0000000001fffe000000
00000000ffc000000000
00000000ffc000000000
00000000ffc000000000
00000001ff8000000000
00000001ff8000000000
00000001ff8000000000
000000ffcffc00000000
000000ffcffc00000000
000000ffcffc00000000
000001ff9ff800000000
000001ff9ff800000000
000001ff9ff800000000
0000ffc000ffc0000000
0000ffc000ffc0000000
0000ffc000ffc0000000
0001ff8001ff80000000
0001ff8001ff80000000
0001ff8001ff80000000
00fffffffffffc000000
00fffffffffffc000000
00fffffffffffc000000
01fffffffffff8000000
01fffffffffff8000000
01fffffffffff8000000
03ff0000003ff0000000
03ff0000003ff0000000
03ff0000003ff0000000
07fe0000007fe0000000
07fe0000007fe0000000
07fe0000007fe0000000
0ffc000000ffc0000000
0ffc000000ffc0000000
0ffc000000ffc0000000
1ff8000001ff80000000
1ff8000001ff80000000
1ff8000001ff80000000
00000000000000000000
00000000000000000000
00000000000000000000
00000000000000000000
00000000000000000000
00000000000000000000
00000000000000000000
00000000000000000000
00000000000000000000
00000000000000000000
00000000000000000000
00000000000000000000
ENDCHAR
STARTCHAR U+00BF
ENCODING 191
SWIDTH 1000 0
DWIDTH 60 0
BBX 79 60 -9 -12
BITMAP
00000000000000000000
00000000000000000000
00000000000000000000
00000000000000000000
00000000000000000000
00000000000000000000
000000003ff000000000
000000003ff000000000
000000003ff000000000
000000007fe000000000
000000007fe000000000
000000007fe000000000
00000000000000000000
00000000000000000000
00000000000000000000
00000000000000000000
00000000000000000000
00000000000000000000
00000003ff0000000000
00000003ff0000000000
00000003ff0000000000
00000007fe0000000000
00000007fe0000000000
00000007fe0000000000
0000000ffc0000000000
0000000ffc0000000000
0000000ffc0000000000
0000001ff80000000000
0000001ff80000000000
0000001ff80000000000
0003fffc000000000000
0003fffc000000000000
0003fffc000000000000
0007fff8000000000000
0007fff8000000000000
0007fff8000000000000
03ff0000003ff0000000
03ff0000003ff0000000
03ff0000003ff0000000
07fe0000007fe0000000
07fe0000007fe0000000
07fe0000007fe0000000
003ffffffff000000000
003ffffffff000000000
003ffffffff000000000
007fffffffe000000000
007fffffffe000000000
007fffffffe000000000
00000000000000000000
00000000000000000000
00000000000000000000
00000000000000000000
00000000000000000000
00000000000000000000
00000000000000000000
00000000000000000000
00000000000000000000
00000000000000000000
00000000000000000000
00000000000000000000
ENDCHAR
STARTCHAR U+00BE
ENCODING 190
SWIDTH 1000 0
DWIDTH 60 0
BBX 79 60 -9 -12
BITMAP
00003ffffffc00000000
00003ffffffc00000000
00003ffffffc00000000
00007ffffff800000000
00007ffffff800000000
00007ffffff800000000
000000003ff000000000
000000003ff000000000
000000003ff000000000
000000007fe000000000
000000007fe000000000
000000007fe000000000
00000ffff00ffc000000
00000ffff00ffc000000
00000ffff00ffc000000
00001fffe01ff8000000
00001fffe01ff8000000
00001fffe01ff8000000
00000003fffc00000000
00000003fffc00000000
00000003fffc00000000
00000007fff800000000
00000007fff800000000
00000007fff800000000
003ffffffc0000000000
003ffffffc0000000000
003ffffffc0000000000
007ffffff80000000000
007ffffff80000000000
007ffffff80000000000
00000ffc03ff00000000
00000ffc03ff00000000
00000ffc03ff00000000
00001ff807fe00000000
00001ff807fe00000000
00001ff807fe00000000
000ffc03fffc00000000
000ffc03fffc00000000
000ffc03fffc00000000
001ff807fff800000000
001ff807fff800000000
001ff807fff800000000
0ffc03ff3ff000000000
0ffc03ff3ff000000000
0ffc03ff3ff000000000
1ff807fe7fe000000000
1ff807fe7fe000000000
1ff807fe7fe000000000
0003ffffffff00000000
0003ffffffff00000000
0003ffffffff00000000
0007fffffffe00000000
0007fffffffe00000000
0007fffffffe00000000
00000003ff0000000000
00000003ff0000000000
00000003ff0000000000
00000007fe0000000000
00000007fe0000000000
00000007fe0000000000
ENDCHAR
STARTCHAR U+00BD
ENCODING 189
SWIDTH 1000 0
DWIDTH 60 0
BBX 79 60 -9 -12
BITMAP
00000000000000000000
00000000000000000000
00000000000000000000
00000000000000000000
00000000000000000000
00000000000000000000
000003ff000000000000
000003ff000000000000
000003ff000000000000
000007fe000000000000
000007fe000000000000
000007fe000000000000
0003fffc000ffc000000
0003fffc000ffc000000
0003fffc000ffc000000
0007fff8001ff8000000
0007fff8001ff8000000
0007fff8001ff8000000
00003ff00ffc00000000
00003ff00ffc00000000
00003ff00ffc00000000
00007fe01ff800000000
00007fe01ff800000000
00007fe01ff800000000
0000ffcffc0000000000
0000ffcffc0000000000
0000ffcffc0000000000
0001ff9ff80000000000
0001ff9ff80000000000
0001ff9ff80000000000
00000ffcffff00000000
00000ffcffff00000000
00000ffcffff00000000
00001ff9fffe00000000
00001ff9fffe00000000
00001ff9fffe00000000
000ffcffc03ff0000000
000ffcffc03ff0000000
000ffcffc03ff0000000
001ff9ff807fe0000000
001ff9ff807fe0000000
001ff9ff807fe0000000
0ffc00003ff000000000
0ffc00003ff000000000
0ffc00003ff000000000
1ff800007fe000000000
1ff800007fe000000000
1ff800007fe000000000
0000003ff00000000000
0000003ff00000000000
0000003ff00000000000
0000007fe00000000000
0000007fe00000000000
0000007fe00000000000
00003ffffffc00000000
00003ffffffc00000000
00003ffffffc00000000
00007ffffff800000000
00007ffffff800000000
00007ffffff800000000
ENDCHAR
STARTCHAR U+00BC
ENCODING 188
SWIDTH 1000 0
DWIDTH 60 0
BBX 79 60 -9 -12
BITMAP
00000000000000000000
00000000000000000000
00000000000000000000
00000000000000000000
00000000000000000000
00000000000000000000
000003ff000000000000
000003ff000000000000
000003ff000000000000
000007fe000000000000
000007fe000000000000
000007fe000000000000
0003fffc000ffc000000
0003fffc000ffc000000
0003fffc000ffc000000
0007fff8001ff8000000
0007fff8001ff8000000
0007fff8001ff8000000
00003ff00ffc00000000
00003ff00ffc00000000
00003ff00ffc00000000
00007fe01ff800000000
00007fe01ff800000000
00007fe01ff800000000
0000ffcffc0000000000
0000ffcffc0000000000
0000ffcffc0000000000
0001ff9ff80000000000
0001ff9ff80000000000
0001ff9ff80000000000
00000ffc03ff00000000
00000ffc03ff00000000
00000ffc03ff00000000
00001ff807fe00000000
00001ff807fe00000000
00001ff807fe00000000
000ffc03fffc00000000
000ffc03fffc00000000
000ffc03fffc00000000
001ff807fff800000000
001ff807fff800000000
001ff807fff800000000
0ffc03ff3ff000000000
0ffc03ff3ff000000000
0ffc03ff3ff000000000
1ff807fe7fe000000000
1ff807fe7fe000000000
1ff807fe7fe000000000
0003ffffffff00000000
0003ffffffff00000000
0003ffffffff00000000
0007fffffffe00000000
0007fffffffe00000000
0007fffffffe00000000
00000003ff0000000000
00000003ff0000000000
00000003ff0000000000
00000007fe0000000000
00000007fe0000000000
00000007fe0000000000
ENDCHAR
STARTCHAR U+00BB
ENCODING 187
SWIDTH 1000 0
DWIDTH 60 0
BBX 79 60 -9 -12
BITMAP
00000000000000000000
00000000000000000000
00000000000000000000
00000000000000000000
00000000000000000000
00000000000000000000
0000ffc03ff000000000
0000ffc03ff000000000
0000ffc03ff000000000
0001ff807fe000000000
0001ff807fe000000000
0001ff807fe000000000
00000ffc03ff00000000
00000ffc03ff00000000
00000ffc03ff00000000
00001ff807fe00000000
00001ff807fe00000000
00001ff807fe00000000
000000ffc03ff0000000
000000ffc03ff0000000
000000ffc03ff0000000
000001ff807fe0000000
000001ff807fe0000000
000001ff807fe0000000
0000000ffc03ff000000
0000000ffc03ff000000
0000000ffc03ff000000
0000001ff807fe000000
0000001ff807fe000000
0000001ff807fe000000
00000ffc03ff00000000
00000ffc03ff00000000
00000ffc03ff00000000
00001ff807fe00000000
00001ff807fe00000000
00001ff807fe00000000
000ffc03ff0000000000
000ffc03ff0000000000
000ffc03ff0000000000
001ff807fe0000000000
001ff807fe0000000000
001ff807fe0000000000
0ffc03ff000000000000
0ffc03ff000000000000
0ffc03ff000000000000
1ff807fe000000000000
1ff807fe000000000000
1ff807fe000000000000
00000000000000000000
00000000000000000000
00000000000000000000
00000000000000000000
00000000000000000000
00000000000000000000
00000000000000000000
00000000000000000000
00000000000000000000
00000000000000000000
00000000000000000000
00000000000000000000
ENDCHAR
STARTCHAR U+00BA
ENCODING 186
SWIDTH 1000 0
DWIDTH 60 0
BBX 79 60 -9 -12
BITMAP
00000000000000000000
00000000000000000000
00000000000000000000
00000000000000000000
00000000000000000000
00000000000000000000
000003ffffffff000000
000003ffffffff000000
000003ffffffff000000
000007fffffffe000000
000007fffffffe000000
000007fffffffe000000
0003ff0000003ff00000
0003ff0000003ff00000
0003ff0000003ff00000
0007fe0000007fe00000
0007fe0000007fe00000
0007fe0000007fe00000
000ffc000000ffc00000
000ffc000000ffc00000
000ffc000000ffc00000
001ff8000001ff800000
001ff8000001ff800000
001ff8000001ff800000
003ff0000003ff000000
003ff0000003ff000000
003ff0000003ff000000
007fe0000007fe000000
007fe0000007fe000000
007fe0000007fe000000
0003ffffffff00000000
0003ffffffff00000000
0003ffffffff00000000
0007fffffffe00000000
0007fffffffe00000000
0007fffffffe00000000
00000000000000000000
00000000000000000000
00000000000000000000
00000000000000000000
00000000000000000000
00000000000000000000
0fffffffffffc0000000
0fffffffffffc0000000
0fffffffffffc0000000
1fffffffffff80000000
1fffffffffff80000000
1fffffffffff80000000
00000000000000000000
00000000000000000000
00000000000000000000
00000000000000000000
00000000000000000000
00000000000000000000
00000000000000000000
00000000000000000000
00000000000000000000
00000000000000000000
00000000000000000000
00000000000000000000
ENDCHAR
STARTCHAR U+00B9
ENCODING 185
SWIDTH 1000 0
DWIDTH 60 0
BBX 79 60 -9 -12
BITMAP
000000000ffc00000000
000000000ffc00000000
000000000ffc00000000
000000001ff800000000
000000001ff800000000
000000001ff800000000
0000000ffff000000000
0000000ffff000000000
0000000ffff000000000
0000001fffe000000000
0000001fffe000000000
0000001fffe000000000
00000000ffc000000000
00000000ffc000000000
00000000ffc000000000
00000001ff8000000000
00000001ff8000000000
00000001ff8000000000
00000003ff0000000000
00000003ff0000000000
00000003ff0000000000
00000007fe0000000000
00000007fe0000000000
00000007fe0000000000
000003fffff000000000
000003fffff000000000
000003fffff000000000
000007ffffe000000000
000007ffffe000000000
000007ffffe000000000
00000000000000000000
00000000000000000000
00000000000000000000
00000000000000000000
00000000000000000000
00000000000000000000
00000000000000000000
00000000000000000000
00000000000000000000
00000000000000000000
00000000000000000000
00000000000000000000
00000000000000000000
00000000000000000000
00000000000000000000
00000000000000000000
00000000000000000000
00000000000000000000
00000000000000000000
00000000000000000000
00000000000000000000
00000000000000000000
00000000000000000000
00000000000000000000
00000000000000000000
00000000000000000000
00000000000000000000
00000000000000000000
00000000000000000000
00000000000000000000
ENDCHAR
STARTCHAR U+00B8
ENCODING 184
SWIDTH 1000 0
DWIDTH 60 0
BBX 79 60 -9 -12
BITMAP
00000000000000000000
00000000000000000000
00000000000000000000
00000000000000000000
00000000000000000000
00000000000000000000
00000000000000000000
00000000000000000000
00000000000000000000
00000000000000000000
00000000000000000000
00000000000000000000
00000000000000000000
00000000000000000000
00000000000000000000
00000000000000000000
00000000000000000000
00000000000000000000
00000000000000000000
00000000000000000000
00000000000000000000
00000000000000000000
00000000000000000000
00000000000000000000
00000000000000000000
00000000000000000000
00000000000000000000
00000000000000000000
00000000000000000000
00000000000000000000
00000000000000000000
00000000000000000000
00000000000000000000
00000000000000000000
00000000000000000000
00000000000000000000
00000000000000000000
00000000000000000000
00000000000000000000
00000000000000000000
00000000000000000000
00000000000000000000
00000000000000000000
00000000000000000000
00000000000000000000
00000000000000000000
00000000000000000000
00000000000000000000
0000003ff00000000000
0000003ff00000000000
0000003ff00000000000
0000007fe00000000000
0000007fe00000000000
0000007fe00000000000
000fffffc00000000000
000fffffc00000000000
000fffffc00000000000
001fffff800000000000
001fffff800000000000
001fffff800000000000
ENDCHAR
STARTCHAR U+2022
ENCODING 8226
SWIDTH 1000 0
DWIDTH 60 0
BBX 79 60 -9 -12
BITMAP
00000000000000000000
00000000000000000000
00000000000000000000
00000000000000000000
00000000000000000000
00000000000000000000
00000000000000000000
00000000000000000000
00000000000000000000
00000000000000000000
00000000000000000000
00000000000000000000
00000000000000000000
00000000000000000000
00000000000000000000
00000000000000000000
00000000000000000000
00000000000000000000
000000ffff0000000000
000000ffff0000000000
000000ffff0000000000
000001fffe0000000000
000001fffe0000000000
000001fffe0000000000
000003fffc0000000000
000003fffc0000000000
000003fffc0000000000
000007fff80000000000
000007fff80000000000
000007fff80000000000
00000000000000000000
00000000000000000000
00000000000000000000
00000000000000000000
00000000000000000000
00000000000000000000
00000000000000000000
00000000000000000000
00000000000000000000
00000000000000000000
00000000000000000000
00000000000000000000
00000000000000000000
00000000000000000000
00000000000000000000
00000000000000000000
00000000000000000000
00000000000000000000
00000000000000000000
00000000000000000000
00000000000000000000
00000000000000000000
00000000000000000000
00000000000000000000
00000000000000000000
00000000000000000000
00000000000000000000
00000000000000000000
00000000000000000000
00000000000000000000
ENDCHAR
STARTCHAR U+00B6
ENCODING 182
SWIDTH 1000 0
DWIDTH 60 0
BBX 79 60 -9 -12
BITMAP
00000000000000000000
00000000000000000000
00000000000000000000
00000000000000000000
00000000000000000000
00000000000000000000
000003fffffffffc0000
000003fffffffffc0000
000003fffffffffc0000
000007fffffffff80000
000007fffffffff80000
000007fffffffff80000
0003fffc03ff3ff00000
0003fffc03ff3ff00000
0003fffc03ff3ff00000
0007fff807fe7fe00000
0007fff807fe7fe00000
0007fff807fe7fe00000
000ffff00ffcffc00000
000ffff00ffcffc00000
000ffff00ffcffc00000
001fffe01ff9ff800000
001fffe01ff9ff800000
001fffe01ff9ff800000
0000ffffffffff000000
0000ffffffffff000000
0000ffffffffff000000
0001fffffffffe000000
0001fffffffffe000000
0001fffffffffe000000
00000000ffcffc000000
00000000ffcffc000000
00000000ffcffc000000
00000001ff9ff8000000
00000001ff9ff8000000
00000001ff9ff8000000
00000003ff3ff0000000
00000003ff3ff0000000
00000003ff3ff0000000
00000007fe7fe0000000
00000007fe7fe0000000
00000007fe7fe0000000
0000000ffcffc0000000
0000000ffcffc0000000
0000000ffcffc0000000
0000001ff9ff80000000
0000001ff9ff80000000
0000001ff9ff80000000
00000000000000000000
00000000000000000000
00000000000000000000
00000000000000000000
00000000000000000000
00000000000000000000
00000000000000000000
00000000000000000000
00000000000000000000
00000000000000000000
00000000000000000000
00000000000000000000
ENDCHAR
STARTCHAR U+00B5
ENCODING 181
SWIDTH 1000 0
DWIDTH 60 0
BBX 79 60 -9 -12
BITMAP
00000000000000000000
00000000000000000000
00000000000000000000
00000000000000000000
00000000000000000000
00000000000000000000
00000000000000000000
00000000000000000000
00000000000000000000
00000000000000000000
00000000000000000000
00000000000000000000
00000000000000000000
00000000000000000000
00000000000000000000
00000000000000000000
00000000000000000000
00000000000000000000
00003ff00000ffc00000
00003ff00000ffc00000
00003ff00000ffc00000
00007fe00001ff800000
00007fe00001ff800000
00007fe00001ff800000
0000ffc00003ff000000
0000ffc00003ff000000
0000ffc00003ff000000
0001ff800007fe000000
0001ff800007fe000000
0001ff800007fe000000
0003ff00000ffc000000
0003ff00000ffc000000
0003ff00000ffc000000
0007fe00001ff8000000
0007fe00001ff8000000
0007fe00001ff8000000
000ffff00ffff0000000
000ffff00ffff0000000
000ffff00ffff0000000
001fffe01fffe0000000
001fffe01fffe0000000
001fffe01fffe0000000
003ff3fffcffc0000000
003ff3fffcffc0000000
003ff3fffcffc0000000
007fe7fff9ff80000000
007fe7fff9ff80000000
007fe7fff9ff80000000
00ffc000000000000000
00ffc000000000000000
00ffc000000000000000
01ff8000000000000000
01ff8000000000000000
01ff8000000000000000
ffc00000000000000000
ffc00000000000000000
ffc00000000000000000
ff800000000000000000
ff800000000000000000
ff800000000000000000
ENDCHAR
STARTCHAR U+00B4
ENCODING 180
SWIDTH 1000 0
DWIDTH 60 0
BBX 79 60 -9 -12
BITMAP
00000000000000000000
00000000000000000000
00000000000000000000
00000000000000000000
00000000000000000000
00000000000000000000
0000000000ffff000000
0000000000ffff000000
0000000000ffff000000
0000000001fffe000000
0000000001fffe000000
0000000001fffe000000
0000000003ff00000000
0000000003ff00000000
0000000003ff00000000
0000000007fe00000000
0000000007fe00000000
0000000007fe00000000
00000003ff0000000000
00000003ff0000000000
00000003ff0000000000
00000007fe0000000000
00000007fe0000000000
00000007fe0000000000
00000000000000000000
00000000000000000000
00000000000000000000
00000000000000000000
00000000000000000000
00000000000000000000
00000000000000000000
00000000000000000000
00000000000000000000
00000000000000000000
00000000000000000000
00000000000000000000
00000000000000000000
00000000000000000000
00000000000000000000
00000000000000000000
00000000000000000000
00000000000000000000
00000000000000000000
00000000000000000000
00000000000000000000
00000000000000000000
00000000000000000000
00000000000000000000
00000000000000000000
00000000000000000000
00000000000000000000
00000000000000000000
00000000000000000000
00000000000000000000
00000000000000000000
00000000000000000000
00000000000000000000
00000000000000000000
00000000000000000000
00000000000000000000
ENDCHAR
STARTCHAR U+00B3
ENCODING 179
SWIDTH 1000 0
DWIDTH 60 0
BBX 79 60 -9 -12
BITMAP
000000ffffffffc00000
000000ffffffffc00000
000000ffffffffc00000
000001ffffffff800000
000001ffffffff800000
000001ffffffff800000
000000000003ff000000
000000000003ff000000
000000000003ff000000
000000000007fe000000
000000000007fe000000
000000000007fe000000
00000000ffff00000000
00000000ffff00000000
00000000ffff00000000
00000001fffe00000000
00000001fffe00000000
00000001fffe00000000
00000000003ff0000000
00000000003ff0000000
00000000003ff0000000
00000000007fe0000000
00000000007fe0000000
00000000007fe0000000
0000fffffff000000000
0000fffffff000000000
0000fffffff000000000
0001ffffffe000000000
0001ffffffe000000000
0001ffffffe000000000
00000000000000000000
00000000000000000000
00000000000000000000
00000000000000000000
00000000000000000000
00000000000000000000
00000000000000000000
00000000000000000000
00000000000000000000
00000000000000000000
00000000000000000000
00000000000000000000
00000000000000000000
00000000000000000000
00000000000000000000
00000000000000000000
00000000000000000000
00000000000000000000
00000000000000000000
00000000000000000000
00000000000000000000
00000000000000000000
00000000000000000000
00000000000000000000
00000000000000000000
00000000000000000000
00000000000000000000
00000000000000000000
00000000000000000000
00000000000000000000
ENDCHAR
STARTCHAR U+00B2
ENCODING 178
SWIDTH 1000 0
DWIDTH 60 0
BBX 79 60 -9 -12
BITMAP
00000003fffff0000000
00000003fffff0000000
00000003fffff0000000
00000007ffffe0000000
00000007ffffe0000000
00000007ffffe0000000
000003ff0003ff000000
000003ff0003ff000000
000003ff0003ff000000
000007fe0007fe000000
000007fe0007fe000000
000007fe0007fe000000
00000000ffff00000000
00000000ffff00000000
00000000ffff00000000
00000001fffe00000000
00000001fffe00000000
00000001fffe00000000
000000ffc00000000000
000000ffc00000000000
000000ffc00000000000
000001ff800000000000
000001ff800000000000
000001ff800000000000
0000ffffffffc0000000
0000ffffffffc0000000
0000ffffffffc0000000
0001ffffffff80000000
0001ffffffff80000000
0001ffffffff80000000
00000000000000000000
00000000000000000000
00000000000000000000
00000000000000000000
00000000000000000000
00000000000000000000
00000000000000000000
00000000000000000000
00000000000000000000
00000000000000000000
00000000000000000000
00000000000000000000
00000000000000000000
00000000000000000000
00000000000000000000
00000000000000000000
00000000000000000000
00000000000000000000
00000000000000000000
00000000000000000000
00000000000000000000
00000000000000000000
00000000000000000000
00000000000000000000
00000000000000000000
00000000000000000000
00000000000000000000
00000000000000000000
00000000000000000000
00000000000000000000
ENDCHAR
STARTCHAR U+00AF
ENCODING 175
SWIDTH 1000 0
DWIDTH 60 0
BBX 79 60 -9 -12
BITMAP
000000ffffffffc00000
000000ffffffffc00000
000000ffffffffc00000
000001ffffffff800000
000001ffffffff800000
000001ffffffff800000
00000000000000000000
00000000000000000000
00000000000000000000
00000000000000000000
00000000000000000000
00000000000000000000
00000000000000000000
00000000000000000000
00000000000000000000
00000000000000000000
00000000000000000000
00000000000000000000
00000000000000000000
00000000000000000000
00000000000000000000
00000000000000000000
00000000000000000000
00000000000000000000
00000000000000000000
00000000000000000000
00000000000000000000
00000000000000000000
00000000000000000000
00000000000000000000
00000000000000000000
00000000000000000000
00000000000000000000
00000000000000000000
00000000000000000000
00000000000000000000
00000000000000000000
00000000000000000000
00000000000000000000
00000000000000000000
00000000000000000000
00000000000000000000
00000000000000000000
00000000000000000000
00000000000000000000
00000000000000000000
00000000000000000000
00000000000000000000
00000000000000000000
00000000000000000000
00000000000000000000
00000000000000000000
00000000000000000000
00000000000000000000
00000000000000000000
00000000000000000000
00000000000000000000
00000000000000000000
00000000000000000000
00000000000000000000
ENDCHAR
STARTCHAR U+00AE
ENCODING 174
SWIDTH 1000 0
DWIDTH 60 0
BBX 79 60 -9 -12
BITMAP
00000000000000000000
00000000000000000000
00000000000000000000
00000000000000000000
00000000000000000000
00000000000000000000
0000000fffffc0000000
0000000fffffc0000000
0000000fffffc0000000
0000001fffff80000000
0000001fffff80000000
0000001fffff80000000
00000ffc000ffc000000
00000ffc000ffc000000
00000ffc000ffc000000
00001ff8001ff8000000
00001ff8001ff8000000
00001ff8001ff8000000
000ffcfffffcffc00000
000ffcfffffcffc00000
000ffcfffffcffc00000
001ff9fffff9ff800000
001ff9fffff9ff800000
001ff9fffff9ff800000
003ff3ff00ffff000000
003ff3ff00ffff000000
003ff3ff00ffff000000
007fe7fe01fffe000000
007fe7fe01fffe000000
007fe7fe01fffe000000
00ffcfffffcffc000000
00ffcfffffcffc000000
00ffcfffffcffc000000
01ff9fffff9ff8000000
01ff9fffff9ff8000000
01ff9fffff9ff8000000
03ff3fffc03ff0000000
03ff3fffc03ff0000000
03ff3fffc03ff0000000
07fe7fff807fe0000000
07fe7fff807fe0000000
07fe7fff807fe0000000
003fffcffff000000000
003fffcffff000000000
003fffcffff000000000
007fff9fffe000000000
007fff9fffe000000000
007fff9fffe000000000
0003fffff00000000000
0003fffff00000000000
0003fffff00000000000
0007ffffe00000000000
0007ffffe00000000000
0007ffffe00000000000
00000000000000000000
00000000000000000000
00000000000000000000
00000000000000000000
00000000000000000000
00000000000000000000
ENDCHAR
STARTCHAR U+00D7
ENCODING 215
SWIDTH 1000 0
DWIDTH 60 0
BBX 79 60 -9 -12
BITMAP
00000000000000000000
00000000000000000000
00000000000000000000
00000000000000000000
00000000000000000000
00000000000000000000
00000000000000000000
00000000000000000000
00000000000000000000
00000000000000000000
00000000000000000000
00000000000000000000
00000ffc000ffc000000
00000ffc000ffc000000
00000ffc000ffc000000
00001ff8001ff8000000
00001ff8001ff8000000
00001ff8001ff8000000
000000ffcffc00000000
000000ffcffc00000000
000000ffcffc00000000
000001ff9ff800000000
000001ff9ff800000000
000001ff9ff800000000
0000000ffc0000000000
0000000ffc0000000000
0000000ffc0000000000
0000001ff80000000000
0000001ff80000000000
0000001ff80000000000
00000ffcffc000000000
00000ffcffc000000000
00000ffcffc000000000
00001ff9ff8000000000
00001ff9ff8000000000
00001ff9ff8000000000
000ffc000ffc00000000
000ffc000ffc00000000
000ffc000ffc00000000
001ff8001ff800000000
001ff8001ff800000000
001ff8001ff800000000
00000000000000000000
00000000000000000000
00000000000000000000
00000000000000000000
00000000000000000000
00000000000000000000
00000000000000000000
00000000000000000000
00000000000000000000
00000000000000000000
00000000000000000000
00000000000000000000
00000000000000000000
00000000000000000000
00000000000000000000
00000000000000000000
00000000000000000000
00000000000000000000
ENDCHAR
STARTCHAR U+00AC
ENCODING 172
SWIDTH 1000 0
DWIDTH 60 0
BBX 79 60 -9 -12
BITMAP
00000000000000000000
00000000000000000000
00000000000000000000
00000000000000000000
00000000000000000000
00000000000000000000
00000000000000000000
00000000000000000000
00000000000000000000
00000000000000000000
00000000000000000000
00000000000000000000
00000000000000000000
00000000000000000000
00000000000000000000
00000000000000000000
00000000000000000000
00000000000000000000
00000000000000000000
00000000000000000000
00000000000000000000
00000000000000000000
00000000000000000000
00000000000000000000
00000000000000000000
00000000000000000000
00000000000000000000
00000000000000000000
00000000000000000000
00000000000000000000
00fffffffffffc000000
00fffffffffffc000000
00fffffffffffc000000
01fffffffffff8000000
01fffffffffff8000000
01fffffffffff8000000
00000000003ff0000000
00000000003ff0000000
00000000003ff0000000
00000000007fe0000000
00000000007fe0000000
00000000007fe0000000
0000000000ffc0000000
0000000000ffc0000000
0000000000ffc0000000
0000000001ff80000000
0000000001ff80000000
0000000001ff80000000
00000000000000000000
00000000000000000000
00000000000000000000
00000000000000000000
00000000000000000000
00000000000000000000
00000000000000000000
00000000000000000000
00000000000000000000
00000000000000000000
00000000000000000000
00000000000000000000
ENDCHAR
STARTCHAR U+00AB
ENCODING 171
SWIDTH 1000 0
DWIDTH 60 0
BBX 79 60 -9 -12
BITMAP
00000000000000000000
00000000000000000000
00000000000000000000
00000000000000000000
00000000000000000000
00000000000000000000
000000003ff00ffc0000
000000003ff00ffc0000
000000003ff00ffc0000
000000007fe01ff80000
000000007fe01ff80000
000000007fe01ff80000
0000003ff00ffc000000
0000003ff00ffc000000
0000003ff00ffc000000
0000007fe01ff8000000
0000007fe01ff8000000
0000007fe01ff8000000
00003ff00ffc00000000
00003ff00ffc00000000
00003ff00ffc00000000
00007fe01ff800000000
00007fe01ff800000000
00007fe01ff800000000
003ff00ffc0000000000
003ff00ffc0000000000
003ff00ffc0000000000
007fe01ff80000000000
007fe01ff80000000000
007fe01ff80000000000
0003ff00ffc000000000
0003ff00ffc000000000
0003ff00ffc000000000
0007fe01ff8000000000
0007fe01ff8000000000
0007fe01ff8000000000
00003ff00ffc00000000
00003ff00ffc00000000
00003ff00ffc00000000
00007fe01ff800000000
00007fe01ff800000000
00007fe01ff800000000
000003ff00ffc0000000
000003ff00ffc0000000
000003ff00ffc0000000
000007fe01ff80000000
000007fe01ff80000000
000007fe01ff80000000
00000000000000000000
00000000000000000000
00000000000000000000
00000000000000000000
00000000000000000000
00000000000000000000
00000000000000000000
00000000000000000000
00000000000000000000
00000000000000000000
00000000000000000000
00000000000000000000
ENDCHAR
STARTCHAR U+00AA
ENCODING 170
SWIDTH 1000 0
DWIDTH 60 0
BBX 79 60 -9 -12
BITMAP
00000000000000000000
00000000000000000000
00000000000000000000
00000000000000000000
00000000000000000000
00000000000000000000
000003ffffffff000000
000003ffffffff000000
000003ffffffff000000
000007fffffffe000000
000007fffffffe000000
000007fffffffe000000
0000000000003ff00000
0000000000003ff00000
0000000000003ff00000
0000000000007fe00000
0000000000007fe00000
0000000000007fe00000
00003fffffffffc00000
00003fffffffffc00000
00003fffffffffc00000
00007fffffffff800000
00007fffffffff800000
00007fffffffff800000
003ff00000ffff000000
003ff00000ffff000000
003ff00000ffff000000
007fe00001fffe000000
007fe00001fffe000000
007fe00001fffe000000
0003ffffffcffc000000
0003ffffffcffc000000
0003ffffffcffc000000
0007ffffff9ff8000000
0007ffffff9ff8000000
0007ffffff9ff8000000
00000000000000000000
00000000000000000000
00000000000000000000
00000000000000000000
00000000000000000000
00000000000000000000
0fffffffffffc0000000
0fffffffffffc0000000
0fffffffffffc0000000
1fffffffffff80000000
1fffffffffff80000000
1fffffffffff80000000
00000000000000000000
00000000000000000000
00000000000000000000
00000000000000000000
00000000000000000000
00000000000000000000
00000000000000000000
00000000000000000000
00000000000000000000
00000000000000000000
00000000000000000000
00000000000000000000
ENDCHAR
STARTCHAR U+00A9
ENCODING 169
SWIDTH 1000 0
DWIDTH 60 0
BBX 79 60 -9 -12
BITMAP
00000000000000000000
00000000000000000000
00000000000000000000
00000000000000000000
00000000000000000000
00000000000000000000
0000000fffffc0000000
0000000fffffc0000000
0000000fffffc0000000
0000001fffff80000000
0000001fffff80000000
0000001fffff80000000
00000ffc000ffc000000
00000ffc000ffc000000
00000ffc000ffc000000
00001ff8001ff8000000
00001ff8001ff8000000
00001ff8001ff8000000
000ffc03fffcffc00000
000ffc03fffcffc00000
000ffc03fffcffc00000
001ff807fff9ff800000
001ff807fff9ff800000
001ff807fff9ff800000
003ff3ff0003ff000000
003ff3ff0003ff000000
003ff3ff0003ff000000
007fe7fe0007fe000000
007fe7fe0007fe000000
007fe7fe0007fe000000
00ffcffc000ffc000000
00ffcffc000ffc000000
00ffcffc000ffc000000
01ff9ff8001ff8000000
01ff9ff8001ff8000000
01ff9ff8001ff8000000
03ff00ffff3ff0000000
03ff00ffff3ff0000000
03ff00ffff3ff0000000
07fe01fffe7fe0000000
07fe01fffe7fe0000000
07fe01fffe7fe0000000
003ff0003ff000000000
003ff0003ff000000000
003ff0003ff000000000
007fe0007fe000000000
007fe0007fe000000000
007fe0007fe000000000
0003fffff00000000000
0003fffff00000000000
0003fffff00000000000
0007ffffe00000000000
0007ffffe00000000000
0007ffffe00000000000
00000000000000000000
00000000000000000000
00000000000000000000
00000000000000000000
00000000000000000000
00000000000000000000
ENDCHAR
STARTCHAR U+00A4
ENCODING 164
SWIDTH 1000 0
DWIDTH 60 0
BBX 79 60 -9 -12
BITMAP
00000000000000000000
00000000000000000000
00000000000000000000
00000000000000000000
00000000000000000000
00000000000000000000
00000000000000000000
00000000000000000000
00000000000000000000
00000000000000000000
00000000000000000000
00000000000000000000
0003ff0000003ff00000
0003ff0000003ff00000
0003ff0000003ff00000
0007fe0000007fe00000
0007fe0000007fe00000
0007fe0000007fe00000
00003ffffffff0000000
00003ffffffff0000000
00003ffffffff0000000
00007fffffffe0000000
00007fffffffe0000000
00007fffffffe0000000
0000ffc000ffc0000000
0000ffc000ffc0000000
0000ffc000ffc0000000
0001ff8001ff80000000
0001ff8001ff80000000
0001ff8001ff80000000
0003ffffffff00000000
0003ffffffff00000000
0003ffffffff00000000
0007fffffffe00000000
0007fffffffe00000000
0007fffffffe00000000
03ff0000003ff0000000
03ff0000003ff0000000
03ff0000003ff0000000
07fe0000007fe0000000
07fe0000007fe0000000
07fe0000007fe0000000
00000000000000000000
00000000000000000000
00000000000000000000
00000000000000000000
00000000000000000000
00000000000000000000
00000000000000000000
00000000000000000000
00000000000000000000
00000000000000000000
00000000000000000000
00000000000000000000
00000000000000000000
00000000000000000000
00000000000000000000
00000000000000000000
00000000000000000000
00000000000000000000
ENDCHAR
STARTCHAR U+00A7
ENCODING 167
SWIDTH 1000 0
DWIDTH 60 0
BBX 79 60 -9 -12
BITMAP
00000000000000000000
00000000000000000000
00000000000000000000
00000000000000000000
00000000000000000000
00000000000000000000
0000000fffffff000000
0000000fffffff000000
0000000fffffff000000
0000001ffffffe000000
0000001ffffffe000000
0000001ffffffe000000
00000ffc000000000000
00000ffc000000000000
00000ffc000000000000
00001ff8000000000000
00001ff8000000000000
00001ff8000000000000
000000fffffc00000000
000000fffffc00000000
000000fffffc00000000
000001fffff800000000
000001fffff800000000
000001fffff800000000
0000ffc000ffc0000000
0000ffc000ffc0000000
0000ffc000ffc0000000
0001ff8001ff80000000
0001ff8001ff80000000
0001ff8001ff80000000
00000fffffc000000000
00000fffffc000000000
00000fffffc000000000
00001fffff8000000000
00001fffff8000000000
00001fffff8000000000
000000000ffc00000000
000000000ffc00000000
000000000ffc00000000
000000001ff800000000
000000001ff800000000
000000001ff800000000
003ffffffc0000000000
003ffffffc0000000000
003ffffffc0000000000
007ffffff80000000000
007ffffff80000000000
007ffffff80000000000
00000000000000000000
00000000000000000000
00000000000000000000
00000000000000000000
00000000000000000000
00000000000000000000
00000000000000000000
00000000000000000000
00000000000000000000
00000000000000000000
00000000000000000000
00000000000000000000
ENDCHAR
STARTCHAR U+00A6
ENCODING 166
SWIDTH 1000 0
DWIDTH 60 0
BBX 79 60 -9 -12
BITMAP
00000000000000000000
00000000000000000000
00000000000000000000
00000000000000000000
00000000000000000000
00000000000000000000
000000003ff000000000
000000003ff000000000
000000003ff000000000
000000007fe000000000
000000007fe000000000
000000007fe000000000
00000000ffc000000000
00000000ffc000000000
00000000ffc000000000
00000001ff8000000000
00000001ff8000000000
00000001ff8000000000
00000003ff0000000000
00000003ff0000000000
00000003ff0000000000
00000007fe0000000000
00000007fe0000000000
00000007fe0000000000
00000000000000000000
00000000000000000000
00000000000000000000
00000000000000000000
00000000000000000000
00000000000000000000
0000003ff00000000000
0000003ff00000000000
0000003ff00000000000
0000007fe00000000000
0000007fe00000000000
0000007fe00000000000
000000ffc00000000000
000000ffc00000000000
000000ffc00000000000
000001ff800000000000
000001ff800000000000
000001ff800000000000
000003ff000000000000
000003ff000000000000
000003ff000000000000
000007fe000000000000
000007fe000000000000
000007fe000000000000
00000000000000000000
00000000000000000000
00000000000000000000
00000000000000000000
00000000000000000000
00000000000000000000
00000000000000000000
00000000000000000000
00000000000000000000
00000000000000000000
00000000000000000000
00000000000000000000
ENDCHAR
STARTCHAR U+00A5
ENCODING 165
SWIDTH 1000 0
DWIDTH 60 0
BBX 79 60 -9 -12
BITMAP
00000000000000000000
00000000000000000000
00000000000000000000
00000000000000000000
00000000000000000000
00000000000000000000
0000ffc000000ffc0000
0000ffc000000ffc0000
0000ffc000000ffc0000
0001ff8000001ff80000
0001ff8000001ff80000
0001ff8000001ff80000
00000ffc000ffc000000
00000ffc000ffc000000
00000ffc000ffc000000
00001ff8001ff8000000
00001ff8001ff8000000
00001ff8001ff8000000
000000ffcffc00000000
000000ffcffc00000000
000000ffcffc00000000
000001ff9ff800000000
000001ff9ff800000000
000001ff9ff800000000
0000000ffc0000000000
0000000ffc0000000000
0000000ffc0000000000
0000001ff80000000000
0000001ff80000000000
0000001ff80000000000
00fffffffffffc000000
00fffffffffffc000000
00fffffffffffc000000
01fffffffffff8000000
01fffffffffff8000000
01fffffffffff8000000
000000ffc00000000000
000000ffc00000000000
000000ffc00000000000
000001ff800000000000
000001ff800000000000
000001ff800000000000
000003ff000000000000
000003ff000000000000
000003ff000000000000
000007fe000000000000
000007fe000000000000
000007fe000000000000
00000000000000000000
00000000000000000000
00000000000000000000
00000000000000000000
00000000000000000000
00000000000000000000
00000000000000000000
00000000000000000000
00000000000000000000
00000000000000000000
00000000000000000000
00000000000000000000
ENDCHAR
STARTCHAR U+00A8
ENCODING 168
SWIDTH 1000 0
DWIDTH 60 0
BBX 79 60 -9 -12
BITMAP
000000ffc000ffc00000
000000ffc000ffc00000
000000ffc000ffc00000
000001ff8001ff800000
000001ff8001ff800000
000001ff8001ff800000
00000000000000000000
00000000000000000000
00000000000000000000
00000000000000000000
00000000000000000000
00000000000000000000
00000000000000000000
00000000000000000000
00000000000000000000
00000000000000000000
00000000000000000000
00000000000000000000
00000000000000000000
00000000000000000000
00000000000000000000
00000000000000000000
00000000000000000000
00000000000000000000
00000000000000000000
00000000000000000000
00000000000000000000
00000000000000000000
00000000000000000000
00000000000000000000
00000000000000000000
00000000000000000000
00000000000000000000
00000000000000000000
00000000000000000000
00000000000000000000
00000000000000000000
00000000000000000000
00000000000000000000
00000000000000000000
00000000000000000000
00000000000000000000
00000000000000000000
00000000000000000000
00000000000000000000
00000000000000000000
00000000000000000000
00000000000000000000
00000000000000000000
00000000000000000000
00000000000000000000
00000000000000000000
00000000000000000000
00000000000000000000
00000000000000000000
00000000000000000000
00000000000000000000
00000000000000000000
00000000000000000000
00000000000000000000
ENDCHAR
STARTCHAR U+00A2
ENCODING 162
SWIDTH 1000 0
DWIDTH 60 0
BBX 79 60 -9 -12
BITMAP
00000000000000000000
00000000000000000000
00000000000000000000
00000000000000000000
00000000000000000000
00000000000000000000
00000000000000000000
00000000000000000000
00000000000000000000
00000000000000000000
00000000000000000000
00000000000000000000
00000000ffc000000000
00000000ffc000000000
00000000ffc000000000
00000001ff8000000000
00000001ff8000000000
00000001ff8000000000
00003ffffffff0000000
00003ffffffff0000000
00003ffffffff0000000
00007fffffffe0000000
00007fffffffe0000000
00007fffffffe0000000
003ff00ffc03ff000000
003ff00ffc03ff000000
003ff00ffc03ff000000
007fe01ff807fe000000
007fe01ff807fe000000
007fe01ff807fe000000
00ffc03ff00000000000
00ffc03ff00000000000
00ffc03ff00000000000
01ff807fe00000000000
01ff807fe00000000000
01ff807fe00000000000
03ff00ffc03ff0000000
03ff00ffc03ff0000000
03ff00ffc03ff0000000
07fe01ff807fe0000000
07fe01ff807fe0000000
07fe01ff807fe0000000
003ffffffff000000000
003ffffffff000000000
003ffffffff000000000
007fffffffe000000000
007fffffffe000000000
007fffffffe000000000
00000ffc000000000000
00000ffc000000000000
00000ffc000000000000
00001ff8000000000000
00001ff8000000000000
00001ff8000000000000
00000000000000000000
00000000000000000000
00000000000000000000
00000000000000000000
00000000000000000000
00000000000000000000
ENDCHAR
STARTCHAR U+00A1
ENCODING 161
SWIDTH 1000 0
DWIDTH 60 0
BBX 79 60 -9 -12
BITMAP
00000000000000000000
00000000000000000000
00000000000000000000
00000000000000000000
00000000000000000000
00000000000000000000
000000003ff000000000
000000003ff000000000
000000003ff000000000
000000007fe000000000
000000007fe000000000
000000007fe000000000
00000000000000000000
00000000000000000000
00000000000000000000
00000000000000000000
00000000000000000000
00000000000000000000
00000003ff0000000000
00000003ff0000000000
00000003ff0000000000
00000007fe0000000000
00000007fe0000000000
00000007fe0000000000
0000000ffc0000000000
0000000ffc0000000000
0000000ffc0000000000
0000001ff80000000000
0000001ff80000000000
0000001ff80000000000
0000003ff00000000000
0000003ff00000000000
0000003ff00000000000
0000007fe00000000000
0000007fe00000000000
0000007fe00000000000
000000ffc00000000000
000000ffc00000000000
000000ffc00000000000
000001ff800000000000
000001ff800000000000
000001ff800000000000
000003ff000000000000
000003ff000000000000
000003ff000000000000
000007fe000000000000
000007fe000000000000
000007fe000000000000
00000000000000000000
00000000000000000000
00000000000000000000
00000000000000000000
00000000000000000000
00000000000000000000
00000000000000000000
00000000000000000000
00000000000000000000
00000000000000000000
00000000000000000000
00000000000000000000
ENDCHAR
STARTCHAR U+201F
ENCODING 8223
SWIDTH 1000 0
DWIDTH 60 0
BBX 79 60 -9 -12
BITMAP
00000000000000000000
00000000000000000000
00000000000000000000
00000000000000000000
00000000000000000000
00000000000000000000
000003fffcffff000000
000003fffcffff000000
000003fffcffff000000
000007fff9fffe000000
000007fff9fffe000000
000007fff9fffe000000
00000ffc03ff00000000
00000ffc03ff00000000
00000ffc03ff00000000
00001ff807fe00000000
00001ff807fe00000000
00001ff807fe00000000
000000ffc03ff0000000
000000ffc03ff0000000
000000ffc03ff0000000
000001ff807fe0000000
000001ff807fe0000000
000001ff807fe0000000
00000000000000000000
00000000000000000000
00000000000000000000
00000000000000000000
00000000000000000000
00000000000000000000
00000000000000000000
00000000000000000000
00000000000000000000
00000000000000000000
00000000000000000000
00000000000000000000
00000000000000000000
00000000000000000000
00000000000000000000
00000000000000000000
00000000000000000000
00000000000000000000
00000000000000000000
00000000000000000000
00000000000000000000
00000000000000000000
00000000000000000000
00000000000000000000
00000000000000000000
00000000000000000000
00000000000000000000
00000000000000000000
00000000000000000000
00000000000000000000
00000000000000000000
00000000000000000000
00000000000000000000
00000000000000000000
00000000000000000000
00000000000000000000
ENDCHAR
STARTCHAR U+201E
ENCODING 8222
SWIDTH 1000 0
DWIDTH 60 0
BBX 79 60 -9 -12
BITMAP
00000000000000000000
00000000000000000000
00000000000000000000
00000000000000000000
00000000000000000000
00000000000000000000
00000000000000000000
00000000000000000000
00000000000000000000
00000000000000000000
00000000000000000000
00000000000000000000
00000000000000000000
00000000000000000000
00000000000000000000
00000000000000000000
00000000000000000000
00000000000000000000
00000000000000000000
00000000000000000000
00000000000000000000
00000000000000000000
00000000000000000000
00000000000000000000
00000000000000000000
00000000000000000000
00000000000000000000
00000000000000000000
00000000000000000000
00000000000000000000
00000000000000000000
00000000000000000000
00000000000000000000
00000000000000000000
00000000000000000000
00000000000000000000
00000000000000000000
00000000000000000000
00000000000000000000
00000000000000000000
00000000000000000000
00000000000000000000
003ff00ffc0000000000
003ff00ffc0000000000
003ff00ffc0000000000
007fe01ff80000000000
007fe01ff80000000000
007fe01ff80000000000
00ffc03ff00000000000
00ffc03ff00000000000
00ffc03ff00000000000
01ff807fe00000000000
01ff807fe00000000000
01ff807fe00000000000
00000000000000000000
00000000000000000000
00000000000000000000
00000000000000000000
00000000000000000000
00000000000000000000
ENDCHAR
STARTCHAR U+201D
ENCODING 8221
SWIDTH 1000 0
DWIDTH 60 0
BBX 79 60 -9 -12
BITMAP
00000000000000000000
00000000000000000000
00000000000000000000
00000000000000000000
00000000000000000000
00000000000000000000
000003fffc03fffc0000
000003fffc03fffc0000
000003fffc03fffc0000
000007fff807fff80000
000007fff807fff80000
000007fff807fff80000
0000003ff0003ff00000
0000003ff0003ff00000
0000003ff0003ff00000
0000007fe0007fe00000
0000007fe0007fe00000
0000007fe0007fe00000
00003ff0003ff0000000
00003ff0003ff0000000
00003ff0003ff0000000
00007fe0007fe0000000
00007fe0007fe0000000
00007fe0007fe0000000
00000000000000000000
00000000000000000000
00000000000000000000
00000000000000000000
00000000000000000000
00000000000000000000
00000000000000000000
00000000000000000000
00000000000000000000
00000000000000000000
00000000000000000000
00000000000000000000
00000000000000000000
00000000000000000000
00000000000000000000
00000000000000000000
00000000000000000000
00000000000000000000
00000000000000000000
00000000000000000000
00000000000000000000
00000000000000000000
00000000000000000000
00000000000000000000
00000000000000000000
00000000000000000000
00000000000000000000
00000000000000000000
00000000000000000000
00000000000000000000
00000000000000000000
00000000000000000000
00000000000000000000
00000000000000000000
00000000000000000000
00000000000000000000
ENDCHAR
STARTCHAR U+201C
ENCODING 8220
SWIDTH 1000 0
DWIDTH 60 0
BBX 79 60 -9 -12
BITMAP
00000000000000000000
00000000000000000000
00000000000000000000
00000000000000000000
00000000000000000000
00000000000000000000
0000000ffc000ffc0000
0000000ffc000ffc0000
0000000ffc000ffc0000
0000001ff8001ff80000
0000001ff8001ff80000
0000001ff8001ff80000
00000ffc000ffc000000
00000ffc000ffc000000
00000ffc000ffc000000
00001ff8001ff8000000
00001ff8001ff8000000
00001ff8001ff8000000
00003fffc03fffc00000
00003fffc03fffc00000
00003fffc03fffc00000
00007fff807fff800000
00007fff807fff800000
00007fff807fff800000
00000000000000000000
00000000000000000000
00000000000000000000
00000000000000000000
00000000000000000000
00000000000000000000
00000000000000000000
00000000000000000000
00000000000000000000
00000000000000000000
00000000000000000000
00000000000000000000
00000000000000000000
00000000000000000000
00000000000000000000
00000000000000000000
00000000000000000000
00000000000000000000
00000000000000000000
00000000000000000000
00000000000000000000
00000000000000000000
00000000000000000000
00000000000000000000
00000000000000000000
00000000000000000000
00000000000000000000
00000000000000000000
00000000000000000000
00000000000000000000
00000000000000000000
00000000000000000000
00000000000000000000
00000000000000000000
00000000000000000000
00000000000000000000
ENDCHAR
STARTCHAR U+201B
ENCODING 8219
SWIDTH 1000 0
DWIDTH 60 0
BBX 79 60 -9 -12
BITMAP
00000000000000000000
00000000000000000000
00000000000000000000
00000000000000000000
00000000000000000000
00000000000000000000
000000003ff000000000
000000003ff000000000
000000003ff000000000
000000007fe000000000
000000007fe000000000
000000007fe000000000
00000000ffc000000000
00000000ffc000000000
00000000ffc000000000
00000001ff8000000000
00000001ff8000000000
00000001ff8000000000
00000003ff0000000000
00000003ff0000000000
00000003ff0000000000
00000007fe0000000000
00000007fe0000000000
00000007fe0000000000
00000000000000000000
00000000000000000000
00000000000000000000
00000000000000000000
00000000000000000000
00000000000000000000
00000000000000000000
00000000000000000000
00000000000000000000
00000000000000000000
00000000000000000000
00000000000000000000
00000000000000000000
00000000000000000000
00000000000000000000
00000000000000000000
00000000000000000000
00000000000000000000
00000000000000000000
00000000000000000000
00000000000000000000
00000000000000000000
00000000000000000000
00000000000000000000
00000000000000000000
00000000000000000000
00000000000000000000
00000000000000000000
00000000000000000000
00000000000000000000
00000000000000000000
00000000000000000000
00000000000000000000
00000000000000000000
00000000000000000000
00000000000000000000
ENDCHAR
STARTCHAR U+201A
ENCODING 8218
SWIDTH 1000 0
DWIDTH 60 0
BBX 79 60 -9 -12
BITMAP
00000000000000000000
00000000000000000000
00000000000000000000
00000000000000000000
00000000000000000000
00000000000000000000
00000000000000000000
00000000000000000000
00000000000000000000
00000000000000000000
00000000000000000000
00000000000000000000
00000000000000000000
00000000000000000000
00000000000000000000
00000000000000000000
00000000000000000000
00000000000000000000
00000000000000000000
00000000000000000000
00000000000000000000
00000000000000000000
00000000000000000000
00000000000000000000
00000000000000000000
00000000000000000000
00000000000000000000
00000000000000000000
00000000000000000000
00000000000000000000
0000003ff00000000000
0000003ff00000000000
0000003ff00000000000
0000007fe00000000000
0000007fe00000000000
0000007fe00000000000
000000ffc00000000000
000000ffc00000000000
000000ffc00000000000
000001ff800000000000
000001ff800000000000
000001ff800000000000
000003ff000000000000
000003ff000000000000
000003ff000000000000
000007fe000000000000
000007fe000000000000
000007fe000000000000
00000000000000000000
00000000000000000000
00000000000000000000
00000000000000000000
00000000000000000000
00000000000000000000
00000000000000000000
00000000000000000000
00000000000000000000
00000000000000000000
00000000000000000000
00000000000000000000
ENDCHAR
STARTCHAR U+2019
ENCODING 8217
SWIDTH 1000 0
DWIDTH 60 0
BBX 79 60 -9 -12
BITMAP
00000000000000000000
00000000000000000000
00000000000000000000
00000000000000000000
00000000000000000000
00000000000000000000
000003fffc0000000000
000003fffc0000000000
000003fffc0000000000
000007fff80000000000
000007fff80000000000
000007fff80000000000
0000003ff00000000000
0000003ff00000000000
0000003ff00000000000
0000007fe00000000000
0000007fe00000000000
0000007fe00000000000
00003ff0000000000000
00003ff0000000000000
00003ff0000000000000
00007fe0000000000000
00007fe0000000000000
00007fe0000000000000
00000000000000000000
00000000000000000000
00000000000000000000
00000000000000000000
00000000000000000000
00000000000000000000
00000000000000000000
00000000000000000000
00000000000000000000
00000000000000000000
00000000000000000000
00000000000000000000
00000000000000000000
00000000000000000000
00000000000000000000
00000000000000000000
00000000000000000000
00000000000000000000
00000000000000000000
00000000000000000000
00000000000000000000
00000000000000000000
00000000000000000000
00000000000000000000
00000000000000000000
00000000000000000000
00000000000000000000
00000000000000000000
00000000000000000000
00000000000000000000
00000000000000000000
00000000000000000000
00000000000000000000
00000000000000000000
00000000000000000000
00000000000000000000
ENDCHAR
STARTCHAR U+2018
ENCODING 8216
SWIDTH 1000 0
DWIDTH 60 0
BBX 79 60 -9 -12
BITMAP
00000000000000000000
00000000000000000000
00000000000000000000
00000000000000000000
00000000000000000000
00000000000000000000
0000000000000ffc0000
0000000000000ffc0000
0000000000000ffc0000
0000000000001ff80000
0000000000001ff80000
0000000000001ff80000
00000000000ffc000000
00000000000ffc000000
00000000000ffc000000
00000000001ff8000000
00000000001ff8000000
00000000001ff8000000
00000000003fffc00000
00000000003fffc00000
00000000003fffc00000
00000000007fff800000
00000000007fff800000
00000000007fff800000
00000000000000000000
00000000000000000000
00000000000000000000
00000000000000000000
00000000000000000000
00000000000000000000
00000000000000000000
00000000000000000000
00000000000000000000
00000000000000000000
00000000000000000000
00000000000000000000
00000000000000000000
00000000000000000000
00000000000000000000
00000000000000000000
00000000000000000000
00000000000000000000
00000000000000000000
00000000000000000000
00000000000000000000
00000000000000000000
00000000000000000000
00000000000000000000
00000000000000000000
00000000000000000000
00000000000000000000
00000000000000000000
00000000000000000000
00000000000000000000
00000000000000000000
00000000000000000000
00000000000000000000
00000000000000000000
00000000000000000000
00000000000000000000
ENDCHAR
STARTCHAR U+2017
ENCODING 8215
SWIDTH 1000 0
DWIDTH 60 0
BBX 79 60 -9 -12
BITMAP
00000000000000000000
00000000000000000000
00000000000000000000
00000000000000000000
00000000000000000000
00000000000000000000
00000000000000000000
00000000000000000000
00000000000000000000
00000000000000000000
00000000000000000000
00000000000000000000
00000000000000000000
00000000000000000000
00000000000000000000
00000000000000000000
00000000000000000000
00000000000000000000
00000000000000000000
00000000000000000000
00000000000000000000
00000000000000000000
00000000000000000000
00000000000000000000
00000000000000000000
00000000000000000000
00000000000000000000
00000000000000000000
00000000000000000000
00000000000000000000
00000000000000000000
00000000000000000000
00000000000000000000
00000000000000000000
00000000000000000000
00000000000000000000
00000000000000000000
00000000000000000000
00000000000000000000
00000000000000000000
00000000000000000000
00000000000000000000
0fffffffffffc0000000
0fffffffffffc0000000
0fffffffffffc0000000
1fffffffffff80000000
1fffffffffff80000000
1fffffffffff80000000
00000000000000000000
00000000000000000000
00000000000000000000
00000000000000000000
00000000000000000000
00000000000000000000
fffffffffffc00000000
fffffffffffc00000000
fffffffffffc00000000
fffffffffff800000000
fffffffffff800000000
fffffffffff800000000
ENDCHAR
STARTCHAR U+2016
ENCODING 8214
SWIDTH 1000 0
DWIDTH 60 0
BBX 79 60 -9 -12
BITMAP
00000000000000000000
00000000000000000000
00000000000000000000
00000000000000000000
00000000000000000000
00000000000000000000
000000003ff3ff000000
000000003ff3ff000000
000000003ff3ff000000
000000007fe7fe000000
000000007fe7fe000000
000000007fe7fe000000
00000000ffcffc000000
00000000ffcffc000000
00000000ffcffc000000
00000001ff9ff8000000
00000001ff9ff8000000
00000001ff9ff8000000
00000003ff3ff0000000
00000003ff3ff0000000
00000003ff3ff0000000
00000007fe7fe0000000
00000007fe7fe0000000
00000007fe7fe0000000
0000000ffcffc0000000
0000000ffcffc0000000
0000000ffcffc0000000
0000001ff9ff80000000
0000001ff9ff80000000
0000001ff9ff80000000
0000003ff3ff00000000
0000003ff3ff00000000
0000003ff3ff00000000
0000007fe7fe00000000
0000007fe7fe00000000
0000007fe7fe00000000
000000ffcffc00000000
000000ffcffc00000000
000000ffcffc00000000
000001ff9ff800000000
000001ff9ff800000000
000001ff9ff800000000
000003ff3ff000000000
000003ff3ff000000000
000003ff3ff000000000
000007fe7fe000000000
000007fe7fe000000000
000007fe7fe000000000
00000000000000000000
00000000000000000000
00000000000000000000
00000000000000000000
00000000000000000000
00000000000000000000
00000000000000000000
00000000000000000000
00000000000000000000
00000000000000000000
00000000000000000000
00000000000000000000
ENDCHAR
STARTCHAR U+2015
ENCODING 8213
SWIDTH 1000 0
DWIDTH 60 0
BBX 79 60 -9 -12
BITMAP
00000000000000000000
00000000000000000000
00000000000000000000
00000000000000000000
00000000000000000000
00000000000000000000
00000000000000000000
00000000000000000000
00000000000000000000
00000000000000000000
00000000000000000000
00000000000000000000
00000000000000000000
00000000000000000000
00000000000000000000
00000000000000000000
00000000000000000000
00000000000000000000
00000000000000000000
00000000000000000000
00000000000000000000
00000000000000000000
00000000000000000000
00000000000000000000
003ffffffffffffffe00
003ffffffffffffffe00
003ffffffffffffffe00
007ffffffffffffffc00
007ffffffffffffffc00
007ffffffffffffffc00
00000000000000000000
00000000000000000000
00000000000000000000
00000000000000000000
00000000000000000000
00000000000000000000
00000000000000000000
00000000000000000000
00000000000000000000
00000000000000000000
00000000000000000000
00000000000000000000
00000000000000000000
00000000000000000000
00000000000000000000
00000000000000000000
00000000000000000000
00000000000000000000
00000000000000000000
00000000000000000000
00000000000000000000
00000000000000000000
00000000000000000000
00000000000000000000
00000000000000000000
00000000000000000000
00000000000000000000
00000000000000000000
00000000000000000000
00000000000000000000
ENDCHAR
STARTCHAR U+2014
ENCODING 8212
SWIDTH 1000 0
DWIDTH 60 0
BBX 79 60 -9 -12
BITMAP
00000000000000000000
00000000000000000000
00000000000000000000
00000000000000000000
00000000000000000000
00000000000000000000
00000000000000000000
00000000000000000000
00000000000000000000
00000000000000000000
00000000000000000000
00000000000000000000
00000000000000000000
00000000000000000000
00000000000000000000
00000000000000000000
00000000000000000000
00000000000000000000
00000000000000000000
00000000000000000000
00000000000000000000
00000000000000000000
00000000000000000000
00000000000000000000
003fffffffffff000000
003fffffffffff000000
003fffffffffff000000
007ffffffffffe000000
007ffffffffffe000000
007ffffffffffe000000
00000000000000000000
00000000000000000000
00000000000000000000
00000000000000000000
00000000000000000000
00000000000000000000
00000000000000000000
00000000000000000000
00000000000000000000
00000000000000000000
00000000000000000000
00000000000000000000
00000000000000000000
00000000000000000000
00000000000000000000
00000000000000000000
00000000000000000000
00000000000000000000
00000000000000000000
00000000000000000000
00000000000000000000
00000000000000000000
00000000000000000000
00000000000000000000
00000000000000000000
00000000000000000000
00000000000000000000
00000000000000000000
00000000000000000000
00000000000000000000
ENDCHAR
STARTCHAR U+2013
ENCODING 8211
SWIDTH 1000 0
DWIDTH 60 0
BBX 79 60 -9 -12
BITMAP
00000000000000000000
00000000000000000000
00000000000000000000
00000000000000000000
00000000000000000000
00000000000000000000
00000000000000000000
00000000000000000000
00000000000000000000
00000000000000000000
00000000000000000000
00000000000000000000
00000000000000000000
00000000000000000000
00000000000000000000
00000000000000000000
00000000000000000000
00000000000000000000
00000000000000000000
00000000000000000000
00000000000000000000
00000000000000000000
00000000000000000000
00000000000000000000
000003ffffffc0000000
000003ffffffc0000000
000003ffffffc0000000
000007ffffff80000000
000007ffffff80000000
000007ffffff80000000
00000000000000000000
00000000000000000000
00000000000000000000
00000000000000000000
00000000000000000000
00000000000000000000
00000000000000000000
00000000000000000000
00000000000000000000
00000000000000000000
00000000000000000000
00000000000000000000
00000000000000000000
00000000000000000000
00000000000000000000
00000000000000000000
00000000000000000000
00000000000000000000
00000000000000000000
00000000000000000000
00000000000000000000
00000000000000000000
00000000000000000000
00000000000000000000
00000000000000000000
00000000000000000000
00000000000000000000
00000000000000000000
00000000000000000000
00000000000000000000
ENDCHAR
STARTCHAR U+2012
ENCODING 8210
SWIDTH 1000 0
DWIDTH 60 0
BBX 79 60 -9 -12
BITMAP
00000000000000000000
00000000000000000000
00000000000000000000
00000000000000000000
00000000000000000000
00000000000000000000
00000000000000000000
00000000000000000000
00000000000000000000
00000000000000000000
00000000000000000000
00000000000000000000
00000000000000000000
00000000000000000000
00000000000000000000
00000000000000000000
00000000000000000000
00000000000000000000
00000000000000000000
00000000000000000000
00000000000000000000
00000000000000000000
00000000000000000000
00000000000000000000
0000ffffffffc0000000
0000ffffffffc0000000
0000ffffffffc0000000
0001ffffffff80000000
0001ffffffff80000000
0001ffffffff80000000
00000000000000000000
00000000000000000000
00000000000000000000
00000000000000000000
00000000000000000000
00000000000000000000
00000000000000000000
00000000000000000000
00000000000000000000
00000000000000000000
00000000000000000000
00000000000000000000
00000000000000000000
00000000000000000000
00000000000000000000
00000000000000000000
00000000000000000000
00000000000000000000
00000000000000000000
00000000000000000000
00000000000000000000
00000000000000000000
00000000000000000000
00000000000000000000
00000000000000000000
00000000000000000000
00000000000000000000
00000000000000000000
00000000000000000000
00000000000000000000
ENDCHAR
STARTCHAR U+2011
ENCODING 8209
SWIDTH 1000 0
DWIDTH 60 0
BBX 79 60 -9 -12
BITMAP
00000000000000000000
00000000000000000000
00000000000000000000
00000000000000000000
00000000000000000000
00000000000000000000
00000000000000000000
00000000000000000000
00000000000000000000
00000000000000000000
00000000000000000000
00000000000000000000
00000000000000000000
00000000000000000000
00000000000000000000
00000000000000000000
00000000000000000000
00000000000000000000
00000000000000000000
00000000000000000000
00000000000000000000
00000000000000000000
00000000000000000000
00000000000000000000
000003fffff000000000
000003fffff000000000
000003fffff000000000
000007ffffe000000000
000007ffffe000000000
000007ffffe000000000
00000000000000000000
00000000000000000000
00000000000000000000
00000000000000000000
00000000000000000000
00000000000000000000
00000000000000000000
00000000000000000000
00000000000000000000
00000000000000000000
00000000000000000000
00000000000000000000
00000000000000000000
00000000000000000000
00000000000000000000
00000000000000000000
00000000000000000000
00000000000000000000
00000000000000000000
00000000000000000000
00000000000000000000
00000000000000000000
00000000000000000000
00000000000000000000
00000000000000000000
00000000000000000000
00000000000000000000
00000000000000000000
00000000000000000000
00000000000000000000
ENDCHAR
STARTCHAR U+2010
ENCODING 8208
SWIDTH 1000 0
DWIDTH 60 0
BBX 79 60 -9 -12
BITMAP
00000000000000000000
00000000000000000000
00000000000000000000
00000000000000000000
00000000000000000000
00000000000000000000
00000000000000000000
00000000000000000000
00000000000000000000
00000000000000000000
00000000000000000000
00000000000000000000
00000000000000000000
00000000000000000000
00000000000000000000
00000000000000000000
00000000000000000000
00000000000000000000
00000000000000000000
00000000000000000000
00000000000000000000
00000000000000000000
00000000000000000000
00000000000000000000
000003fffff000000000
000003fffff000000000
000003fffff000000000
000007ffffe000000000
000007ffffe000000000
000007ffffe000000000
00000000000000000000
00000000000000000000
00000000000000000000
00000000000000000000
00000000000000000000
00000000000000000000
00000000000000000000
00000000000000000000
00000000000000000000
00000000000000000000
00000000000000000000
00000000000000000000
00000000000000000000
00000000000000000000
00000000000000000000
00000000000000000000
00000000000000000000
00000000000000000000
00000000000000000000
00000000000000000000
00000000000000000000
00000000000000000000
00000000000000000000
00000000000000000000
00000000000000000000
00000000000000000000
00000000000000000000
00000000000000000000
00000000000000000000
00000000000000000000
ENDCHAR
STARTCHAR U+007F
ENCODING 127
SWIDTH 1000 0
DWIDTH 60 0
BBX 79 60 -9 -12
BITMAP
00000000000000000000
00000000000000000000
00000000000000000000
00000000000000000000
00000000000000000000
00000000000000000000
0000fffffc0000000000
0000fffffc0000000000
0000fffffc0000000000
0001fffff80000000000
0001fffff80000000000
0001fffff80000000000
0003ff00ffc000000000
0003ff00ffc000000000
0003ff00ffc000000000
0007fe01ff8000000000
0007fe01ff8000000000
0007fe01ff8000000000
000ffc03ff0000000000
000ffc03ff0000000000
000ffc03ff0000000000
001ff807fe0000000000
001ff807fe0000000000
001ff807fe0000000000
003ff00ffc0000000000
003ff00ffc0000000000
003ff00ffc0000000000
007fe01ff80000000000
007fe01ff80000000000
007fe01ff80000000000
00ffffffffc000000000
00ffffffffc000000000
00ffffffffc000000000
01ffffffff8000000000
01ffffffff8000000000
01ffffffff8000000000
00003ff0000000000000
00003ff0000000000000
00003ff0000000000000
00007fe0000000000000
00007fe0000000000000
00007fe0000000000000
0000ffc0000000000000
0000ffc0000000000000
0000ffc0000000000000
0001ff80000000000000
0001ff80000000000000
0001ff80000000000000
0003ff00000000000000
0003ff00000000000000
0003ff00000000000000
0007fe00000000000000
0007fe00000000000000
0007fe00000000000000
000ffc00000000000000
000ffc00000000000000
000ffc00000000000000
001ff800000000000000
001ff800000000000000
001ff800000000000000
ENDCHAR
STARTCHAR U+007E
ENCODING 126
SWIDTH 1000 0
DWIDTH 60 0
BBX 79 60 -9 -12
BITMAP
00000000000000000000
00000000000000000000
00000000000000000000
00000000000000000000
00000000000000000000
00000000000000000000
000003fffc000ffc0000
000003fffc000ffc0000
000003fffc000ffc0000
000007fff8001ff80000
000007fff8001ff80000
000007fff8001ff80000
0003ff00ffc03ff00000
0003ff00ffc03ff00000
0003ff00ffc03ff00000
0007fe01ff807fe00000
0007fe01ff807fe00000
0007fe01ff807fe00000
000ffc000ffff0000000
000ffc000ffff0000000
000ffc000ffff0000000
001ff8001fffe0000000
001ff8001fffe0000000
001ff8001fffe0000000
00000000000000000000
00000000000000000000
00000000000000000000
00000000000000000000
00000000000000000000
00000000000000000000
00000000000000000000
00000000000000000000
00000000000000000000
00000000000000000000
00000000000000000000
00000000000000000000
00000000000000000000
00000000000000000000
00000000000000000000
00000000000000000000
00000000000000000000
00000000000000000000
00000000000000000000
00000000000000000000
00000000000000000000
00000000000000000000
00000000000000000000
00000000000000000000
00000000000000000000
00000000000000000000
00000000000000000000
00000000000000000000
00000000000000000000
00000000000000000000
00000000000000000000
00000000000000000000
00000000000000000000
00000000000000000000
00000000000000000000
00000000000000000000
ENDCHAR
STARTCHAR U+007D
ENCODING 125
SWIDTH 1000 0
DWIDTH 60 0
BBX 79 60 -9 -12
BITMAP
00000000000000000000
00000000000000000000
00000000000000000000
00000000000000000000
00000000000000000000
00000000000000000000
0000fffffc0000000000
0000fffffc0000000000
0000fffffc0000000000
0001fffff80000000000
0001fffff80000000000
0001fffff80000000000
00000000ffc000000000
00000000ffc000000000
00000000ffc000000000
00000001ff8000000000
00000001ff8000000000
00000001ff8000000000
000000ffc00000000000
000000ffc00000000000
000000ffc00000000000
000001ff800000000000
000001ff800000000000
000001ff800000000000
0000000ffff000000000
0000000ffff000000000
0000000ffff000000000
0000001fffe000000000
0000001fffe000000000
0000001fffe000000000
00000ffc000000000000
00000ffc000000000000
00000ffc000000000000
00001ff8000000000000
00001ff8000000000000
00001ff8000000000000
000000ffc00000000000
000000ffc00000000000
000000ffc00000000000
000001ff800000000000
000001ff800000000000
000001ff800000000000
0fffffc0000000000000
0fffffc0000000000000
0fffffc0000000000000
1fffff80000000000000
1fffff80000000000000
1fffff80000000000000
00000000000000000000
00000000000000000000
00000000000000000000
00000000000000000000
00000000000000000000
00000000000000000000
00000000000000000000
00000000000000000000
00000000000000000000
00000000000000000000
00000000000000000000
00000000000000000000
ENDCHAR
STARTCHAR U+007C
ENCODING 124
SWIDTH 1000 0
DWIDTH 60 0
BBX 79 60 -9 -12
BITMAP
00000000000000000000
00000000000000000000
00000000000000000000
00000000000000000000
00000000000000000000
00000000000000000000
000000003ff000000000
000000003ff000000000
000000003ff000000000
000000007fe000000000
000000007fe000000000
000000007fe000000000
00000000ffc000000000
00000000ffc000000000
00000000ffc000000000
00000001ff8000000000
00000001ff8000000000
00000001ff8000000000
00000003ff0000000000
00000003ff0000000000
00000003ff0000000000
00000007fe0000000000
00000007fe0000000000
00000007fe0000000000
0000000ffc0000000000
0000000ffc0000000000
0000000ffc0000000000
0000001ff80000000000
0000001ff80000000000
0000001ff80000000000
0000003ff00000000000
0000003ff00000000000
0000003ff00000000000
0000007fe00000000000
0000007fe00000000000
0000007fe00000000000
000000ffc00000000000
000000ffc00000000000
000000ffc00000000000
000001ff800000000000
000001ff800000000000
000001ff800000000000
000003ff000000000000
000003ff000000000000
000003ff000000000000
000007fe000000000000
000007fe000000000000
000007fe000000000000
00000000000000000000
00000000000000000000
00000000000000000000
00000000000000000000
00000000000000000000
00000000000000000000
00000000000000000000
00000000000000000000
00000000000000000000
00000000000000000000
00000000000000000000
00000000000000000000
ENDCHAR
STARTCHAR U+007B
ENCODING 123
SWIDTH 1000 0
DWIDTH 60 0
BBX 79 60 -9 -12
BITMAP
00000000000000000000
00000000000000000000
00000000000000000000
00000000000000000000
00000000000000000000
00000000000000000000
0000000000fffffc0000
0000000000fffffc0000
0000000000fffffc0000
0000000001fffff80000
0000000001fffff80000
0000000001fffff80000
00000000ffc000000000
00000000ffc000000000
00000000ffc000000000
00000001ff8000000000
00000001ff8000000000
00000001ff8000000000
000000000ffc00000000
000000000ffc00000000
000000000ffc00000000
000000001ff800000000
000000001ff800000000
000000001ff800000000
000003fffc0000000000
000003fffc0000000000
000003fffc0000000000
000007fff80000000000
000007fff80000000000
000007fff80000000000
00000000ffc000000000
00000000ffc000000000
00000000ffc000000000
00000001ff8000000000
00000001ff8000000000
00000001ff8000000000
000000ffc00000000000
000000ffc00000000000
000000ffc00000000000
000001ff800000000000
000001ff800000000000
000001ff800000000000
0000000fffffc0000000
0000000fffffc0000000
0000000fffffc0000000
0000001fffff80000000
0000001fffff80000000
0000001fffff80000000
00000000000000000000
00000000000000000000
00000000000000000000
00000000000000000000
00000000000000000000
00000000000000000000
00000000000000000000
00000000000000000000
00000000000000000000
00000000000000000000
00000000000000000000
00000000000000000000
ENDCHAR
STARTCHAR U+007A
ENCODING 122
SWIDTH 1000 0
DWIDTH 60 0
BBX 79 60 -9 -12
BITMAP
00000000000000000000
00000000000000000000
00000000000000000000
00000000000000000000
00000000000000000000
00000000000000000000
00000000000000000000
00000000000000000000
00000000000000000000
00000000000000000000
00000000000000000000
00000000000000000000
00000000000000000000
00000000000000000000
00000000000000000000
00000000000000000000
00000000000000000000
00000000000000000000
000fffffffffffc00000
000fffffffffffc00000
000fffffffffffc00000
001fffffffffff800000
001fffffffffff800000
001fffffffffff800000
0000000000ffc0000000
0000000000ffc0000000
0000000000ffc0000000
0000000001ff80000000
0000000001ff80000000
0000000001ff80000000
0000003fffc000000000
0000003fffc000000000
0000003fffc000000000
0000007fff8000000000
0000007fff8000000000
0000007fff8000000000
00003ff0000000000000
00003ff0000000000000
00003ff0000000000000
00007fe0000000000000
00007fe0000000000000
00007fe0000000000000
0fffffffffffc0000000
0fffffffffffc0000000
0fffffffffffc0000000
1fffffffffff80000000
1fffffffffff80000000
1fffffffffff80000000
00000000000000000000
00000000000000000000
00000000000000000000
00000000000000000000
00000000000000000000
00000000000000000000
00000000000000000000
00000000000000000000
00000000000000000000
00000000000000000000
00000000000000000000
00000000000000000000
ENDCHAR
STARTCHAR U+0079
ENCODING 121
SWIDTH 1000 0
DWIDTH 60 0
BBX 79 60 -9 -12
BITMAP
00000000000000000000
00000000000000000000
00000000000000000000
00000000000000000000
00000000000000000000
00000000000000000000
00000000000000000000
00000000000000000000
00000000000000000000
00000000000000000000
00000000000000000000
00000000000000000000
00000000000000000000
00000000000000000000
00000000000000000000
00000000000000000000
00000000000000000000
00000000000000000000
000ffc00003ff0000000
000ffc00003ff0000000
000ffc00003ff0000000
001ff800007fe0000000
001ff800007fe0000000
001ff800007fe0000000
003ff00000ffc0000000
003ff00000ffc0000000
003ff00000ffc0000000
007fe00001ff80000000
007fe00001ff80000000
007fe00001ff80000000
00ffc000ffff00000000
00ffc000ffff00000000
00ffc000ffff00000000
01ff8001fffe00000000
01ff8001fffe00000000
01ff8001fffe00000000
000fffffcffc00000000
000fffffcffc00000000
000fffffcffc00000000
001fffff9ff800000000
001fffff9ff800000000
001fffff9ff800000000
000000003ff000000000
000000003ff000000000
000000003ff000000000
000000007fe000000000
000000007fe000000000
000000007fe000000000
3ff00000ffc000000000
3ff00000ffc000000000
3ff00000ffc000000000
7fe00001ff8000000000
7fe00001ff8000000000
7fe00001ff8000000000
03ffffffc00000000000
03ffffffc00000000000
03ffffffc00000000000
07ffffff800000000000
07ffffff800000000000
07ffffff800000000000
ENDCHAR
STARTCHAR U+0078
ENCODING 120
SWIDTH 1000 0
DWIDTH 60 0
BBX 79 60 -9 -12
BITMAP
00000000000000000000
00000000000000000000
00000000000000000000
00000000000000000000
00000000000000000000
00000000000000000000
00000000000000000000
00000000000000000000
00000000000000000000
00000000000000000000
00000000000000000000
00000000000000000000
00000000000000000000
00000000000000000000
00000000000000000000
00000000000000000000
00000000000000000000
00000000000000000000
000ffc00003ff0000000
000ffc00003ff0000000
000ffc00003ff0000000
001ff800007fe0000000
001ff800007fe0000000
001ff800007fe0000000
0000ffc03ff000000000
0000ffc03ff000000000
0000ffc03ff000000000
0001ff807fe000000000
0001ff807fe000000000
0001ff807fe000000000
00000ffff00000000000
00000ffff00000000000
00000ffff00000000000
00001fffe00000000000
00001fffe00000000000
00001fffe00000000000
000ffc03ff0000000000
000ffc03ff0000000000
000ffc03ff0000000000
001ff807fe0000000000
001ff807fe0000000000
001ff807fe0000000000
0ffc00003ff000000000
0ffc00003ff000000000
0ffc00003ff000000000
1ff800007fe000000000
1ff800007fe000000000
1ff800007fe000000000
00000000000000000000
00000000000000000000
00000000000000000000
00000000000000000000
00000000000000000000
00000000000000000000
00000000000000000000
00000000000000000000
00000000000000000000
00000000000000000000
00000000000000000000
00000000000000000000
ENDCHAR
STARTCHAR U+0077
ENCODING 119
SWIDTH 1000 0
DWIDTH 60 0
BBX 79 60 -9 -12
BITMAP
00000000000000000000
00000000000000000000
00000000000000000000
00000000000000000000
00000000000000000000
00000000000000000000
00000000000000000000
00000000000000000000
00000000000000000000
00000000000000000000
00000000000000000000
00000000000000000000
00000000000000000000
00000000000000000000
00000000000000000000
00000000000000000000
00000000000000000000
00000000000000000000
000ffc000000ffc00000
000ffc000000ffc00000
000ffc000000ffc00000
001ff8000001ff800000
001ff8000001ff800000
001ff8000001ff800000
003ff0000003ff000000
003ff0000003ff000000
003ff0000003ff000000
007fe0000007fe000000
007fe0000007fe000000
007fe0000007fe000000
00ffc03ff00ffc000000
00ffc03ff00ffc000000
00ffc03ff00ffc000000
01ff807fe01ff8000000
01ff807fe01ff8000000
01ff807fe01ff8000000
03ff3ff3ff3ff0000000
03ff3ff3ff3ff0000000
03ff3ff3ff3ff0000000
07fe7fe7fe7fe0000000
07fe7fe7fe7fe0000000
07fe7fe7fe7fe0000000
003ff0003ff000000000
003ff0003ff000000000
003ff0003ff000000000
007fe0007fe000000000
007fe0007fe000000000
007fe0007fe000000000
00000000000000000000
00000000000000000000
00000000000000000000
00000000000000000000
00000000000000000000
00000000000000000000
00000000000000000000
00000000000000000000
00000000000000000000
00000000000000000000
00000000000000000000
00000000000000000000
ENDCHAR
STARTCHAR U+0076
ENCODING 118
SWIDTH 1000 0
DWIDTH 60 0
BBX 79 60 -9 -12
BITMAP
00000000000000000000
00000000000000000000
00000000000000000000
00000000000000000000
00000000000000000000
00000000000000000000
00000000000000000000
00000000000000000000
00000000000000000000
00000000000000000000
00000000000000000000
00000000000000000000
00000000000000000000
00000000000000000000
00000000000000000000
00000000000000000000
00000000000000000000
00000000000000000000
000ffc000000ffc00000
000ffc000000ffc00000
000ffc000000ffc00000
001ff8000001ff800000
001ff8000001ff800000
001ff8000001ff800000
003ff0000003ff000000
003ff0000003ff000000
003ff0000003ff000000
007fe0000007fe000000
007fe0000007fe000000
007fe0000007fe000000
0003ff0003ff00000000
0003ff0003ff00000000
0003ff0003ff00000000
0007fe0007fe00000000
0007fe0007fe00000000
0007fe0007fe00000000
00003ff3ff0000000000
00003ff3ff0000000000
00003ff3ff0000000000
00007fe7fe0000000000
00007fe7fe0000000000
00007fe7fe0000000000
000003ff000000000000
000003ff000000000000
000003ff000000000000
000007fe000000000000
000007fe000000000000
000007fe000000000000
00000000000000000000
00000000000000000000
00000000000000000000
00000000000000000000
00000000000000000000
00000000000000000000
00000000000000000000
00000000000000000000
00000000000000000000
00000000000000000000
00000000000000000000
00000000000000000000
ENDCHAR
STARTCHAR U+0075
ENCODING 117
SWIDTH 1000 0
DWIDTH 60 0
BBX 79 60 -9 -12
BITMAP
00000000000000000000
00000000000000000000
00000000000000000000
00000000000000000000
00000000000000000000
00000000000000000000
00000000000000000000
00000000000000000000
00000000000000000000
00000000000000000000
00000000000000000000
00000000000000000000
00000000000000000000
00000000000000000000
00000000000000000000
00000000000000000000
00000000000000000000
00000000000000000000
000ffc00003ff0000000
000ffc00003ff0000000
000ffc00003ff0000000
001ff800007fe0000000
001ff800007fe0000000
001ff800007fe0000000
003ff00000ffc0000000
003ff00000ffc0000000
003ff00000ffc0000000
007fe00001ff80000000
007fe00001ff80000000
007fe00001ff80000000
00ffc00003ff00000000
00ffc00003ff00000000
00ffc00003ff00000000
01ff800007fe00000000
01ff800007fe00000000
01ff800007fe00000000
03ff00000ffc00000000
03ff00000ffc00000000
03ff00000ffc00000000
07fe00001ff800000000
07fe00001ff800000000
07fe00001ff800000000
003ffffffcffc0000000
003ffffffcffc0000000
003ffffffcffc0000000
007ffffff9ff80000000
007ffffff9ff80000000
007ffffff9ff80000000
00000000000000000000
00000000000000000000
00000000000000000000
00000000000000000000
00000000000000000000
00000000000000000000
00000000000000000000
00000000000000000000
00000000000000000000
00000000000000000000
00000000000000000000
00000000000000000000
ENDCHAR
STARTCHAR U+0074
ENCODING 116
SWIDTH 1000 0
DWIDTH 60 0
BBX 79 60 -9 -12
BITMAP
00000000000000000000
00000000000000000000
00000000000000000000
00000000000000000000
00000000000000000000
00000000000000000000
0000000ffc0000000000
0000000ffc0000000000
0000000ffc0000000000
0000001ff80000000000
0000001ff80000000000
0000001ff80000000000
0000003ff00000000000
0000003ff00000000000
0000003ff00000000000
0000007fe00000000000
0000007fe00000000000
0000007fe00000000000
000ffffffffc00000000
000ffffffffc00000000
000ffffffffc00000000
001ffffffff800000000
001ffffffff800000000
001ffffffff800000000
000003ff000000000000
000003ff000000000000
000003ff000000000000
000007fe000000000000
000007fe000000000000
000007fe000000000000
00000ffc000000000000
00000ffc000000000000
00000ffc000000000000
00001ff8000000000000
00001ff8000000000000
00001ff8000000000000
00003ff00ffc00000000
00003ff00ffc00000000
00003ff00ffc00000000
00007fe01ff800000000
00007fe01ff800000000
00007fe01ff800000000
000003fffc0000000000
000003fffc0000000000
000003fffc0000000000
000007fff80000000000
000007fff80000000000
000007fff80000000000
00000000000000000000
00000000000000000000
00000000000000000000
00000000000000000000
00000000000000000000
00000000000000000000
00000000000000000000
00000000000000000000
00000000000000000000
00000000000000000000
00000000000000000000
00000000000000000000
ENDCHAR
STARTCHAR U+0073
ENCODING 115
SWIDTH 1000 0
DWIDTH 60 0
BBX 79 60 -9 -12
BITMAP
00000000000000000000
00000000000000000000
00000000000000000000
00000000000000000000
00000000000000000000
00000000000000000000
00000000000000000000
00000000000000000000
00000000000000000000
00000000000000000000
00000000000000000000
00000000000000000000
00000000000000000000
00000000000000000000
00000000000000000000
00000000000000000000
00000000000000000000
00000000000000000000
00003ffffffff0000000
00003ffffffff0000000
00003ffffffff0000000
00007fffffffe0000000
00007fffffffe0000000
00007fffffffe0000000
003ff000000000000000
003ff000000000000000
003ff000000000000000
007fe000000000000000
007fe000000000000000
007fe000000000000000
0003ffffffff00000000
0003ffffffff00000000
0003ffffffff00000000
0007fffffffe00000000
0007fffffffe00000000
0007fffffffe00000000
00000000003ff0000000
00000000003ff0000000
00000000003ff0000000
00000000007fe0000000
00000000007fe0000000
00000000007fe0000000
0ffffffffff000000000
0ffffffffff000000000
0ffffffffff000000000
1fffffffffe000000000
1fffffffffe000000000
1fffffffffe000000000
00000000000000000000
00000000000000000000
00000000000000000000
00000000000000000000
00000000000000000000
00000000000000000000
00000000000000000000
00000000000000000000
00000000000000000000
00000000000000000000
00000000000000000000
00000000000000000000
ENDCHAR
STARTCHAR U+0072
ENCODING 114
SWIDTH 1000 0
DWIDTH 60 0
BBX 79 60 -9 -12
BITMAP
00000000000000000000
00000000000000000000
00000000000000000000
00000000000000000000
00000000000000000000
00000000000000000000
00000000000000000000
00000000000000000000
00000000000000000000
00000000000000000000
00000000000000000000
00000000000000000000
00000000000000000000
00000000000000000000
00000000000000000000
00000000000000000000
00000000000000000000
00000000000000000000
000ffc03fffff0000000
000ffc03fffff0000000
000ffc03fffff0000000
001ff807ffffe0000000
001ff807ffffe0000000
001ff807ffffe0000000
0000ffff0003ff000000
0000ffff0003ff000000
0000ffff0003ff000000
0001fffe0007fe000000
0001fffe0007fe000000
0001fffe0007fe000000
0003ff00000000000000
0003ff00000000000000
0003ff00000000000000
0007fe00000000000000
0007fe00000000000000
0007fe00000000000000
000ffc00000000000000
000ffc00000000000000
000ffc00000000000000
001ff800000000000000
001ff800000000000000
001ff800000000000000
003ff000000000000000
003ff000000000000000
003ff000000000000000
007fe000000000000000
007fe000000000000000
007fe000000000000000
00000000000000000000
00000000000000000000
00000000000000000000
00000000000000000000
00000000000000000000
00000000000000000000
00000000000000000000
00000000000000000000
00000000000000000000
00000000000000000000
00000000000000000000
00000000000000000000
ENDCHAR
STARTCHAR U+0071
ENCODING 113
SWIDTH 1000 0
DWIDTH 60 0
BBX 79 60 -9 -12
BITMAP
00000000000000000000
00000000000000000000
00000000000000000000
00000000000000000000
00000000000000000000
00000000000000000000
00000000000000000000
00000000000000000000
00000000000000000000
00000000000000000000
00000000000000000000
00000000000000000000
00000000000000000000
00000000000000000000
00000000000000000000
00000000000000000000
00000000000000000000
00000000000000000000
00003ffffffcffc00000
00003ffffffcffc00000
00003ffffffcffc00000
00007ffffff9ff800000
00007ffffff9ff800000
00007ffffff9ff800000
003ff00000ffff000000
003ff00000ffff000000
003ff00000ffff000000
007fe00001fffe000000
007fe00001fffe000000
007fe00001fffe000000
00ffc00003fffc000000
00ffc00003fffc000000
00ffc00003fffc000000
01ff800007fff8000000
01ff800007fff8000000
01ff800007fff8000000
000fffffff3ff0000000
000fffffff3ff0000000
000fffffff3ff0000000
001ffffffe7fe0000000
001ffffffe7fe0000000
001ffffffe7fe0000000
0000000000ffc0000000
0000000000ffc0000000
0000000000ffc0000000
0000000001ff80000000
0000000001ff80000000
0000000001ff80000000
0000000003ff00000000
0000000003ff00000000
0000000003ff00000000
0000000007fe00000000
0000000007fe00000000
0000000007fe00000000
000000000ffc00000000
000000000ffc00000000
000000000ffc00000000
000000001ff800000000
000000001ff800000000
000000001ff800000000
ENDCHAR
STARTCHAR U+0070
ENCODING 112
SWIDTH 1000 0
DWIDTH 60 0
BBX 79 60 -9 -12
BITMAP
00000000000000000000
00000000000000000000
00000000000000000000
00000000000000000000
00000000000000000000
00000000000000000000
00000000000000000000
00000000000000000000
00000000000000000000
00000000000000000000
00000000000000000000
00000000000000000000
00000000000000000000
00000000000000000000
00000000000000000000
00000000000000000000
00000000000000000000
00000000000000000000
000ffcfffffff0000000
000ffcfffffff0000000
000ffcfffffff0000000
001ff9ffffffe0000000
001ff9ffffffe0000000
001ff9ffffffe0000000
003fffc00003ff000000
003fffc00003ff000000
003fffc00003ff000000
007fff800007fe000000
007fff800007fe000000
007fff800007fe000000
00ffff00000ffc000000
00ffff00000ffc000000
00ffff00000ffc000000
01fffe00001ff8000000
01fffe00001ff8000000
01fffe00001ff8000000
03ff3ffffffc00000000
03ff3ffffffc00000000
03ff3ffffffc00000000
07fe7ffffff800000000
07fe7ffffff800000000
07fe7ffffff800000000
0ffc0000000000000000
0ffc0000000000000000
0ffc0000000000000000
1ff80000000000000000
1ff80000000000000000
1ff80000000000000000
3ff00000000000000000
3ff00000000000000000
3ff00000000000000000
7fe00000000000000000
7fe00000000000000000
7fe00000000000000000
ffc00000000000000000
ffc00000000000000000
ffc00000000000000000
ff800000000000000000
ff800000000000000000
ff800000000000000000
ENDCHAR
STARTCHAR U+006f
ENCODING 111
SWIDTH 1000 0
DWIDTH 60 0
BBX 79 60 -9 -12
BITMAP
00000000000000000000
00000000000000000000
00000000000000000000
00000000000000000000
00000000000000000000
00000000000000000000
00000000000000000000
00000000000000000000
00000000000000000000
00000000000000000000
00000000000000000000
00000000000000000000
00000000000000000000
00000000000000000000
00000000000000000000
00000000000000000000
00000000000000000000
00000000000000000000
00003ffffffff0000000
00003ffffffff0000000
00003ffffffff0000000
00007fffffffe0000000
00007fffffffe0000000
00007fffffffe0000000
003ff0000003ff000000
003ff0000003ff000000
003ff0000003ff000000
007fe0000007fe000000
007fe0000007fe000000
007fe0000007fe000000
00ffc000000ffc000000
00ffc000000ffc000000
00ffc000000ffc000000
01ff8000001ff8000000
01ff8000001ff8000000
01ff8000001ff8000000
03ff0000003ff0000000
03ff0000003ff0000000
03ff0000003ff0000000
07fe0000007fe0000000
07fe0000007fe0000000
07fe0000007fe0000000
003ffffffff000000000
003ffffffff000000000
003ffffffff000000000
007fffffffe000000000
007fffffffe000000000
007fffffffe000000000
00000000000000000000
00000000000000000000
00000000000000000000
00000000000000000000
00000000000000000000
00000000000000000000
00000000000000000000
00000000000000000000
00000000000000000000
00000000000000000000
00000000000000000000
00000000000000000000
ENDCHAR
STARTCHAR U+006e
ENCODING 110
SWIDTH 1000 0
DWIDTH 60 0
BBX 79 60 -9 -12
BITMAP
00000000000000000000
00000000000000000000
00000000000000000000
00000000000000000000
00000000000000000000
00000000000000000000
00000000000000000000
00000000000000000000
00000000000000000000
00000000000000000000
00000000000000000000
00000000000000000000
00000000000000000000
00000000000000000000
00000000000000000000
00000000000000000000
00000000000000000000
00000000000000000000
000ffcfffffff0000000
000ffcfffffff0000000
000ffcfffffff0000000
001ff9ffffffe0000000
001ff9ffffffe0000000
001ff9ffffffe0000000
003fffc00003ff000000
003fffc00003ff000000
003fffc00003ff000000
007fff800007fe000000
007fff800007fe000000
007fff800007fe000000
00ffc000000ffc000000
00ffc000000ffc000000
00ffc000000ffc000000
01ff8000001ff8000000
01ff8000001ff8000000
01ff8000001ff8000000
03ff0000003ff0000000
03ff0000003ff0000000
03ff0000003ff0000000
07fe0000007fe0000000
07fe0000007fe0000000
07fe0000007fe0000000
0ffc000000ffc0000000
0ffc000000ffc0000000
0ffc000000ffc0000000
1ff8000001ff80000000
1ff8000001ff80000000
1ff8000001ff80000000
00000000000000000000
00000000000000000000
00000000000000000000
00000000000000000000
00000000000000000000
00000000000000000000
00000000000000000000
00000000000000000000
00000000000000000000
00000000000000000000
00000000000000000000
00000000000000000000
ENDCHAR
STARTCHAR U+006d
ENCODING 109
SWIDTH 1000 0
DWIDTH 60 0
BBX 79 60 -9 -12
BITMAP
00000000000000000000
00000000000000000000
00000000000000000000
00000000000000000000
00000000000000000000
00000000000000000000
00000000000000000000
00000000000000000000
00000000000000000000
00000000000000000000
00000000000000000000
00000000000000000000
00000000000000000000
00000000000000000000
00000000000000000000
00000000000000000000
00000000000000000000
00000000000000000000
000ffff0003ff0000000
000ffff0003ff0000000
000ffff0003ff0000000
001fffe0007fe0000000
001fffe0007fe0000000
001fffe0007fe0000000
003ff3ff3ff3ff000000
003ff3ff3ff3ff000000
003ff3ff3ff3ff000000
007fe7fe7fe7fe000000
007fe7fe7fe7fe000000
007fe7fe7fe7fe000000
00ffc03ff00ffc000000
00ffc03ff00ffc000000
00ffc03ff00ffc000000
01ff807fe01ff8000000
01ff807fe01ff8000000
01ff807fe01ff8000000
03ff00ffc03ff0000000
03ff00ffc03ff0000000
03ff00ffc03ff0000000
07fe01ff807fe0000000
07fe01ff807fe0000000
07fe01ff807fe0000000
0ffc000000ffc0000000
0ffc000000ffc0000000
0ffc000000ffc0000000
1ff8000001ff80000000
1ff8000001ff80000000
1ff8000001ff80000000
00000000000000000000
00000000000000000000
00000000000000000000
00000000000000000000
00000000000000000000
00000000000000000000
00000000000000000000
00000000000000000000
00000000000000000000
00000000000000000000
00000000000000000000
00000000000000000000
ENDCHAR
STARTCHAR U+006c
ENCODING 108
SWIDTH 1000 0
DWIDTH 60 0
BBX 79 60 -9 -12
BITMAP
00000000000000000000
00000000000000000000
00000000000000000000
00000000000000000000
00000000000000000000
00000000000000000000
0000000ffff000000000
0000000ffff000000000
0000000ffff000000000
0000001fffe000000000
0000001fffe000000000
0000001fffe000000000
00000000ffc000000000
00000000ffc000000000
00000000ffc000000000
00000001ff8000000000
00000001ff8000000000
00000001ff8000000000
00000003ff0000000000
00000003ff0000000000
00000003ff0000000000
00000007fe0000000000
00000007fe0000000000
00000007fe0000000000
0000000ffc0000000000
0000000ffc0000000000
0000000ffc0000000000
0000001ff80000000000
0000001ff80000000000
0000001ff80000000000
0000003ff00000000000
0000003ff00000000000
0000003ff00000000000
0000007fe00000000000
0000007fe00000000000
0000007fe00000000000
000000ffc00000000000
000000ffc00000000000
000000ffc00000000000
000001ff800000000000
000001ff800000000000
000001ff800000000000
0000fffffc0000000000
0000fffffc0000000000
0000fffffc0000000000
0001fffff80000000000
0001fffff80000000000
0001fffff80000000000
00000000000000000000
00000000000000000000
00000000000000000000
00000000000000000000
00000000000000000000
00000000000000000000
00000000000000000000
00000000000000000000
00000000000000000000
00000000000000000000
00000000000000000000
00000000000000000000
ENDCHAR
STARTCHAR U+006b
ENCODING 107
SWIDTH 1000 0
DWIDTH 60 0
BBX 79 60 -9 -12
BITMAP
00000000000000000000
00000000000000000000
00000000000000000000
00000000000000000000
00000000000000000000
00000000000000000000
0000ffc0000000000000
0000ffc0000000000000
0000ffc0000000000000
0001ff80000000000000
0001ff80000000000000
0001ff80000000000000
0003ff00000000000000
0003ff00000000000000
0003ff00000000000000
0007fe00000000000000
0007fe00000000000000
0007fe00000000000000
000ffc000ffc00000000
000ffc000ffc00000000
000ffc000ffc00000000
001ff8001ff800000000
001ff8001ff800000000
001ff8001ff800000000
003ff00ffc0000000000
003ff00ffc0000000000
003ff00ffc0000000000
007fe01ff80000000000
007fe01ff80000000000
007fe01ff80000000000
00fffffc000000000000
00fffffc000000000000
00fffffc000000000000
01fffff8000000000000
01fffff8000000000000
01fffff8000000000000
03ff0003ff0000000000
03ff0003ff0000000000
03ff0003ff0000000000
07fe0007fe0000000000
07fe0007fe0000000000
07fe0007fe0000000000
0ffc000000ffc0000000
0ffc000000ffc0000000
0ffc000000ffc0000000
1ff8000001ff80000000
1ff8000001ff80000000
1ff8000001ff80000000
00000000000000000000
00000000000000000000
00000000000000000000
00000000000000000000
00000000000000000000
00000000000000000000
00000000000000000000
00000000000000000000
00000000000000000000
00000000000000000000
00000000000000000000
00000000000000000000
ENDCHAR
STARTCHAR U+006a
ENCODING 106
SWIDTH 1000 0
DWIDTH 60 0
BBX 79 60 -9 -12
BITMAP
00000000000000000000
00000000000000000000
00000000000000000000
00000000000000000000
00000000000000000000
00000000000000000000
000000000003ff000000
000000000003ff000000
000000000003ff000000
000000000007fe000000
000000000007fe000000
000000000007fe000000
00000000000000000000
00000000000000000000
00000000000000000000
00000000000000000000
00000000000000000000
00000000000000000000
00000000003ff0000000
00000000003ff0000000
00000000003ff0000000
00000000007fe0000000
00000000007fe0000000
00000000007fe0000000
0000000000ffc0000000
0000000000ffc0000000
0000000000ffc0000000
0000000001ff80000000
0000000001ff80000000
0000000001ff80000000
0000000003ff00000000
0000000003ff00000000
0000000003ff00000000
0000000007fe00000000
0000000007fe00000000
0000000007fe00000000
000000000ffc00000000
000000000ffc00000000
000000000ffc00000000
000000001ff800000000
000000001ff800000000
000000001ff800000000
0ffc00003ff000000000
0ffc00003ff000000000
0ffc00003ff000000000
1ff800007fe000000000
1ff800007fe000000000
1ff800007fe000000000
3ff00000ffc000000000
3ff00000ffc000000000
3ff00000ffc000000000
7fe00001ff8000000000
7fe00001ff8000000000
7fe00001ff8000000000
03ffffffc00000000000
03ffffffc00000000000
03ffffffc00000000000
07ffffff800000000000
07ffffff800000000000
07ffffff800000000000
ENDCHAR
STARTCHAR U+0069
ENCODING 105
SWIDTH 1000 0
DWIDTH 60 0
BBX 79 60 -9 -12
BITMAP
00000000000000000000
00000000000000000000
00000000000000000000
00000000000000000000
00000000000000000000
00000000000000000000
000000003ff000000000
000000003ff000000000
000000003ff000000000
000000007fe000000000
000000007fe000000000
000000007fe000000000
00000000000000000000
00000000000000000000
00000000000000000000
00000000000000000000
00000000000000000000
00000000000000000000
000000ffff0000000000
000000ffff0000000000
000000ffff0000000000
000001fffe0000000000
000001fffe0000000000
000001fffe0000000000
0000000ffc0000000000
0000000ffc0000000000
0000000ffc0000000000
0000001ff80000000000
0000001ff80000000000
0000001ff80000000000
0000003ff00000000000
0000003ff00000000000
0000003ff00000000000
0000007fe00000000000
0000007fe00000000000
0000007fe00000000000
000000ffc00000000000
000000ffc00000000000
000000ffc00000000000
000001ff800000000000
000001ff800000000000
000001ff800000000000
003ffffffff000000000
003ffffffff000000000
003ffffffff000000000
007fffffffe000000000
007fffffffe000000000
007fffffffe000000000
00000000000000000000
00000000000000000000
00000000000000000000
00000000000000000000
00000000000000000000
00000000000000000000
00000000000000000000
00000000000000000000
00000000000000000000
00000000000000000000
00000000000000000000
00000000000000000000
ENDCHAR
STARTCHAR U+0068
ENCODING 104
SWIDTH 1000 0
DWIDTH 60 0
BBX 79 60 -9 -12
BITMAP
00000000000000000000
00000000000000000000
00000000000000000000
00000000000000000000
00000000000000000000
00000000000000000000
0000ffc0000000000000
0000ffc0000000000000
0000ffc0000000000000
0001ff80000000000000
0001ff80000000000000
0001ff80000000000000
0003ff00000000000000
0003ff00000000000000
0003ff00000000000000
0007fe00000000000000
0007fe00000000000000
0007fe00000000000000
000ffcfffffff0000000
000ffcfffffff0000000
000ffcfffffff0000000
001ff9ffffffe0000000
001ff9ffffffe0000000
001ff9ffffffe0000000
003fffc00003ff000000
003fffc00003ff000000
003fffc00003ff000000
007fff800007fe000000
007fff800007fe000000
007fff800007fe000000
00ffc000000ffc000000
00ffc000000ffc000000
00ffc000000ffc000000
01ff8000001ff8000000
01ff8000001ff8000000
01ff8000001ff8000000
03ff0000003ff0000000
03ff0000003ff0000000
03ff0000003ff0000000
07fe0000007fe0000000
07fe0000007fe0000000
07fe0000007fe0000000
0ffc000000ffc0000000
0ffc000000ffc0000000
0ffc000000ffc0000000
1ff8000001ff80000000
1ff8000001ff80000000
1ff8000001ff80000000
00000000000000000000
00000000000000000000
00000000000000000000
00000000000000000000
00000000000000000000
00000000000000000000
00000000000000000000
00000000000000000000
00000000000000000000
00000000000000000000
00000000000000000000
00000000000000000000
ENDCHAR
STARTCHAR U+0067
ENCODING 103
SWIDTH 1000 0
DWIDTH 60 0
BBX 79 60 -9 -12
BITMAP
00000000000000000000
00000000000000000000
00000000000000000000
00000000000000000000
00000000000000000000
00000000000000000000
00000000000000000000
00000000000000000000
00000000000000000000
00000000000000000000
00000000000000000000
00000000000000000000
00000000000000000000
00000000000000000000
00000000000000000000
00000000000000000000
00000000000000000000
00000000000000000000
00003ffffffcffc00000
00003ffffffcffc00000
00003ffffffcffc00000
00007ffffff9ff800000
00007ffffff9ff800000
00007ffffff9ff800000
003ff00000ffc0000000
003ff00000ffc0000000
003ff00000ffc0000000
007fe00001ff80000000
007fe00001ff80000000
007fe00001ff80000000
0003ffffffc000000000
0003ffffffc000000000
0003ffffffc000000000
0007ffffff8000000000
0007ffffff8000000000
0007ffffff8000000000
03ff0000000000000000
03ff0000000000000000
03ff0000000000000000
07fe0000000000000000
07fe0000000000000000
07fe0000000000000000
003ffffffff000000000
003ffffffff000000000
003ffffffff000000000
007fffffffe000000000
007fffffffe000000000
007fffffffe000000000
3ff0000003ff00000000
3ff0000003ff00000000
3ff0000003ff00000000
7fe0000007fe00000000
7fe0000007fe00000000
7fe0000007fe00000000
03ffffffff0000000000
03ffffffff0000000000
03ffffffff0000000000
07fffffffe0000000000
07fffffffe0000000000
07fffffffe0000000000
ENDCHAR
STARTCHAR U+0066
ENCODING 102
SWIDTH 1000 0
DWIDTH 60 0
BBX 79 60 -9 -12
BITMAP
00000000000000000000
00000000000000000000
00000000000000000000
00000000000000000000
00000000000000000000
00000000000000000000
000000003fffff000000
000000003fffff000000
000000003fffff000000
000000007ffffe000000
000000007ffffe000000
000000007ffffe000000
0000003ff0003ff00000
0000003ff0003ff00000
0000003ff0003ff00000
0000007fe0007fe00000
0000007fe0007fe00000
0000007fe0007fe00000
000000ffc00000000000
000000ffc00000000000
000000ffc00000000000
000001ff800000000000
000001ff800000000000
000001ff800000000000
003ffffffff000000000
003ffffffff000000000
003ffffffff000000000
007fffffffe000000000
007fffffffe000000000
007fffffffe000000000
00000ffc000000000000
00000ffc000000000000
00000ffc000000000000
00001ff8000000000000
00001ff8000000000000
00001ff8000000000000
00003ff0000000000000
00003ff0000000000000
00003ff0000000000000
00007fe0000000000000
00007fe0000000000000
00007fe0000000000000
0000ffc0000000000000
0000ffc0000000000000
0000ffc0000000000000
0001ff80000000000000
0001ff80000000000000
0001ff80000000000000
00000000000000000000
00000000000000000000
00000000000000000000
00000000000000000000
00000000000000000000
00000000000000000000
00000000000000000000
00000000000000000000
00000000000000000000
00000000000000000000
00000000000000000000
00000000000000000000
ENDCHAR
STARTCHAR U+0065
ENCODING 101
SWIDTH 1000 0
DWIDTH 60 0
BBX 79 60 -9 -12
BITMAP
00000000000000000000
00000000000000000000
00000000000000000000
00000000000000000000
00000000000000000000
00000000000000000000
00000000000000000000
00000000000000000000
00000000000000000000
00000000000000000000
00000000000000000000
00000000000000000000
00000000000000000000
00000000000000000000
00000000000000000000
00000000000000000000
00000000000000000000
00000000000000000000
00003ffffffff0000000
00003ffffffff0000000
00003ffffffff0000000
00007fffffffe0000000
00007fffffffe0000000
00007fffffffe0000000
003ff0000003ff000000
003ff0000003ff000000
003ff0000003ff000000
007fe0000007fe000000
007fe0000007fe000000
007fe0000007fe000000
00fffffffffffc000000
00fffffffffffc000000
00fffffffffffc000000
01fffffffffff8000000
01fffffffffff8000000
01fffffffffff8000000
03ff0000000000000000
03ff0000000000000000
03ff0000000000000000
07fe0000000000000000
07fe0000000000000000
07fe0000000000000000
003ffffffff000000000
003ffffffff000000000
003ffffffff000000000
007fffffffe000000000
007fffffffe000000000
007fffffffe000000000
00000000000000000000
00000000000000000000
00000000000000000000
00000000000000000000
00000000000000000000
00000000000000000000
00000000000000000000
00000000000000000000
00000000000000000000
00000000000000000000
00000000000000000000
00000000000000000000
ENDCHAR
STARTCHAR U+0064
ENCODING 100
SWIDTH 1000 0
DWIDTH 60 0
BBX 79 60 -9 -12
BITMAP
00000000000000000000
00000000000000000000
00000000000000000000
00000000000000000000
00000000000000000000
00000000000000000000
0000000000000ffc0000
0000000000000ffc0000
0000000000000ffc0000
0000000000001ff80000
0000000000001ff80000
0000000000001ff80000
0000000000003ff00000
0000000000003ff00000
0000000000003ff00000
0000000000007fe00000
0000000000007fe00000
0000000000007fe00000
00003ffffffcffc00000
00003ffffffcffc00000
00003ffffffcffc00000
00007ffffff9ff800000
00007ffffff9ff800000
00007ffffff9ff800000
003ff00000ffff000000
003ff00000ffff000000
003ff00000ffff000000
007fe00001fffe000000
007fe00001fffe000000
007fe00001fffe000000
00ffc000000ffc000000
00ffc000000ffc000000
00ffc000000ffc000000
01ff8000001ff8000000
01ff8000001ff8000000
01ff8000001ff8000000
03ff00000ffff0000000
03ff00000ffff0000000
03ff00000ffff0000000
07fe00001fffe0000000
07fe00001fffe0000000
07fe00001fffe0000000
003ffffffcffc0000000
003ffffffcffc0000000
003ffffffcffc0000000
007ffffff9ff80000000
007ffffff9ff80000000
007ffffff9ff80000000
00000000000000000000
00000000000000000000
00000000000000000000
00000000000000000000
00000000000000000000
00000000000000000000
00000000000000000000
00000000000000000000
00000000000000000000
00000000000000000000
00000000000000000000
00000000000000000000
ENDCHAR
STARTCHAR U+0063
ENCODING 99
SWIDTH 1000 0
DWIDTH 60 0
BBX 79 60 -9 -12
BITMAP
00000000000000000000
00000000000000000000
00000000000000000000
00000000000000000000
00000000000000000000
00000000000000000000
00000000000000000000
00000000000000000000
00000000000000000000
00000000000000000000
00000000000000000000
00000000000000000000
00000000000000000000
00000000000000000000
00000000000000000000
00000000000000000000
00000000000000000000
00000000000000000000
00003ffffffff0000000
00003ffffffff0000000
00003ffffffff0000000
00007fffffffe0000000
00007fffffffe0000000
00007fffffffe0000000
003ff0000003ff000000
003ff0000003ff000000
003ff0000003ff000000
007fe0000007fe000000
007fe0000007fe000000
007fe0000007fe000000
00ffc000000000000000
00ffc000000000000000
00ffc000000000000000
01ff8000000000000000
01ff8000000000000000
01ff8000000000000000
03ff0000000000000000
03ff0000000000000000
03ff0000000000000000
07fe0000000000000000
07fe0000000000000000
07fe0000000000000000
003fffffffffc0000000
003fffffffffc0000000
003fffffffffc0000000
007fffffffff80000000
007fffffffff80000000
007fffffffff80000000
00000000000000000000
00000000000000000000
00000000000000000000
00000000000000000000
00000000000000000000
00000000000000000000
00000000000000000000
00000000000000000000
00000000000000000000
00000000000000000000
00000000000000000000
00000000000000000000
ENDCHAR
STARTCHAR U+0062
ENCODING 98
SWIDTH 1000 0
DWIDTH 60 0
BBX 79 60 -9 -12
BITMAP
00000000000000000000
00000000000000000000
00000000000000000000
00000000000000000000
00000000000000000000
00000000000000000000
0000ffc0000000000000
0000ffc0000000000000
0000ffc0000000000000
0001ff80000000000000
0001ff80000000000000
0001ff80000000000000
0003ff00000000000000
0003ff00000000000000
0003ff00000000000000
0007fe00000000000000
0007fe00000000000000
0007fe00000000000000
000ffcfffffff0000000
000ffcfffffff0000000
000ffcfffffff0000000
001ff9ffffffe0000000
001ff9ffffffe0000000
001ff9ffffffe0000000
003fffc00003ff000000
003fffc00003ff000000
003fffc00003ff000000
007fff800007fe000000
007fff800007fe000000
007fff800007fe000000
00ffc000000ffc000000
00ffc000000ffc000000
00ffc000000ffc000000
01ff8000001ff8000000
01ff8000001ff8000000
01ff8000001ff8000000
03fffc00003ff0000000
03fffc00003ff0000000
03fffc00003ff0000000
07fff800007fe0000000
07fff800007fe0000000
07fff800007fe0000000
0ffcfffffff000000000
0ffcfffffff000000000
0ffcfffffff000000000
1ff9ffffffe000000000
1ff9ffffffe000000000
1ff9ffffffe000000000
00000000000000000000
00000000000000000000
00000000000000000000
00000000000000000000
00000000000000000000
00000000000000000000
00000000000000000000
00000000000000000000
00000000000000000000
00000000000000000000
00000000000000000000
00000000000000000000
ENDCHAR
STARTCHAR U+0061
ENCODING 97
SWIDTH 1000 0
DWIDTH 60 0
BBX 79 60 -9 -12
BITMAP
00000000000000000000
00000000000000000000
00000000000000000000
00000000000000000000
00000000000000000000
00000000000000000000
00000000000000000000
00000000000000000000
00000000000000000000
00000000000000000000
00000000000000000000
00000000000000000000
00000000000000000000
00000000000000000000
00000000000000000000
00000000000000000000
00000000000000000000
00000000000000000000
00003ffffffff0000000
00003ffffffff0000000
00003ffffffff0000000
00007fffffffe0000000
00007fffffffe0000000
00007fffffffe0000000
000000000003ff000000
000000000003ff000000
000000000003ff000000
000000000007fe000000
000000000007fe000000
000000000007fe000000
0003fffffffffc000000
0003fffffffffc000000
0003fffffffffc000000
0007fffffffff8000000
0007fffffffff8000000
0007fffffffff8000000
03ff00000ffff0000000
03ff00000ffff0000000
03ff00000ffff0000000
07fe00001fffe0000000
07fe00001fffe0000000
07fe00001fffe0000000
003ffffffcffc0000000
003ffffffcffc0000000
003ffffffcffc0000000
007ffffff9ff80000000
007ffffff9ff80000000
007ffffff9ff80000000
00000000000000000000
00000000000000000000
00000000000000000000
00000000000000000000
00000000000000000000
00000000000000000000
00000000000000000000
00000000000000000000
00000000000000000000
00000000000000000000
00000000000000000000
00000000000000000000
ENDCHAR
STARTCHAR U+0060
ENCODING 96
SWIDTH 1000 0
DWIDTH 60 0
BBX 79 60 -9 -12
BITMAP
00000000000000000000
00000000000000000000
00000000000000000000
00000000000000000000
00000000000000000000
00000000000000000000
0000000ffff000000000
0000000ffff000000000
0000000ffff000000000
0000001fffe000000000
0000001fffe000000000
0000001fffe000000000
00000000ffc000000000
00000000ffc000000000
00000000ffc000000000
00000001ff8000000000
00000001ff8000000000
00000001ff8000000000
000000000ffc00000000
000000000ffc00000000
000000000ffc00000000
000000001ff800000000
000000001ff800000000
000000001ff800000000
00000000000000000000
00000000000000000000
00000000000000000000
00000000000000000000
00000000000000000000
00000000000000000000
00000000000000000000
00000000000000000000
00000000000000000000
00000000000000000000
00000000000000000000
00000000000000000000
00000000000000000000
00000000000000000000
00000000000000000000
00000000000000000000
00000000000000000000
00000000000000000000
00000000000000000000
00000000000000000000
00000000000000000000
00000000000000000000
00000000000000000000
00000000000000000000
00000000000000000000
00000000000000000000
00000000000000000000
00000000000000000000
00000000000000000000
00000000000000000000
00000000000000000000
00000000000000000000
00000000000000000000
00000000000000000000
00000000000000000000
00000000000000000000
ENDCHAR
STARTCHAR U+005F
ENCODING 95
SWIDTH 1000 0
DWIDTH 60 0
BBX 79 60 -9 -12
BITMAP
00000000000000000000
00000000000000000000
00000000000000000000
00000000000000000000
00000000000000000000
00000000000000000000
00000000000000000000
00000000000000000000
00000000000000000000
00000000000000000000
00000000000000000000
00000000000000000000
00000000000000000000
00000000000000000000
00000000000000000000
00000000000000000000
00000000000000000000
00000000000000000000
00000000000000000000
00000000000000000000
00000000000000000000
00000000000000000000
00000000000000000000
00000000000000000000
00000000000000000000
00000000000000000000
00000000000000000000
00000000000000000000
00000000000000000000
00000000000000000000
00000000000000000000
00000000000000000000
00000000000000000000
00000000000000000000
00000000000000000000
00000000000000000000
00000000000000000000
00000000000000000000
00000000000000000000
00000000000000000000
00000000000000000000
00000000000000000000
0fffffffffffc0000000
0fffffffffffc0000000
0fffffffffffc0000000
1fffffffffff80000000
1fffffffffff80000000
1fffffffffff80000000
00000000000000000000
00000000000000000000
00000000000000000000
00000000000000000000
00000000000000000000
00000000000000000000
00000000000000000000
00000000000000000000
00000000000000000000
00000000000000000000
00000000000000000000
00000000000000000000
ENDCHAR
STARTCHAR U+005E
ENCODING 94
SWIDTH 1000 0
DWIDTH 60 0
BBX 79 60 -9 -12
BITMAP
00000000000000000000
00000000000000000000
00000000000000000000
00000000000000000000
00000000000000000000
00000000000000000000
000000003ff000000000
000000003ff000000000
000000003ff000000000
000000007fe000000000
000000007fe000000000
000000007fe000000000
0000003ff3ff00000000
0000003ff3ff00000000
0000003ff3ff00000000
0000007fe7fe00000000
0000007fe7fe00000000
0000007fe7fe00000000
00003ff0003ff0000000
00003ff0003ff0000000
00003ff0003ff0000000
00007fe0007fe0000000
00007fe0007fe0000000
00007fe0007fe0000000
003ff0000003ff000000
003ff0000003ff000000
003ff0000003ff000000
007fe0000007fe000000
007fe0000007fe000000
007fe0000007fe000000
00000000000000000000
00000000000000000000
00000000000000000000
00000000000000000000
00000000000000000000
00000000000000000000
00000000000000000000
00000000000000000000
00000000000000000000
00000000000000000000
00000000000000000000
00000000000000000000
00000000000000000000
00000000000000000000
00000000000000000000
00000000000000000000
00000000000000000000
00000000000000000000
00000000000000000000
00000000000000000000
00000000000000000000
00000000000000000000
00000000000000000000
00000000000000000000
00000000000000000000
00000000000000000000
00000000000000000000
00000000000000000000
00000000000000000000
00000000000000000000
ENDCHAR
STARTCHAR U+005D
ENCODING 93
SWIDTH 1000 0
DWIDTH 60 0
BBX 79 60 -9 -12
BITMAP
00000000000000000000
00000000000000000000
00000000000000000000
00000000000000000000
00000000000000000000
00000000000000000000
000003ffffffc0000000
000003ffffffc0000000
000003ffffffc0000000
000007ffffff80000000
000007ffffff80000000
000007ffffff80000000
0000000003ff00000000
0000000003ff00000000
0000000003ff00000000
0000000007fe00000000
0000000007fe00000000
0000000007fe00000000
000000000ffc00000000
000000000ffc00000000
000000000ffc00000000
000000001ff800000000
000000001ff800000000
000000001ff800000000
000000003ff000000000
000000003ff000000000
000000003ff000000000
000000007fe000000000
000000007fe000000000
000000007fe000000000
00000000ffc000000000
00000000ffc000000000
00000000ffc000000000
00000001ff8000000000
00000001ff8000000000
00000001ff8000000000
00000003ff0000000000
00000003ff0000000000
00000003ff0000000000
00000007fe0000000000
00000007fe0000000000
00000007fe0000000000
003ffffffc0000000000
003ffffffc0000000000
003ffffffc0000000000
007ffffff80000000000
007ffffff80000000000
007ffffff80000000000
00000000000000000000
00000000000000000000
00000000000000000000
00000000000000000000
00000000000000000000
00000000000000000000
00000000000000000000
00000000000000000000
00000000000000000000
00000000000000000000
00000000000000000000
00000000000000000000
ENDCHAR
STARTCHAR U+005C
ENCODING 92
SWIDTH 1000 0
DWIDTH 60 0
BBX 79 60 -9 -12
BITMAP
00000000000000000000
00000000000000000000
00000000000000000000
00000000000000000000
00000000000000000000
00000000000000000000
0000ffc0000000000000
0000ffc0000000000000
0000ffc0000000000000
0001ff80000000000000
0001ff80000000000000
0001ff80000000000000
00000ffc000000000000
00000ffc000000000000
00000ffc000000000000
00001ff8000000000000
00001ff8000000000000
00001ff8000000000000
000000ffc00000000000
000000ffc00000000000
000000ffc00000000000
000001ff800000000000
000001ff800000000000
000001ff800000000000
0000000ffc0000000000
0000000ffc0000000000
0000000ffc0000000000
0000001ff80000000000
0000001ff80000000000
0000001ff80000000000
00000000ffc000000000
00000000ffc000000000
00000000ffc000000000
00000001ff8000000000
00000001ff8000000000
00000001ff8000000000
000000000ffc00000000
000000000ffc00000000
000000000ffc00000000
000000001ff800000000
000000001ff800000000
000000001ff800000000
0000000000ffc0000000
0000000000ffc0000000
0000000000ffc0000000
0000000001ff80000000
0000000001ff80000000
0000000001ff80000000
00000000000000000000
00000000000000000000
00000000000000000000
00000000000000000000
00000000000000000000
00000000000000000000
00000000000000000000
00000000000000000000
00000000000000000000
00000000000000000000
00000000000000000000
00000000000000000000
ENDCHAR
STARTCHAR U+005B
ENCODING 91
SWIDTH 1000 0
DWIDTH 60 0
BBX 79 60 -9 -12
BITMAP
00000000000000000000
00000000000000000000
00000000000000000000
00000000000000000000
00000000000000000000
00000000000000000000
0000000fffffff000000
0000000fffffff000000
0000000fffffff000000
0000001ffffffe000000
0000001ffffffe000000
0000001ffffffe000000
0000003ff00000000000
0000003ff00000000000
0000003ff00000000000
0000007fe00000000000
0000007fe00000000000
0000007fe00000000000
000000ffc00000000000
000000ffc00000000000
000000ffc00000000000
000001ff800000000000
000001ff800000000000
000001ff800000000000
000003ff000000000000
000003ff000000000000
000003ff000000000000
000007fe000000000000
000007fe000000000000
000007fe000000000000
00000ffc000000000000
00000ffc000000000000
00000ffc000000000000
00001ff8000000000000
00001ff8000000000000
00001ff8000000000000
00003ff0000000000000
00003ff0000000000000
00003ff0000000000000
00007fe0000000000000
00007fe0000000000000
00007fe0000000000000
0000fffffff000000000
0000fffffff000000000
0000fffffff000000000
0001ffffffe000000000
0001ffffffe000000000
0001ffffffe000000000
00000000000000000000
00000000000000000000
00000000000000000000
00000000000000000000
00000000000000000000
00000000000000000000
00000000000000000000
00000000000000000000
00000000000000000000
00000000000000000000
00000000000000000000
00000000000000000000
ENDCHAR
STARTCHAR U+005A
ENCODING 90
SWIDTH 1000 0
DWIDTH 60 0
BBX 79 60 -9 -12
BITMAP
00000000000000000000
00000000000000000000
00000000000000000000
00000000000000000000
00000000000000000000
00000000000000000000
0000fffffffffffc0000
0000fffffffffffc0000
0000fffffffffffc0000
0001fffffffffff80000
0001fffffffffff80000
0001fffffffffff80000
00000000000ffc000000
00000000000ffc000000
00000000000ffc000000
00000000001ff8000000
00000000001ff8000000
00000000001ff8000000
000000000ffc00000000
000000000ffc00000000
000000000ffc00000000
000000001ff800000000
000000001ff800000000
000000001ff800000000
0000000ffc0000000000
0000000ffc0000000000
0000000ffc0000000000
0000001ff80000000000
0000001ff80000000000
0000001ff80000000000
00000ffc000000000000
00000ffc000000000000
00000ffc000000000000
00001ff8000000000000
00001ff8000000000000
00001ff8000000000000
000ffc00000000000000
000ffc00000000000000
000ffc00000000000000
001ff800000000000000
001ff800000000000000
001ff800000000000000
0fffffffffffc0000000
0fffffffffffc0000000
0fffffffffffc0000000
1fffffffffff80000000
1fffffffffff80000000
1fffffffffff80000000
00000000000000000000
00000000000000000000
00000000000000000000
00000000000000000000
00000000000000000000
00000000000000000000
00000000000000000000
00000000000000000000
00000000000000000000
00000000000000000000
00000000000000000000
00000000000000000000
ENDCHAR
ENDFONT
